<svg
      xmlns="http://www.w3.org/2000/svg"
      width="200"
      height="90"
      fill="none"
      viewBox="0 0 169 56"
    >
      <path
        fill="#fff"
        d="M68.578 9.5h3.547l4.75 11.594h.188L81.813 9.5h3.546v16h-2.78V14.508h-.15l-4.421 10.945H75.93l-4.422-10.969h-.149V25.5h-2.78v-16zm24.025 16.234c-1.203 0-2.242-.25-3.117-.75a5.08 5.08 0 01-2.008-2.14c-.469-.927-.703-2.018-.703-3.274 0-1.234.234-2.317.703-3.25.474-.937 1.136-1.666 1.985-2.187.849-.526 1.846-.79 2.992-.79.74 0 1.437.12 2.093.36a4.732 4.732 0 011.75 1.094c.51.495.912 1.125 1.204 1.89.291.76.437 1.667.437 2.72v.866h-9.836v-1.906h7.125a3.042 3.042 0 00-.351-1.445 2.556 2.556 0 00-.961-1.008c-.407-.245-.88-.367-1.422-.367-.578 0-1.086.14-1.524.422-.437.276-.778.64-1.023 1.094-.24.447-.362.94-.367 1.476v1.664c0 .698.127 1.297.383 1.797.255.495.612.875 1.07 1.14.458.261.995.391 1.61.391.41 0 .783-.057 1.116-.172a2.48 2.48 0 00.868-.523c.244-.23.43-.513.554-.852l2.64.297a4.118 4.118 0 01-.952 1.828c-.464.516-1.058.917-1.781 1.203-.724.282-1.553.422-2.485.422zM105.224 13.5v2.188h-6.899V13.5h6.899zm-5.195-2.875h2.828v11.266c0 .38.057.672.172.875a.926.926 0 00.468.406c.193.073.407.11.641.11.177 0 .338-.014.484-.04.151-.026.266-.05.344-.07l.477 2.21c-.151.053-.368.11-.649.173a5.309 5.309 0 01-1.015.11c-.709.02-1.347-.087-1.915-.321a2.977 2.977 0 01-1.351-1.11c-.328-.5-.49-1.125-.484-1.875V10.625zm9.913 15.117c-.76 0-1.445-.135-2.054-.406a3.349 3.349 0 01-1.438-1.219c-.349-.536-.523-1.198-.523-1.984 0-.677.125-1.237.375-1.68.25-.443.591-.797 1.023-1.062a5.155 5.155 0 011.461-.602c.547-.14 1.112-.242 1.695-.305a66.498 66.498 0 001.711-.195c.438-.062.755-.156.953-.281.203-.13.305-.33.305-.602v-.047c0-.588-.174-1.044-.523-1.367-.349-.323-.852-.484-1.508-.484-.693 0-1.242.15-1.649.453-.401.302-.672.659-.812 1.07l-2.641-.375c.209-.729.552-1.338 1.031-1.828a4.498 4.498 0 011.758-1.11c.693-.25 1.459-.374 2.297-.374.578 0 1.154.068 1.727.203.573.135 1.096.36 1.57.672a3.38 3.38 0 011.141 1.258c.291.53.437 1.195.437 1.992V25.5h-2.719v-1.648h-.093a3.448 3.448 0 01-.727.937 3.49 3.49 0 01-1.164.695c-.464.172-1.008.258-1.633.258zm.735-2.078c.567 0 1.059-.112 1.476-.336.417-.229.737-.531.961-.906a2.31 2.31 0 00.344-1.227v-1.414c-.089.073-.24.14-.453.203a6.453 6.453 0 01-.703.164c-.261.047-.519.089-.774.125l-.664.094a4.948 4.948 0 00-1.133.281c-.333.13-.596.313-.789.547-.193.23-.289.526-.289.89 0 .522.19.915.57 1.18.381.266.865.4 1.454.4zM128.311 13.5l-4.274 12h-3.125l-4.273-12h3.016l2.757 8.914h.125l2.766-8.914h3.008zm3.966 12.242c-.76 0-1.445-.135-2.054-.406a3.349 3.349 0 01-1.438-1.219c-.349-.536-.523-1.198-.523-1.984 0-.677.125-1.237.375-1.68.25-.443.591-.797 1.023-1.062a5.155 5.155 0 011.461-.602c.547-.14 1.112-.242 1.695-.305a65.98 65.98 0 001.711-.195c.438-.062.756-.156.953-.281.204-.13.305-.33.305-.602v-.047c0-.588-.174-1.044-.523-1.367-.349-.323-.852-.484-1.508-.484-.693 0-1.242.15-1.649.453-.401.302-.671.659-.812 1.07l-2.641-.375c.209-.729.552-1.338 1.032-1.828a4.487 4.487 0 011.757-1.11c.693-.25 1.459-.374 2.297-.374.578 0 1.154.068 1.727.203.573.135 1.096.36 1.57.672a3.38 3.38 0 011.141 1.258c.291.53.437 1.195.437 1.992V25.5h-2.718v-1.648h-.094a3.448 3.448 0 01-.727.937 3.49 3.49 0 01-1.164.695c-.463.172-1.008.258-1.633.258zm.735-2.078c.567 0 1.06-.112 1.476-.336.417-.229.737-.531.961-.906a2.31 2.31 0 00.344-1.227v-1.414c-.089.073-.24.14-.453.203a6.399 6.399 0 01-.703.164c-.261.047-.519.089-.774.125l-.664.094a4.948 4.948 0 00-1.133.281c-.333.13-.596.313-.789.547-.192.23-.289.526-.289.89 0 .522.19.915.571 1.18.38.266.864.4 1.453.4zm14.993-3.21V13.5h2.829v12h-2.743v-2.133h-.125a3.602 3.602 0 01-1.336 1.649c-.614.427-1.372.64-2.273.64-.786 0-1.482-.174-2.086-.523-.599-.354-1.068-.867-1.406-1.54-.339-.676-.508-1.494-.508-2.452V13.5h2.828v7.203c0 .76.208 1.365.625 1.813.417.448.964.672 1.641.672.416 0 .82-.102 1.211-.305.39-.203.711-.505.961-.906.255-.407.382-.915.382-1.524zM155.47 9.5v16h-2.828v-16h2.828zm7.8 4v2.188h-6.898V13.5h6.898zm-5.195-2.875h2.828v11.266c0 .38.057.672.172.875.12.198.276.333.469.406.192.073.406.11.64.11.177 0 .339-.014.485-.04.151-.026.265-.05.343-.07l.477 2.21c-.151.053-.367.11-.648.173a5.32 5.32 0 01-1.016.11c-.708.02-1.346-.087-1.914-.321a2.98 2.98 0 01-1.352-1.11c-.328-.5-.489-1.125-.484-1.875V10.625z"
      ></path>
      <path
        fill="#FFAA27"
        d="M72.315 48.5H68.19V36.864h4.16c1.17 0 2.178.233 3.022.699a4.714 4.714 0 011.95 1.994c.457.867.687 1.905.687 3.113 0 1.213-.23 2.254-.688 3.125a4.724 4.724 0 01-1.96 2.006c-.849.466-1.864.699-3.046.699zm-1.664-2.108h1.562c.727 0 1.34-.129 1.835-.386.5-.262.875-.665 1.125-1.21.254-.55.381-1.258.381-2.126 0-.86-.127-1.562-.38-2.108-.25-.545-.624-.947-1.12-1.204-.496-.258-1.108-.386-1.835-.386H70.65v7.42zm9.89 2.108h-2.637l4.017-11.636h3.17L89.104 48.5h-2.636l-2.915-8.977h-.091L80.54 48.5zm-.165-4.574h6.227v1.92h-6.227v-1.92zm19.634-1.244c0 1.269-.24 2.348-.722 3.238-.477.89-1.129 1.57-1.954 2.04-.822.466-1.746.7-2.773.7-1.034 0-1.962-.236-2.784-.705-.822-.47-1.472-1.15-1.949-2.04-.477-.89-.716-1.968-.716-3.233 0-1.27.239-2.349.716-3.239.477-.89 1.127-1.568 1.949-2.034.822-.47 1.75-.704 2.784-.704 1.026 0 1.95.234 2.773.704.825.466 1.477 1.144 1.954 2.034.481.89.722 1.97.722 3.239zm-2.495 0c0-.822-.123-1.515-.369-2.08-.242-.564-.585-.992-1.028-1.284-.443-.291-.962-.437-1.557-.437s-1.114.145-1.557.437c-.443.292-.788.72-1.034 1.284-.242.565-.364 1.258-.364 2.08 0 .822.122 1.515.364 2.08.246.564.591.992 1.034 1.283.443.292.962.438 1.557.438s1.114-.146 1.557-.438c.443-.291.786-.72 1.028-1.284.246-.564.37-1.257.37-2.08z"
      ></path>
      <g filter="url(#filter0_i_9_92)">
        <circle cx="29" cy="28" r="28" fill="url(#paint0_linear_9_92)"></circle>
      </g>
      <circle
        cx="29"
        cy="28"
        r="25.358"
        fill="url(#paint1_linear_9_92)"
        fill-opacity="0.8"
      ></circle>
      <circle
        cx="29"
        cy="28"
        r="25.358"
        stroke="url(#paint2_linear_9_92)"
        style="mix-blend-mode: overlay;"
      ></circle>
      <path
        fill="#000"
        fill-opacity="0.25"
        d="M42.5 25.5L29 39 15.5 25.5 20 21l9 9 9-9 4.5 4.5z"
      ></path>
      <path fill="#D28A1C" d="M29.021 30l9.13-9.183V12l-9.13 9.183V30z"></path>
      <path
        fill="url(#paint3_linear_9_92)"
        d="M29.058 47.963l18-18.157v-8.825l-18 18.157v8.825z"
      ></path>
      <path
        fill="#FFAA27"
        d="M29.058 30l-9.092-9.183V12l9.092 9.183V30z"
      ></path>
      <path
        fill="url(#paint4_linear_9_92)"
        d="M29.058 47.963l-18-18.157v-8.825l18 18.157v8.825z"
      ></path>
      <path
        fill="url(#paint5_linear_9_92)"
        d="M38.15 21.11l8.632 8.696-17.745 17.879-17.703-17.879 8.631-8.696 8.926 9.051.138.14.138-.14 8.984-9.051zm.001-.278l-9.122 9.19-9.064-9.19-8.907 8.974 17.98 18.157 18.02-18.157-8.907-8.974z"
      ></path>
      <path
        fill="url(#paint6_linear_9_92)"
        d="M29.058 47.963l18-18.157v-8.825l-18 18.157v8.825z"
      ></path>
      <path
        fill="url(#paint7_linear_9_92)"
        d="M47.058 29.776l-8.907-8.963V12l8.907 8.963v8.813z"
      ></path>
      <path
        fill="url(#paint8_linear_9_92)"
        d="M29.058 47.963l-18-18.157v-8.825l18 18.157v8.825z"
      ></path>
      <path
        fill="#fff"
        d="M38.15 21.11l8.632 8.696-17.745 17.879-17.703-17.879 8.631-8.696 8.926 9.051.138.14.138-.14 8.984-9.051zm.001-.278l-9.122 9.19-9.064-9.19-8.907 8.974 17.98 18.157 18.02-18.157-8.907-8.974z"
        style="mix-blend-mode: overlay;"
      ></path>
      <path
        fill="url(#paint9_linear_9_92)"
        d="M11.058 29.776l8.908-8.963V12l-8.908 8.963v8.813z"
      ></path>
      <defs>
        <filter
          id="filter0_i_9_92"
          width="56"
          height="62"
          x="1"
          y="0"
          color-interpolation-filters="sRGB"
          filterUnits="userSpaceOnUse"
        >
          <feFlood flood-opacity="0" result="BackgroundImageFix"></feFlood>
          <feBlend
            in="SourceGraphic"
            in2="BackgroundImageFix"
            result="shape"
          ></feBlend>
          <feColorMatrix
            in="SourceAlpha"
            result="hardAlpha"
            values="0 0 0 0 0 0 0 0 0 0 0 0 0 0 0 0 0 0 127 0"
          ></feColorMatrix>
          <feOffset dy="7"></feOffset>
          <feGaussianBlur stdDeviation="3"></feGaussianBlur>
          <feComposite
            in2="hardAlpha"
            k2="-1"
            k3="1"
            operator="arithmetic"
          ></feComposite>
          <feColorMatrix values="0 0 0 0 1 0 0 0 0 1 0 0 0 0 1 0 0 0 0.3 0"></feColorMatrix>
          <feBlend in2="shape" result="effect1_innerShadow_9_92"></feBlend>
        </filter>
        <linearGradient
          id="paint0_linear_9_92"
          x1="51.186"
          x2="4.366"
          y1="3.672"
          y2="49.574"
          gradientUnits="userSpaceOnUse"
        >
          <stop stop-color="#FFAA27"></stop>
          <stop offset="0.504" stop-color="#4D259B"></stop>
          <stop offset="0.715" stop-color="#291D99"></stop>
          <stop offset="1" stop-color="#120C40"></stop>
        </linearGradient>
        <linearGradient
          id="paint1_linear_9_92"
          x1="53"
          x2="13"
          y1="-5.5"
          y2="44"
          gradientUnits="userSpaceOnUse"
        >
          <stop stop-color="#FB9800"></stop>
          <stop offset="0.62" stop-color="#3D38D5"></stop>
          <stop offset="1" stop-color="#0C0965"></stop>
        </linearGradient>
        <linearGradient
          id="paint2_linear_9_92"
          x1="16.301"
          x2="52.104"
          y1="13.005"
          y2="48.044"
          gradientUnits="userSpaceOnUse"
        >
          <stop stop-color="#fff"></stop>
          <stop offset="1"></stop>
        </linearGradient>
        <linearGradient
          id="paint3_linear_9_92"
          x1="29.058"
          x2="47.058"
          y1="34.472"
          y2="34.472"
          gradientUnits="userSpaceOnUse"
        >
          <stop stop-color="#A5ABB2"></stop>
          <stop offset="0.21" stop-color="#9FA5AC"></stop>
          <stop offset="0.49" stop-color="#8C939A"></stop>
          <stop offset="0.83" stop-color="#6F767E"></stop>
          <stop offset="1" stop-color="#5D656D"></stop>
        </linearGradient>
        <linearGradient
          id="paint4_linear_9_92"
          x1="11.058"
          x2="29.058"
          y1="34.472"
          y2="34.472"
          gradientUnits="userSpaceOnUse"
        >
          <stop stop-color="#3E4147"></stop>
          <stop offset="0.3" stop-color="#44474D"></stop>
          <stop offset="0.71" stop-color="#56585F"></stop>
          <stop offset="1" stop-color="#67686F"></stop>
        </linearGradient>
        <linearGradient
          id="paint5_linear_9_92"
          x1="29.058"
          x2="29.058"
          y1="20.832"
          y2="47.963"
          gradientUnits="userSpaceOnUse"
        >
          <stop stop-color="#C73507"></stop>
          <stop offset="1" stop-color="#fff" stop-opacity="0"></stop>
        </linearGradient>
        <linearGradient
          id="paint6_linear_9_92"
          x1="72.085"
          x2="34.517"
          y1="61.77"
          y2="25.486"
          gradientUnits="userSpaceOnUse"
        >
          <stop stop-color="#FFAA27"></stop>
          <stop offset="0.21" stop-color="#FFAA27"></stop>
          <stop offset="0.49" stop-color="#FFAA27"></stop>
          <stop offset="0.72" stop-color="#D58710"></stop>
          <stop offset="1" stop-color="#955A00"></stop>
        </linearGradient>
        <linearGradient
          id="paint7_linear_9_92"
          x1="38"
          x2="47"
          y1="17"
          y2="24.5"
          gradientUnits="userSpaceOnUse"
        >
          <stop stop-color="#fff"></stop>
          <stop offset="1" stop-color="#FFC772" stop-opacity="0.4"></stop>
        </linearGradient>
        <linearGradient
          id="paint8_linear_9_92"
          x1="54.085"
          x2="16.517"
          y1="61.77"
          y2="25.486"
          gradientUnits="userSpaceOnUse"
        >
          <stop stop-color="#FFAA27"></stop>
          <stop offset="0.21" stop-color="#FFAA27"></stop>
          <stop offset="0.49" stop-color="#FFAA27"></stop>
          <stop offset="0.72" stop-color="#D58710"></stop>
          <stop offset="1" stop-color="#955A00"></stop>
        </linearGradient>
        <linearGradient
          id="paint9_linear_9_92"
          x1="20"
          x2="10"
          y1="15"
          y2="25"
          gradientUnits="userSpaceOnUse"
        >
          <stop stop-color="#fff"></stop>
          <stop offset="1" stop-color="#FFC772" stop-opacity="0.4"></stop>
        </linearGradient>
      </defs>
    </svg>