<svg xmlns="http://www.w3.org/2000/svg" width="80" height="80" fill="none" viewBox="0 0 80 80" class="mb-2"><rect width="80" height="80" fill="url(#paint0_linear_1161_528)" fill-opacity="0.1" rx="40"></rect><rect width="80" height="80" fill="url(#paint1_radial_1161_528)" fill-opacity="0.2" rx="40"></rect><rect width="79" height="79" x="0.5" y="0.5" stroke="#fff" stroke-opacity="0.12" rx="39.5"></rect><path stroke="url(#paint2_linear_1161_528)" stroke-linecap="round" stroke-linejoin="round" stroke-width="1.5" d="M28.364 57.614l-5.978-5.978a9 9 0 01-2.636-6.364V34.73a9 9 0 012.636-6.364l5.98-5.98a9 9 0 016.364-2.636h10.538a9 9 0 016.364 2.636l5.982 5.983a9 9 0 012.636 6.363V45.27a9 9 0 01-2.635 6.362l-5.978 5.98a9 9 0 01-6.365 2.638H34.728a9 9 0 01-6.364-2.636z" clip-rule="evenodd"></path><path stroke="url(#paint3_linear_1161_528)" stroke-linecap="round" stroke-linejoin="round" stroke-width="1.5" d="M40 29.875v-2.25"></path><path fill="url(#paint4_linear_1161_528)" fill-opacity="0.4" fill-rule="evenodd" stroke="url(#paint5_linear_1161_528)" stroke-linecap="round" stroke-linejoin="round" stroke-width="1.5" d="M46.75 36.625h-13.5a6.75 6.75 0 0113.5 0z" clip-rule="evenodd"></path><path stroke="url(#paint6_linear_1161_528)" stroke-linecap="round" stroke-linejoin="round" stroke-width="1.5" d="M31 47.875v-11.25"></path><path stroke="url(#paint7_linear_1161_528)" stroke-linecap="round" stroke-linejoin="round" stroke-width="1.5" d="M49 47.875v-11.25"></path><path stroke="url(#paint8_linear_1161_528)" stroke-linecap="round" stroke-linejoin="round" stroke-width="1.5" d="M37 47.875v-11.25"></path><path stroke="url(#paint9_linear_1161_528)" stroke-linecap="round" stroke-linejoin="round" stroke-width="1.5" d="M43 47.875v-11.25"></path><path stroke="url(#paint10_linear_1161_528)" stroke-linecap="round" stroke-linejoin="round" stroke-width="1.5" d="M28.75 47.875h22.5"></path><path stroke="url(#paint11_linear_1161_528)" stroke-linecap="round" stroke-linejoin="round" stroke-width="1.5" d="M29.875 36.625h20.25"></path><defs><linearGradient id="paint0_linear_1161_528" x1="4.762" x2="81.019" y1="75.062" y2="8.576" gradientUnits="userSpaceOnUse"><stop offset="0.002" stop-color="#000000"></stop><stop offset="1" stop-color="#D9C256"></stop></linearGradient><radialGradient id="paint1_radial_1161_528" cx="0" cy="0" r="1" gradientTransform="rotate(95.464 5.685 33.928) scale(57.7624)" gradientUnits="userSpaceOnUse"><stop stop-color="#fff"></stop><stop offset="1" stop-opacity="0"></stop></radialGradient><linearGradient id="paint2_linear_1161_528" x1="40" x2="39.244" y1="58.803" y2="21.21" gradientUnits="userSpaceOnUse"><stop offset="0.002" stop-color="#000000"></stop><stop offset="1" stop-color="#D9C256"></stop></linearGradient><linearGradient id="paint3_linear_1161_528" x1="38.826" x2="40.557" y1="29.043" y2="29.035" gradientUnits="userSpaceOnUse"><stop offset="0.002" stop-color="#6461FF"></stop><stop offset="1" stop-color="#D9C256"></stop></linearGradient><linearGradient id="paint4_linear_1161_528" x1="40" x2="39.937" y1="36.384" y2="30.116" gradientUnits="userSpaceOnUse"><stop offset="0.002" stop-color="#000000"></stop><stop offset="1" stop-color="#D9C256"></stop></linearGradient><linearGradient id="paint5_linear_1161_528" x1="40" x2="39.937" y1="36.384" y2="30.116" gradientUnits="userSpaceOnUse"><stop offset="0.002" stop-color="#000000"></stop><stop offset="1" stop-color="#D9C256"></stop></linearGradient><linearGradient id="paint6_linear_1161_528" x1="31.5" x2="29.252" y1="47.473" y2="37.535" gradientUnits="userSpaceOnUse"><stop offset="0.002" stop-color="#000000"></stop><stop offset="1" stop-color="#D9C256"></stop></linearGradient><linearGradient id="paint7_linear_1161_528" x1="49" x2="47.96" y1="47.473" y2="37.131" gradientUnits="userSpaceOnUse"><stop offset="0.002" stop-color="#000000"></stop><stop offset="1" stop-color="#D9C256"></stop></linearGradient><linearGradient id="paint8_linear_1161_528" x1="37" x2="35.96" y1="47.473" y2="37.131" gradientUnits="userSpaceOnUse"><stop offset="0.002" stop-color="#000000"></stop><stop offset="1" stop-color="#D9C256"></stop></linearGradient><linearGradient id="paint9_linear_1161_528" x1="43" x2="41.96" y1="47.473" y2="37.131" gradientUnits="userSpaceOnUse"><stop offset="0.002" stop-color="#000000"></stop><stop offset="1" stop-color="#D9C256"></stop></linearGradient><linearGradient id="paint10_linear_1161_528" x1="40" x2="39.999" y1="48.839" y2="47.911" gradientUnits="userSpaceOnUse"><stop offset="0.002" stop-color="#000000"></stop><stop offset="1" stop-color="#D9C256"></stop></linearGradient><linearGradient id="paint11_linear_1161_528" x1="40" x2="39.995" y1="37.67" y2="35.58" gradientUnits="userSpaceOnUse"><stop offset="0.002" stop-color="#000000"></stop><stop offset="1" stop-color="#D9C256"></stop></linearGradient></defs></svg>