<svg xmlns="http://www.w3.org/2000/svg" width="80" height="80" fill="none" viewBox="0 0 80 80" class="mb-2"><rect width="80" height="80" fill="url(#paint0_linear_1161_487)" fill-opacity="0.1" rx="40"></rect><rect width="80" height="80" fill="url(#paint1_radial_1161_487)" fill-opacity="0.2" rx="40"></rect><rect width="79" height="79" x="0.5" y="0.5" stroke="#fff" stroke-opacity="0.12" rx="39.5"></rect><path stroke="url(#paint2_linear_1161_487)" stroke-linecap="round" stroke-linejoin="round" stroke-width="1.5" d="M41.995 33.995c0 2.21-4.476 4-9.998 4-5.524 0-10-1.79-10-4"></path><path stroke="url(#paint3_linear_1161_487)" stroke-linecap="round" stroke-linejoin="round" stroke-width="1.5" d="M31.995 45.995c-5.522 0-9.998-1.79-9.998-4"></path><path stroke="url(#paint4_linear_1161_487)" stroke-linecap="round" stroke-linejoin="round" stroke-width="1.5" d="M41.993 25.995h.002v12"></path><path stroke="url(#paint5_linear_1161_487)" stroke-linecap="round" stroke-linejoin="round" stroke-width="1.5" d="M57.993 45.995v8c0 2.21-4.476 4-9.998 4-5.524 0-10-1.79-10-4v-8"></path><path stroke="url(#paint6_linear_1161_487)" stroke-linecap="round" stroke-linejoin="round" stroke-width="1.5" d="M31.995 53.995c-5.522 0-10-1.79-10-4"></path><path stroke="url(#paint7_linear_1161_487)" stroke-linecap="round" stroke-linejoin="round" stroke-width="1.5" d="M21.995 25.995v24"></path><path stroke="url(#paint8_linear_1161_487)" stroke-linecap="round" stroke-linejoin="round" stroke-width="1.5" d="M51.995 25.995v10"></path><path stroke="url(#paint9_linear_1161_487)" stroke-linecap="round" stroke-linejoin="round" stroke-width="1.5" d="M55.995 29.995l-4-4-4 4"></path><path fill="url(#paint10_linear_1161_487)" fill-opacity="0.4" fill-rule="evenodd" d="M57.99 45.995c.003-2.21-4.477-4-9.997-4s-10 1.79-9.998 4c0 2.21 4.476 4 10 4s10-1.79 10-4" clip-rule="evenodd"></path><path stroke="url(#paint11_linear_1161_487)" stroke-linecap="round" stroke-linejoin="round" stroke-width="1.5" d="M57.99 45.995c.003-2.21-4.477-4-9.997-4s-10 1.79-9.998 4c0 2.21 4.476 4 10 4s10-1.79 10-4"></path><ellipse cx="31.995" cy="25.995" fill="url(#paint12_linear_1161_487)" fill-opacity="0.4" stroke="url(#paint13_linear_1161_487)" stroke-linecap="round" stroke-linejoin="round" stroke-width="1.5" rx="10" ry="4"></ellipse><defs><linearGradient id="paint0_linear_1161_487" x1="4.762" x2="81.019" y1="75.062" y2="8.576" gradientUnits="userSpaceOnUse"><stop offset="0.002" stop-color="#000000"></stop><stop offset="1" stop-color="#D9C256"></stop></linearGradient><radialGradient id="paint1_radial_1161_487" cx="0" cy="0" r="1" gradientTransform="rotate(95.464 5.685 33.928) scale(57.7624)" gradientUnits="userSpaceOnUse"><stop stop-color="#fff"></stop><stop offset="1" stop-opacity="0"></stop></radialGradient><linearGradient id="paint2_linear_1161_487" x1="32" x2="31.97" y1="40.5" y2="34.138" gradientUnits="userSpaceOnUse"><stop offset="0.002" stop-color="#000000"></stop><stop offset="1" stop-color="#D9C256"></stop></linearGradient><linearGradient id="paint3_linear_1161_487" x1="26.998" x2="26.939" y1="48.5" y2="42.138" gradientUnits="userSpaceOnUse"><stop offset="0.002" stop-color="#000000"></stop><stop offset="1" stop-color="#D9C256"></stop></linearGradient><linearGradient id="paint4_linear_1161_487" x1="41.994" x2="40.669" y1="37.566" y2="26.583" gradientUnits="userSpaceOnUse"><stop offset="0.484" stop-color="#D9C256"></stop><stop offset="1" stop-color="#000000"></stop></linearGradient><linearGradient id="paint5_linear_1161_487" x1="47.994" x2="48.814" y1="59.281" y2="48.562" gradientUnits="userSpaceOnUse"><stop stop-color="#6C4FFF" stop-opacity="0.3"></stop><stop offset="1" stop-color="#D9C256"></stop></linearGradient><linearGradient id="paint6_linear_1161_487" x1="26.997" x2="26.938" y1="56.5" y2="50.138" gradientUnits="userSpaceOnUse"><stop offset="0.002" stop-color="#000000"></stop><stop offset="1" stop-color="#D9C256"></stop></linearGradient><linearGradient id="paint7_linear_1161_487" x1="22.495" x2="6.237" y1="65.025" y2="35.938" gradientUnits="userSpaceOnUse"><stop offset="0.38" stop-color="#D9C256"></stop><stop offset="1" stop-color="#000000"></stop></linearGradient><linearGradient id="paint8_linear_1161_487" x1="51.5" x2="52.396" y1="26.5" y2="36.923" gradientUnits="userSpaceOnUse"><stop stop-color="#FFE3B8"></stop><stop offset="1" stop-color="#FFF1DC" stop-opacity="0.15"></stop></linearGradient><linearGradient id="paint9_linear_1161_487" x1="50.015" x2="50.051" y1="26.197" y2="30.397" gradientUnits="userSpaceOnUse"><stop stop-color="#FFE3B8"></stop><stop offset="1" stop-color="#FFF1DC" stop-opacity="0.15"></stop></linearGradient><linearGradient id="paint10_linear_1161_487" x1="47.995" x2="47.935" y1="49.709" y2="42.281" gradientUnits="userSpaceOnUse"><stop offset="0.002" stop-color="#000000"></stop><stop offset="1" stop-color="#D9C256"></stop></linearGradient><linearGradient id="paint11_linear_1161_487" x1="47.995" x2="47.935" y1="49.709" y2="42.281" gradientUnits="userSpaceOnUse"><stop offset="0.002" stop-color="#000000"></stop><stop offset="1" stop-color="#D9C256"></stop></linearGradient><linearGradient id="paint12_linear_1161_487" x1="31.995" x2="31.935" y1="29.709" y2="22.281" gradientUnits="userSpaceOnUse"><stop offset="0.002" stop-color="#000000"></stop><stop offset="1" stop-color="#D9C256"></stop></linearGradient><linearGradient id="paint13_linear_1161_487" x1="31.995" x2="31.935" y1="29.709" y2="22.281" gradientUnits="userSpaceOnUse"><stop offset="0.002" stop-color="#000000"></stop><stop offset="1" stop-color="#D9C256"></stop></linearGradient></defs></svg>