<svg xmlns="http://www.w3.org/2000/svg" width="80" height="80" fill="none" viewBox="0 0 80 80" class="mb-2"><rect width="80" height="80" fill="url(#paint0_linear_1161_473)" fill-opacity="0.1" rx="40"></rect><rect width="80" height="80" fill="url(#paint1_radial_1161_473)" fill-opacity="0.2" rx="40"></rect><rect width="79" height="79" x="0.5" y="0.5" stroke="#fff" stroke-opacity="0.12" rx="39.5"></rect><path stroke="url(#paint2_linear_1161_473)" stroke-linecap="round" stroke-linejoin="round" stroke-width="1.5" d="M36 50v4a4 4 0 01-4 4h-6a4 4 0 01-4-4v-6a4 4 0 014-4h4"></path><path stroke="url(#paint3_linear_1161_473)" stroke-linecap="round" stroke-linejoin="round" stroke-width="1.5" d="M50 44h4a4 4 0 014 4v6a4 4 0 01-4 4h-6a4 4 0 01-4-4v-4"></path><path stroke="url(#paint4_linear_1161_473)" stroke-linecap="round" stroke-linejoin="round" stroke-width="1.5" d="M30 36h-4a4 4 0 01-4-4v-6a4 4 0 014-4h6a4 4 0 014 4v4"></path><path stroke="url(#paint5_linear_1161_473)" stroke-linecap="round" stroke-linejoin="round" stroke-width="1.5" d="M44 30v-4a4 4 0 014-4h6a4 4 0 014 4v6a4 4 0 01-4 4h-4"></path><rect width="20" height="20" x="30" y="30" fill="url(#paint6_linear_1161_473)" fill-opacity="0.3" stroke="url(#paint7_linear_1161_473)" stroke-linecap="round" stroke-linejoin="round" stroke-width="1.5" rx="3.5"></rect><path stroke="url(#paint8_linear_1161_473)" stroke-linecap="round" stroke-linejoin="round" stroke-width="1.5" d="M37 39.4l2.4 2.4 3.6-3.6"></path><defs><linearGradient id="paint0_linear_1161_473" x1="4.762" x2="81.019" y1="75.062" y2="8.576" gradientUnits="userSpaceOnUse"><stop offset="0.002" stop-color="#000000"></stop><stop offset="1" stop-color="#D9C256"></stop></linearGradient><radialGradient id="paint1_radial_1161_473" cx="0" cy="0" r="1" gradientTransform="rotate(95.464 5.685 33.928) scale(57.7624)" gradientUnits="userSpaceOnUse"><stop stop-color="#fff"></stop><stop offset="1" stop-opacity="0"></stop></radialGradient><linearGradient id="paint2_linear_1161_473" x1="29" x2="30.994" y1="59.5" y2="43.752" gradientUnits="userSpaceOnUse"><stop stop-color="#6C4FFF" stop-opacity="0.3"></stop><stop offset="1" stop-color="#D9C256"></stop></linearGradient><linearGradient id="paint3_linear_1161_473" x1="51" x2="52.994" y1="59.5" y2="43.752" gradientUnits="userSpaceOnUse"><stop stop-color="#6C4FFF" stop-opacity="0.3"></stop><stop offset="1" stop-color="#D9C256"></stop></linearGradient><linearGradient id="paint4_linear_1161_473" x1="29" x2="30.994" y1="37.5" y2="21.752" gradientUnits="userSpaceOnUse"><stop stop-color="#6C4FFF" stop-opacity="0.3"></stop><stop offset="1" stop-color="#D9C256"></stop></linearGradient><linearGradient id="paint5_linear_1161_473" x1="51" x2="52.994" y1="37.5" y2="21.752" gradientUnits="userSpaceOnUse"><stop stop-color="#6C4FFF" stop-opacity="0.3"></stop><stop offset="1" stop-color="#D9C256"></stop></linearGradient><linearGradient id="paint6_linear_1161_473" x1="40" x2="39.627" y1="49.285" y2="30.721" gradientUnits="userSpaceOnUse"><stop offset="0.002" stop-color="#000000"></stop><stop offset="1" stop-color="#D9C256"></stop></linearGradient><linearGradient id="paint7_linear_1161_473" x1="40" x2="39.627" y1="49.285" y2="30.721" gradientUnits="userSpaceOnUse"><stop offset="0.002" stop-color="#000000"></stop><stop offset="1" stop-color="#D9C256"></stop></linearGradient><linearGradient id="paint8_linear_1161_473" x1="43" x2="38.579" y1="36" y2="42.208" gradientUnits="userSpaceOnUse"><stop stop-color="#FFF1DC" stop-opacity="0.15"></stop><stop offset="1" stop-color="#FFE3B8"></stop></linearGradient></defs></svg>