<svg xmlns="http://www.w3.org/2000/svg" width="80" height="80" fill="none" viewBox="0 0 80 80" class="mb-2"><rect width="80" height="80" fill="url(#paint0_linear_1161_506)" fill-opacity="0.1" rx="40"></rect><rect width="80" height="80" fill="url(#paint1_radial_1161_506)" fill-opacity="0.2" rx="40"></rect><rect width="79" height="79" x="0.5" y="0.5" stroke="#fff" stroke-opacity="0.12" rx="39.5"></rect><rect width="28.167" height="28.167" x="25.917" y="25.916" fill="url(#paint2_linear_1161_506)" fill-opacity="0.2" stroke="url(#paint3_linear_1161_506)" stroke-linecap="round" stroke-linejoin="round" stroke-width="1.5" rx="4"></rect><path fill="#D9C256" d="M33.1 42.084h-2.063v-5.819h2.08c.585 0 1.089.117 1.51.35.423.23.748.563.975.997.23.434.344.953.344 1.557 0 .606-.114 1.127-.344 1.562-.227.436-.554.77-.98 1.003-.424.233-.932.35-1.523.35zm-.833-1.055h.781c.364 0 .67-.064.918-.193.25-.13.437-.332.562-.605.127-.274.19-.629.19-1.062 0-.43-.063-.781-.19-1.054a1.232 1.232 0 00-.56-.602c-.247-.13-.553-.194-.917-.194h-.784v3.71zm6.545 1.054h-1.318l2.008-5.818h1.586l2.005 5.819h-1.318l-1.457-4.49h-.046l-1.46 4.49zm-.082-2.286h3.113v.96H38.73v-.96zm11.417-.623c0 .635-.12 1.175-.361 1.62a2.502 2.502 0 01-.977 1.02c-.411.233-.873.349-1.387.349-.517 0-.98-.117-1.392-.352a2.508 2.508 0 01-.974-1.02c-.239-.445-.358-.984-.358-1.617 0-.634.12-1.174.358-1.619.238-.445.563-.784.974-1.017a2.756 2.756 0 011.392-.352c.514 0 .976.117 1.387.352.413.233.738.572.977 1.017.24.445.36.985.36 1.62zm-1.247 0c0-.41-.062-.757-.185-1.04a1.408 1.408 0 00-.514-.641 1.384 1.384 0 00-.779-.22c-.297 0-.557.074-.778.22-.222.145-.394.36-.517.642-.121.282-.182.628-.182 1.04 0 .41.06.757.182 1.04.123.281.295.495.517.641.221.146.48.219.778.219.298 0 .557-.073.779-.219.221-.146.393-.36.514-.642.123-.282.184-.629.184-1.04z"></path><path stroke="url(#paint4_linear_1161_506)" stroke-linecap="round" stroke-linejoin="round" stroke-width="1.5" d="M59.5 33.5h-5.417"></path><path stroke="url(#paint5_linear_1161_506)" stroke-linecap="round" stroke-linejoin="round" stroke-width="1.5" d="M59.5 40h-5.417"></path><path stroke="url(#paint6_linear_1161_506)" stroke-linecap="round" stroke-linejoin="round" stroke-width="1.5" d="M59.5 46.5h-5.417"></path><path stroke="url(#paint7_linear_1161_506)" stroke-linecap="round" stroke-linejoin="round" stroke-width="1.5" d="M25.917 33.5H20.5"></path><path stroke="url(#paint8_linear_1161_506)" stroke-linecap="round" stroke-linejoin="round" stroke-width="1.5" d="M25.917 40H20.5"></path><path stroke="url(#paint9_linear_1161_506)" stroke-linecap="round" stroke-linejoin="round" stroke-width="1.5" d="M25.917 46.5H20.5"></path><path stroke="url(#paint10_linear_1161_506)" stroke-linecap="round" stroke-linejoin="round" stroke-width="1.5" d="M33.5 20.5v5.417"></path><path stroke="url(#paint11_linear_1161_506)" stroke-linecap="round" stroke-linejoin="round" stroke-width="1.5" d="M40 20.5v5.417"></path><path stroke="url(#paint12_linear_1161_506)" stroke-linecap="round" stroke-linejoin="round" stroke-width="1.5" d="M46.5 20.5v5.417"></path><path stroke="url(#paint13_linear_1161_506)" stroke-linecap="round" stroke-linejoin="round" stroke-width="1.5" d="M33.5 54.084V59.5"></path><path stroke="url(#paint14_linear_1161_506)" stroke-linecap="round" stroke-linejoin="round" stroke-width="1.5" d="M40 54.084V59.5"></path><path stroke="url(#paint15_linear_1161_506)" stroke-linecap="round" stroke-linejoin="round" stroke-width="1.5" d="M46.5 54.084V59.5"></path><defs><linearGradient id="paint0_linear_1161_506" x1="4.762" x2="81.019" y1="75.062" y2="8.576" gradientUnits="userSpaceOnUse"><stop offset="0.002" stop-color="#000000"></stop><stop offset="1" stop-color="#D9C256"></stop></linearGradient><radialGradient id="paint1_radial_1161_506" cx="0" cy="0" r="1" gradientTransform="rotate(95.464 5.685 33.928) scale(57.7624)" gradientUnits="userSpaceOnUse"><stop stop-color="#fff"></stop><stop offset="1" stop-opacity="0"></stop></radialGradient><linearGradient id="paint2_linear_1161_506" x1="25.308" x2="46.971" y1="43.665" y2="43.574" gradientUnits="userSpaceOnUse"><stop offset="0.002" stop-color="#000000"></stop><stop offset="1" stop-color="#D9C256"></stop></linearGradient><linearGradient id="paint3_linear_1161_506" x1="40" x2="39.474" y1="53.077" y2="26.932" gradientUnits="userSpaceOnUse"><stop offset="0.002" stop-color="#000000"></stop><stop offset="1" stop-color="#D9C256"></stop></linearGradient><linearGradient id="paint4_linear_1161_506" x1="61.125" x2="50.295" y1="33.5" y2="33.687" gradientUnits="userSpaceOnUse"><stop offset="0.002" stop-color="#B3A4FF" stop-opacity="0.46"></stop><stop offset="1" stop-color="#D9C256"></stop></linearGradient><linearGradient id="paint5_linear_1161_506" x1="61.125" x2="50.295" y1="40" y2="40.187" gradientUnits="userSpaceOnUse"><stop offset="0.002" stop-color="#B3A4FF" stop-opacity="0.46"></stop><stop offset="1" stop-color="#D9C256"></stop></linearGradient><linearGradient id="paint6_linear_1161_506" x1="61.125" x2="50.295" y1="46.5" y2="46.687" gradientUnits="userSpaceOnUse"><stop offset="0.002" stop-color="#B3A4FF" stop-opacity="0.46"></stop><stop offset="1" stop-color="#D9C256"></stop></linearGradient><linearGradient id="paint7_linear_1161_506" x1="26.458" x2="19.959" y1="33.5" y2="33.546" gradientUnits="userSpaceOnUse"><stop offset="0.002" stop-color="#D9C256"></stop><stop offset="1" stop-color="#D9C256" stop-opacity="0"></stop></linearGradient><linearGradient id="paint8_linear_1161_506" x1="26.458" x2="19.959" y1="40" y2="40.046" gradientUnits="userSpaceOnUse"><stop offset="0.002" stop-color="#D9C256"></stop><stop offset="1" stop-color="#D9C256" stop-opacity="0"></stop></linearGradient><linearGradient id="paint9_linear_1161_506" x1="26.458" x2="19.959" y1="46.5" y2="46.546" gradientUnits="userSpaceOnUse"><stop offset="0.002" stop-color="#D9C256"></stop><stop offset="1" stop-color="#D9C256" stop-opacity="0"></stop></linearGradient><linearGradient id="paint10_linear_1161_506" x1="33.5" x2="33.835" y1="18.875" y2="26.444" gradientUnits="userSpaceOnUse"><stop offset="0.002" stop-color="#B3A4FF" stop-opacity="0.35"></stop><stop offset="1" stop-color="#D9C256"></stop></linearGradient><linearGradient id="paint11_linear_1161_506" x1="40" x2="40.335" y1="18.875" y2="26.444" gradientUnits="userSpaceOnUse"><stop offset="0.002" stop-color="#B3A4FF" stop-opacity="0.35"></stop><stop offset="1" stop-color="#D9C256"></stop></linearGradient><linearGradient id="paint12_linear_1161_506" x1="46.5" x2="46.835" y1="18.875" y2="26.444" gradientUnits="userSpaceOnUse"><stop offset="0.002" stop-color="#B3A4FF" stop-opacity="0.35"></stop><stop offset="1" stop-color="#D9C256"></stop></linearGradient><linearGradient id="paint13_linear_1161_506" x1="33.5" x2="33.835" y1="53" y2="60.569" gradientUnits="userSpaceOnUse"><stop offset="0.002" stop-color="#B3A4FF"></stop><stop offset="1" stop-color="#D9C256" stop-opacity="0"></stop></linearGradient><linearGradient id="paint14_linear_1161_506" x1="40" x2="40.335" y1="53" y2="60.569" gradientUnits="userSpaceOnUse"><stop offset="0.002" stop-color="#B3A4FF"></stop><stop offset="1" stop-color="#D9C256" stop-opacity="0"></stop></linearGradient><linearGradient id="paint15_linear_1161_506" x1="46.5" x2="46.835" y1="53" y2="60.569" gradientUnits="userSpaceOnUse"><stop offset="0.002" stop-color="#B3A4FF"></stop><stop offset="1" stop-color="#D9C256" stop-opacity="0"></stop></linearGradient></defs></svg>