<svg xmlns="http://www.w3.org/2000/svg" width="80" height="80" fill="none" viewBox="0 0 80 80" class="mb-2"><rect width="80" height="80" fill="url(#paint0_linear_550_833)" fill-opacity="0.1" rx="40"></rect><rect width="80" height="80" fill="url(#paint1_radial_550_833)" fill-opacity="0.2" rx="40"></rect><rect width="79" height="79" x="0.5" y="0.5" stroke="#fff" stroke-opacity="0.12" rx="39.5"></rect><path fill="url(#paint2_linear_550_833)" fill-opacity="0.3" fill-rule="evenodd" d="M43.536 37.965a5 5 0 11-7.071 7.07 5 5 0 017.07-7.07z" clip-rule="evenodd"></path><path stroke="url(#paint3_linear_550_833)" stroke-linecap="round" stroke-linejoin="round" stroke-width="1.5" d="M43.536 37.965a5 5 0 11-7.071 7.07 5 5 0 017.07-7.07"></path><path fill="url(#paint4_linear_550_833)" fill-opacity="0.3" fill-rule="evenodd" d="M54.508 25.965a5 5 0 11-7.071 7.07 5 5 0 017.07-7.07z" clip-rule="evenodd"></path><path stroke="url(#paint5_linear_550_833)" stroke-linecap="round" stroke-linejoin="round" stroke-width="1.5" d="M54.508 25.965a5 5 0 11-7.071 7.07 5 5 0 017.07-7.07"></path><path fill="url(#paint6_linear_550_833)" fill-opacity="0.3" fill-rule="evenodd" d="M52 40.5c3.066 0 6 1.066 8 2.666L52 40.5z" clip-rule="evenodd"></path><path stroke="url(#paint7_linear_550_833)" stroke-linecap="round" stroke-linejoin="round" stroke-width="1.5" d="M52 40.5c3.066 0 6 1.066 8 2.666"></path><path fill="url(#paint8_linear_550_833)" fill-opacity="0.3" fill-rule="evenodd" d="M32.563 25.965a5 5 0 11-7.07 7.07 5 5 0 017.07-7.07z" clip-rule="evenodd"></path><path stroke="url(#paint9_linear_550_833)" stroke-linecap="round" stroke-linejoin="round" stroke-width="1.5" d="M32.563 25.965a5 5 0 11-7.07 7.07 5 5 0 017.07-7.07"></path><path fill="url(#paint10_linear_550_833)" fill-opacity="0.3" fill-rule="evenodd" d="M20 43.166c2-1.6 4.934-2.666 8-2.666l-8 2.666z" clip-rule="evenodd"></path><path stroke="url(#paint11_linear_550_833)" stroke-linecap="round" stroke-linejoin="round" stroke-width="1.5" d="M20 43.166c2-1.6 4.934-2.666 8-2.666"></path><path stroke="url(#paint12_linear_550_833)" stroke-linecap="round" stroke-linejoin="round" stroke-width="1.5" d="M49.182 55.5c-2.33-1.802-5.678-3-9.182-3-3.504 0-6.852 1.198-9.182 3"></path><defs><linearGradient id="paint0_linear_550_833" x1="4.762" x2="81.019" y1="75.062" y2="8.576" gradientUnits="userSpaceOnUse"><stop offset="0.002" stop-color="#000000"></stop><stop offset="1" stop-color="#D9C256"></stop></linearGradient><radialGradient id="paint1_radial_550_833" cx="0" cy="0" r="1" gradientTransform="rotate(95.464 5.685 33.928) scale(57.7624)" gradientUnits="userSpaceOnUse"><stop stop-color="#fff"></stop><stop offset="1" stop-opacity="0"></stop></radialGradient><linearGradient id="paint2_linear_550_833" x1="40" x2="39.813" y1="46.143" y2="36.86" gradientUnits="userSpaceOnUse"><stop offset="0.002" stop-color="#000000"></stop><stop offset="1" stop-color="#D9C256"></stop></linearGradient><linearGradient id="paint3_linear_550_833" x1="40" x2="39.813" y1="46.143" y2="36.86" gradientUnits="userSpaceOnUse"><stop offset="0.002" stop-color="#000000"></stop><stop offset="1" stop-color="#D9C256"></stop></linearGradient><linearGradient id="paint4_linear_550_833" x1="50.972" x2="50.785" y1="34.143" y2="24.86" gradientUnits="userSpaceOnUse"><stop offset="0.002" stop-color="#000000"></stop><stop offset="1" stop-color="#D9C256"></stop></linearGradient><linearGradient id="paint5_linear_550_833" x1="50.972" x2="50.785" y1="34.143" y2="24.86" gradientUnits="userSpaceOnUse"><stop offset="0.002" stop-color="#000000"></stop><stop offset="1" stop-color="#D9C256"></stop></linearGradient><linearGradient id="paint6_linear_550_833" x1="56" x2="55.983" y1="43.071" y2="40.595" gradientUnits="userSpaceOnUse"><stop offset="0.002" stop-color="#000000"></stop><stop offset="1" stop-color="#D9C256"></stop></linearGradient><linearGradient id="paint7_linear_550_833" x1="56" x2="55.983" y1="43.071" y2="40.595" gradientUnits="userSpaceOnUse"><stop offset="0.002" stop-color="#000000"></stop><stop offset="1" stop-color="#D9C256"></stop></linearGradient><linearGradient id="paint8_linear_550_833" x1="29.028" x2="28.841" y1="34.143" y2="24.86" gradientUnits="userSpaceOnUse"><stop offset="0.002" stop-color="#000000"></stop><stop offset="1" stop-color="#D9C256"></stop></linearGradient><linearGradient id="paint9_linear_550_833" x1="29.028" x2="28.841" y1="34.143" y2="24.86" gradientUnits="userSpaceOnUse"><stop offset="0.002" stop-color="#000000"></stop><stop offset="1" stop-color="#D9C256"></stop></linearGradient><linearGradient id="paint10_linear_550_833" x1="24" x2="23.983" y1="43.071" y2="40.595" gradientUnits="userSpaceOnUse"><stop offset="0.002" stop-color="#000000"></stop><stop offset="1" stop-color="#D9C256"></stop></linearGradient><linearGradient id="paint11_linear_550_833" x1="24" x2="23.983" y1="43.071" y2="40.595" gradientUnits="userSpaceOnUse"><stop offset="0.002" stop-color="#000000"></stop><stop offset="1" stop-color="#D9C256"></stop></linearGradient><linearGradient id="paint12_linear_550_833" x1="40" x2="39.991" y1="55.393" y2="52.607" gradientUnits="userSpaceOnUse"><stop offset="0.002" stop-color="#000000"></stop><stop offset="1" stop-color="#D9C256"></stop></linearGradient></defs></svg>