<svg xmlns="http://www.w3.org/2000/svg" width="492" height="284" fill="none" viewBox="0 0 492 284"><g clip-path="url(#clip0_1170_3445)"><path fill="url(#paint0_linear_1170_3445)" fill-rule="evenodd" d="M207.247 116l.164.098.8.476.473.282-.476.278-74.903 43.743-1.207 12.002-.017.166-.145.083-51.52 29.629-.055.031-.063.009-26.216 3.639-83.467 48.233-.164.095-.164-.097-.807-.476-.48-.283.482-.278 83.752-48.384.055-.032.063-.009 26.216-3.638 50.795-29.217 1.207-12 .017-.164.143-.084 75.351-44.005.166-.097zM132.2 160.58l-1.207 12.001-.017.166-.145.084-50.994 29.331-.055.031-.062.009-26.216 3.639-83.214 48.073.164.097 83.358-48.17.055-.032.063-.008 26.216-3.639 51.322-29.514 1.207-12 .017-.165.143-.083 74.569-43.549-.161-.096L132.2 160.58zm84.94-38.797l.164.094.808.468.483.28-.482.282-74.681 43.613.009 13.357v.188l-.163.094-45.44 26.134.008 10.252v.188l-.163.094L1.23 272.523l-.163.094-.162-.095-.808-.467-.486-.282.486-.281 95.96-55.414-.01-10.244v-.189l.164-.093 45.449-26.135-.008-13.355-.001-.187.162-.094 75.164-43.903.163-.095zm.002.752l-74.84 43.713.008 13.357v.188l-.163.094-45.449 26.134.008 10.244v.188l-.162.094L.909 271.774l.159.092 96.127-55.508-.008-10.252v-.188l.163-.094 45.441-26.135-.009-13.355v-.187l.161-.094 74.359-43.426-.16-.092zm10.363 5.283l.164.096.799.468.48.281-.48.28-74.68 43.622.008 13.357v.188l-.163.094-45.774 26.322-.163.094-.163-.096-.799-.467-.484-.283.486-.28 45.279-26.04-.017-13.355v-.187l.161-.094 75.182-43.904.164-.096zm-74.856 44.467l.016 13.356.001.188-.164.094-44.956 25.856.153.089 45.447-26.134-.008-13.355-.001-.187.162-.094 74.361-43.436-.155-.091-74.856 43.714zm-90.114 39.268l-.162-.092-.161.093-82.834 47.849-.486.281.486.281.808.468.162.094.163-.094 82.833-47.857.491-.283-.493-.281-.807-.459zm-82.345 48.131l82.185-47.474.153.087-82.18 47.479-.158-.092zm103.237-48.335l.163.096.79.468.48.283-.482.278-93.512 54.012-.165.096-.164-.098-.799-.476-.476-.284.48-.277 93.52-54.003.165-.095zm-92.88 54.384l.16.095 92.864-53.639-.148-.087-92.876 53.631zm129.207-98.558l-.162-.094-.163.094-49.888 28.693-.486.279.483.283.8.468.162.095.164-.094 49.897-28.693.488-.281-.487-.282-.808-.468zm-49.25 29.067l-.154-.09 49.241-28.321.158.092-49.246 28.319zm89.601-5.527l.163.097.791.467.479.284-.483.278-44.643 25.675-.162.094-.163-.094-.807-.468-.488-.282.488-.281 44.66-25.675.165-.095zm-44.012 26.053l.158.091 43.997-25.304-.148-.088-44.007 25.301zm123.271-82.02l-.163-.093-.162.095-75.207 43.912-.48.28.48.281.799.467.164.096.164-.096 75.216-43.92.487-.284-.49-.279-.808-.459zm-74.724 44.194l74.566-43.537.154.088-74.564 43.54-.156-.091zm83.273-39.218l-.165-.097-.164.096-75.615 44.167-.137.08-.021.157-1.569 11.438-45.491 26.156-18.141-.059H106.275l-.075.043-96.215 55.56-.491.283.493.281.807.459.162.092.162-.093 95.799-55.312 18.157.059.001.001h.316l.076-.044 46.334-26.644.139-.08.021-.158 1.569-11.448 75.189-43.9.479-.28-.478-.281-.807-.476zm-77.048 56.087l1.568-11.439 75.314-43.991.166.098-74.848 43.7-.136.08-.022.157-1.568 11.447-46.121 26.521h-.143l-18.244-.059h-.088l-.075.044-95.714 55.262-.153-.087 95.649-55.232h.159l18.227.059.087.001.076-.044 45.706-26.279.138-.08.022-.158z" clip-rule="evenodd"></path><path fill="url(#paint1_linear_1170_3445)" fill-rule="evenodd" d="M273.703 122.97l-.165.098-.732.437-.474.282.476.278 68.647 40.09 1.105 10.987.017.166.145.083 47.226 27.159.054.031.063.009 24.025 3.334 76.505 44.21.164.095.163-.096.741-.437.479-.283-.482-.278-76.769-44.351-.055-.031-.063-.009-24.026-3.335-46.544-26.771-1.105-10.986-.017-.165-.143-.083-69.07-40.337-.165-.097zm68.765 40.912l1.105 10.987.017.166.145.083 46.712 26.869-.23-.032-47.027-27.044-1.105-10.986-.017-.165-.143-.083-68.313-39.896.094-.056 68.762 40.157zm71.922 41.465l.23.032 76.233 44.04-.097.057-76.366-44.129zm-149.756-77.076l-.163.095-.741.428-.483.28.482.282 68.441 39.97-.007 12.228v.188l.163.094 41.639 23.948-.008 9.381v.188l.162.094 88.413 51.052.163.094.162-.094.741-.428.486-.282-.487-.281-87.946-50.787.008-9.374v-.189l-.163-.093-41.647-23.948.008-12.226v-.187l-.161-.094-68.899-40.244-.163-.095zm-.001.752l68.574 40.054-.008 12.228v.188l.163.093 41.647 23.948-.008 9.374v.188l.163.094 87.621 50.6-.091.053-88.087-50.865.008-9.382v-.188l-.163-.094-41.639-23.948.008-12.226v-.187l-.162-.094-68.119-39.782.093-.054zm-9.5 4.781l-.163.096-.733.428-.48.281.48.28 68.441 39.978-.007 12.228v.188l.163.094 41.958 24.127.163.094.163-.095.732-.429.484-.283-.486-.279-41.491-23.862.016-12.226v-.187l-.161-.094-68.914-40.244-.165-.095zm68.59 40.806l-.016 12.227v.189l.163.094 41.168 23.676-.086.051-41.631-23.94.007-12.226.001-.187-.162-.094-68.122-39.792.089-.052 68.589 40.054zm82.615 35.956l.162-.092.161.093 75.928 43.859.487.281-.487.282-.74.429-.163.094-.163-.094-75.927-43.867-.491-.284.493-.28.74-.421zm75.439 44.142l-75.28-43.485-.085.048 75.274 43.49.091-.053zm-94.576-44.337l-.164.096-.724.429-.479.283.482.278 85.716 49.509.165.096.163-.098.733-.436.476-.284-.48-.277-85.724-49.501-.164-.095zm85.083 49.882l-.092.055-85.07-49.136.083-.049 85.079 49.13zm-118.396-90.366l.163-.094.162.094 45.73 26.301.486.28-.484.283-.733.428-.162.095-.164-.094-45.737-26.301-.489-.281.488-.282.74-.429zm45.159 26.636l.086-.051-45.081-25.928-.091.052 45.086 25.927zm-82.132-5.066l-.163.096-.725.429-.48.284.483.278 40.922 23.535.162.093.163-.094.74-.428.487-.283-.488-.281-40.937-23.535-.164-.094zm40.289 23.912l-.091.053-40.276-23.164.082-.049 40.285 23.16zM244.25 140.163l.163-.092.161.094 68.938 40.251.48.281-.48.28-.732.429-.164.096-.165-.096-68.945-40.259-.487-.284.49-.279.741-.421zm68.454 40.534l-68.296-39.876-.087.049 68.294 39.879.089-.052zm-76.291-35.972l.165-.097.164.096 69.312 40.485.136.08.022.156 1.436 10.472 41.681 23.965 16.621-.054h.314l.076.044 88.194 50.927.491.284-.493.28-.74.421-.162.092-.162-.093-87.806-50.697-16.636.055h-.299l-.075-.044-42.472-24.423-.138-.08-.022-.158-1.436-10.481-68.91-40.233-.478-.28.477-.281.74-.436zm70.612 51.438l-1.436-10.473-69.01-40.309-.099.059 68.569 40.034.136.08.022.156 1.435 10.48 42.259 24.301h.124l.057-.001-.001-.001-41.896-24.088-.138-.079-.022-.159zm58.926 24.315h-.042l.002.002 87.721 50.647.086-.048-87.628-50.601h-.139z" clip-rule="evenodd"></path><path fill="url(#paint2_radial_1170_3445)" d="M591 42.352l-21.599 12.423L538.349 37l8.788-5h-3.632l-6.952 3.985L529.561 32h-3.554l8.749 5-31.013 17.775L472.692 37l8.749-5h-3.593l-6.992 3.985L463.865 32h-3.555l8.75 5-31.013 17.775L406.996 37l8.749-5h-3.594l-6.991 3.985L398.208 32h-3.594l8.788 5-31.09 17.775L341.299 37l8.789-5h-3.594l-6.952 3.985L332.55 32h-3.632l8.788 5-31.051 17.775L275.642 37l8.749-5h-3.632l-6.953 3.985L266.815 32h-3.593l8.749 5-31.013 17.775L209.946 37l8.749-5h-3.593l-6.992 3.985L201.158 32h-3.633l8.788 5-31.051 17.775L144.211 37l8.788-5h-3.594l-6.991 3.985L135.462 32h-3.633l8.788 5-31.012 17.775L78.553 37l8.75-5h-3.594l-6.952 3.985L69.765 32h-3.593l8.749 5-31.052 17.775L12.858 37l8.75-5h-3.555l-6.992 3.985L4.07 32H.437l8.749 5-31.013 17.775L-52.917 37l8.788-5h-3.593l-6.992 3.985L-61.666 32H-65.3l8.788 5-31.012 17.775L-118.614 37l8.789-5h-3.594l-6.952 3.985-6.992-3.985h-3.554l8.749 5-31.012 17.775h-.078L-159 51.494v2.031l3.945 2.266-3.945 2.227v2.07l5.742-3.242 31.09 17.736-31.012 17.775h-.078L-159 89.075v2.032l3.945 2.266-3.945 2.226v2.11l5.82-3.282 31.012 17.775-31.012 17.736h-.078l-5.742-3.281v2.031l3.945 2.305-3.945 2.227v2.031l5.742-3.242 31.09 17.775-31.012 17.697h-.078l-5.742-3.243v2.031l3.945 2.305-3.945 2.227v2.071l5.82-3.282 31.012 17.775-31.09 17.775-5.742-3.321v2.032l3.945 2.305-3.945 2.227v2.031l5.742-3.243 31.09 17.775-31.09 17.775-5.742-3.32v2.031l3.945 2.305-3.945 2.227v2.07l5.742-3.242 31.09 17.697-31.09 17.814-5.742-3.321v2.032l3.945 2.265-3.945 2.266v2.071l5.742-3.243 31.09 17.775-31.09 17.697-5.742-3.281v2.07l3.945 2.305-3.945 2.227v2.031l5.742-3.242h.078l31.012 17.775-31.09 17.697-5.742-3.282v2.07l3.945 2.305-3.945 2.227v2.032l5.742-3.282h.078l31.012 17.814-31.012 17.775-5.82-3.36v2.071l3.945 2.305-3.945 2.227v2.031l5.742-3.282h.078l31.012 17.775-31.09 17.775-5.742-3.281v2.031l3.945 2.266-3.945 2.266v2.07l5.742-3.242h.078l31.012 17.697-31.012 17.775-5.82-3.321v2.071l3.945 2.265-3.945 2.266v2.071l5.742-3.243h.078L-132.753 482h3.672l-22.303-12.775 31.013-17.696 31.051 17.696L-111.7 482h3.71l20.467-11.681L-67.096 482h3.711l-22.341-12.775 31.012-17.696 31.09 17.696L-46.004 482h3.671l20.467-11.681L-1.438 482h3.75l-22.342-12.775 31.051-17.696 31.013 17.696L19.73 482h3.672l20.427-11.681L64.297 482h3.71l-22.34-12.775 31.05-17.696 31.013 17.696L85.389 482h3.71l20.467-11.681L129.993 482h3.711l-22.342-12.775 31.013-17.696 31.09 17.696L151.085 482h3.671l20.467-11.681L195.69 482h3.71l-22.341-12.775 31.012-17.696 31.052 17.696L216.781 482h3.711l20.427-11.681L261.347 482h3.749l-22.38-12.775 31.09-17.696 31.013 17.696L282.477 482h3.711l20.428-11.681L327.082 482h3.711l-22.381-12.775 31.091-17.696 31.012 17.696L348.174 482h3.671l20.428-11.681L392.778 482h3.672l-22.381-12.775 31.052-17.696 31.09 17.696L413.831 482h3.71l20.467-11.681L458.436 482h3.671l-22.302-12.775 31.012-17.696 31.091 17.696L479.527 482h3.711l20.466-11.681L524.132 482h3.711l-22.342-12.775 31.012-17.696 31.052 17.696L545.224 482h3.71l20.467-11.681L589.867 482H591v-1.406l-19.842-11.369L591 457.896v-2.07l-21.599 12.384-31.052-17.775 31.052-17.697L591 445.083v-2.071l-19.842-11.368L591 420.315v-2.071l-21.599 12.384-31.052-17.775 31.052-17.775L591 407.501v-2.07l-19.842-11.329L591 382.734v-2.071l-21.599 12.423-31.052-17.775 31.052-17.814L591 369.92v-2.071l-19.842-11.329L591 345.113v-2.031l-21.599 12.345-31.052-17.697 31.052-17.775L591 332.339v-2.071l-19.842-11.329L591 307.532v-2.071l-21.599 12.384-31.052-17.697 31.052-17.775L591 294.757v-2.07l-19.842-11.408L591 269.95v-2.07l-21.599 12.423-31.052-17.814 31.052-17.697L591 257.176v-2.071l-19.842-11.368L591 232.369v-2.071l-21.599 12.423-31.091-17.775 31.091-17.775L591 219.555v-2.031l-19.842-11.368L591 194.788v-2.071l-21.599 12.423-31.052-17.775 31.052-17.775L591 181.974v-2.071l-19.842-11.329L591 157.167v-2.031l-21.599 12.345-31.052-17.697 31.052-17.775L591 144.393v-2.071l-19.842-11.329L591 119.586v-2.071l-21.599 12.423-31.052-17.736 31.052-17.775L591 106.811v-2.07l-19.842-11.368L591 82.004v-2.07l-21.599 12.423-31.052-17.775 31.052-17.736L591 69.23v-2.07L571.158 55.79 591 44.423v-2.07zm-56.283 32.23l-31.013 17.775-31.051-17.775 31.051-17.736 31.013 17.736zM45.667 243.737l31.05-17.736 31.013 17.736-31.012 17.775-31.052-17.775zm29.215 18.752L43.83 280.303l-31.012-17.814 31.012-17.697 31.052 17.697zm34.684-17.697l31.012 17.697-31.012 17.814-31.052-17.814 31.052-17.697zm1.796-1.055l31.013-17.736 31.09 17.736-31.09 17.775-31.013-17.775zm63.861 1.055l31.051 17.697-31.051 17.814-31.051-17.814 31.051-17.697zm1.836-1.055l31.012-17.736 31.052 17.736-31.052 17.775-31.012-17.775zm63.86 1.055l31.013 17.697-31.013 17.814-31.051-17.814 31.051-17.697zm1.797-1.055l31.09-17.736 31.013 17.736-31.052 17.775-31.051-17.775zm63.9 1.055l31.051 17.697-31.051 17.814-31.013-17.814 31.013-17.697zm1.796-1.055l31.091-17.736 31.012 17.736-31.012 17.775-31.091-17.775zm63.861 1.055l31.09 17.697-31.09 17.814-31.013-17.814 31.013-17.697zm-31.013-19.846l31.013-17.775 31.09 17.775-31.09 17.775-31.013-17.775zm-1.757-1.015l-31.091-17.775 31.091-17.775 31.012 17.775-31.012 17.775zm-1.836 1.015l-31.051 17.775-31.013-17.775 31.013-17.775 31.051 17.775zm-63.9-1.015l-31.051-17.775 31.051-17.775 31.052 17.775-31.052 17.775zm-1.835 1.015l-31.013 17.775-31.051-17.775 31.051-17.775 31.013 17.775zm-63.861-1.015l-31.012-17.775 31.012-17.775 31.052 17.775-31.052 17.775zm-1.797 1.015l-31.051 17.775-31.051-17.775 31.051-17.775 31.051 17.775zm-63.899-1.015l-31.013-17.775 31.013-17.775 31.09 17.775-31.09 17.775zm-1.797 1.015l-31.012 17.775-31.052-17.775 31.052-17.775 31.012 17.775zm-63.86-1.015l-31.052-17.775 31.052-17.775 31.012 17.775-31.012 17.775zm-1.836 1.015L43.83 242.721l-31.012-17.775 31.012-17.775 31.052 17.775zm-63.86-1.015l-31.052-17.775 31.051-17.775 31.013 17.775-31.013 17.775zm31.012 19.806L11.02 261.512l-31.051-17.775 31.051-17.736 31.013 17.736zm0 37.542L11.02 299.054l-31.051-17.775 31.051-17.696 31.013 17.696zm1.796 1.094l31.052 17.775-31.052 17.697-31.012-17.697 31.012-17.775zm1.836-1.094l31.052-17.696 31.012 17.696-31.012 17.775-31.052-17.775zm63.9 1.094l31.012 17.775-31.012 17.697-31.052-17.697 31.052-17.775zm1.796-1.094l31.013-17.696 31.09 17.696-31.09 17.775-31.013-17.775zm63.861 1.094l31.051 17.775-31.051 17.697-31.051-17.697 31.051-17.775zm1.836-1.094l31.012-17.696 31.052 17.696-31.052 17.775-31.012-17.775zm63.86 1.094l31.013 17.775-31.013 17.697-31.051-17.697 31.051-17.775zm1.797-1.094l31.09-17.696 31.013 17.696-31.013 17.775-31.09-17.775zm63.9 1.094l31.051 17.775-31.051 17.697-31.013-17.697 31.013-17.775zm1.796-1.094l31.091-17.696 31.012 17.696-31.012 17.775-31.091-17.775zm63.861 1.094l31.09 17.775-31.09 17.697-31.013-17.697 31.013-17.775zm1.796-1.094l31.052-17.696 31.09 17.696-31.09 17.775-31.052-17.775zm0-37.542l31.052-17.736 31.09 17.736-31.09 17.775-31.052-17.775zm.04-37.581l31.012-17.775 31.09 17.775-31.09 17.775-31.012-17.775zm0-37.582l31.012-17.775 31.09 17.775-31.09 17.697-31.012-17.697zm29.254 18.791l-31.09 17.775-31.013-17.775 31.013-17.775 31.09 17.775zm-63.86-1.094l-31.091-17.697 31.091-17.775 31.012 17.775-31.012 17.697zm-1.836 1.094l-31.051 17.775-31.013-17.775 31.013-17.775 31.051 17.775zm-63.9-1.016l-31.051-17.775 31.051-17.775 31.052 17.775-31.052 17.775zm-1.835 1.016l-31.013 17.775-31.051-17.775 31.051-17.775 31.013 17.775zm-63.861-1.016l-31.012-17.775 31.012-17.775 31.052 17.775-31.052 17.775zm-1.797 1.016l-31.051 17.775-31.051-17.775 31.051-17.775 31.051 17.775zm-63.899-1.016l-31.013-17.775 31.013-17.775 31.09 17.775-31.09 17.775zm-1.797 1.016l-31.012 17.775-31.052-17.775 31.052-17.775 31.012 17.775zm-63.86-1.016l-31.052-17.775 31.052-17.775 31.012 17.775-31.012 17.775zm-1.836 1.016L43.83 205.14l-31.012-17.775L43.83 169.59l31.052 17.775zm-63.86-1.016l-31.052-17.775 31.051-17.775 31.013 17.775-31.013 17.775zm-1.875 1.016l-31.013 17.775-31.051-17.775 31.051-17.775 31.013 17.775zm0 37.581l-31.013 17.775-31.051-17.775 31.051-17.775 31.013 17.775zm0 37.543l-31.013 17.814-31.051-17.814 31.051-17.697 31.013 17.697zm0 37.659l-31.013 17.697-31.051-17.697 31.051-17.775 31.013 17.775zm0 37.582l-31.013 17.697-31.051-17.697 31.051-17.775L9.147 337.73zm-29.177-18.791l31.051-17.775 31.013 17.775-31.013 17.697-31.051-17.697zm63.86 1.016l31.052 17.775-31.052 17.697-31.012-17.697 31.012-17.775zm1.836-1.016l31.052-17.775 31.012 17.775-31.012 17.697-31.052-17.697zm63.9 1.016l31.012 17.775-31.012 17.697-31.052-17.697 31.052-17.775zm1.796-1.016l31.013-17.775 31.09 17.775-31.09 17.697-31.013-17.697zm63.861 1.016l31.051 17.775-31.051 17.697-31.051-17.697 31.051-17.775zm1.836-1.016l31.012-17.775 31.052 17.775-31.052 17.697-31.012-17.697zm63.86 1.016l31.013 17.775-31.013 17.697-31.051-17.697 31.051-17.775zm1.797-1.016l31.051-17.775 31.052 17.775-31.013 17.697-31.09-17.697zm63.9 1.016l31.051 17.775-31.051 17.697-31.013-17.697 31.013-17.775zm1.796-1.016l31.091-17.775 31.012 17.775-31.012 17.697-31.091-17.697zm63.861 1.016l31.09 17.775-31.09 17.697-31.013-17.697 31.013-17.775zm1.796-1.016l31.052-17.775 31.09 17.775-31.09 17.697-31.052-17.697zm63.939 1.016l31.012 17.775-31.012 17.697-31.051-17.697 31.051-17.775zm-31.051-19.807l31.051-17.775 31.012 17.775-31.012 17.697-31.051-17.697zm0-37.659l31.051-17.697 31.012 17.697-31.012 17.814-31.051-17.814zm0-37.543l31.051-17.775 31.012 17.775-31.012 17.775-31.051-17.775zm0-37.581l31.051-17.775 31.012 17.775-31.012 17.775-31.051-17.775zm0-37.581l31.051-17.775 31.012 17.775-31.012 17.697-31.051-17.697zm-1.836-1.094l-31.052-17.697 31.052-17.775 31.051 17.775-31.051 17.697zm-1.758 1.094l-31.09 17.697-31.013-17.697 31.013-17.775 31.09 17.775zm-63.86-1.094l-31.091-17.697 31.091-17.775 31.012 17.775-31.012 17.697zm-1.836 1.094l-31.051 17.697-31.013-17.697 31.013-17.775 31.051 17.775zm-63.861-1.094l-31.09-17.697 31.09-17.775 31.013 17.775-31.013 17.697zm-1.874 1.094l-31.013 17.697-31.051-17.697 31.051-17.775 31.013 17.775zm-63.861-1.094l-31.012-17.697 31.012-17.775 31.052 17.775-31.052 17.697zm-1.797 1.094l-31.051 17.697-31.051-17.697 31.051-17.775 31.051 17.775zm-63.899-1.094l-31.013-17.697 31.013-17.775 31.09 17.775-31.09 17.697zm-1.797 1.094l-31.012 17.697-31.052-17.697 31.052-17.775 31.012 17.775zm-63.86-1.094l-31.052-17.697 31.052-17.775 31.012 17.775-31.012 17.697zm-1.836 1.094L43.83 167.481l-31.012-17.697 31.012-17.775 31.052 17.775zm-63.86-1.094l-31.052-17.697 31.051-17.775 31.013 17.775L11.02 148.69zm-1.875 1.094l-31.013 17.697-31.051-17.697 31.051-17.775 31.013 17.775zm-63.861-1.094l-31.012-17.697 31.012-17.775 31.09 17.775-31.09 17.697zm31.09 19.884l-31.09 17.775-31.012-17.775 31.012-17.775 31.09 17.775zm0 37.582l-31.09 17.775-31.012-17.775 31.012-17.775 31.09 17.775zm0 37.581l-31.09 17.775-31.012-17.775 31.012-17.736 31.09 17.736zm0 37.542l-31.09 17.775-31.012-17.775 31.012-17.696 31.09 17.696zm0 37.66l-31.09 17.697-31.012-17.697 31.012-17.775 31.09 17.775zm0 37.581l-31.09 17.697-31.012-17.697 31.012-17.775 31.09 17.775zm1.758.977l31.013 17.814-31.013 17.775-31.051-17.775 31.051-17.814zm1.836-.977l31.051-17.775 31.013 17.775-31.013 17.775-31.051-17.775zm63.86.977l31.052 17.814-31.052 17.775-31.012-17.775 31.012-17.814zm1.836-.977l31.052-17.775 31.012 17.775-31.012 17.775-31.052-17.775zm63.9.977l31.012 17.814-31.012 17.775-31.052-17.775 31.052-17.814zm1.796-.977l31.013-17.775 31.09 17.775-31.09 17.775-31.013-17.775zm63.861.977l31.051 17.814-31.051 17.775-31.051-17.775 31.051-17.814zm1.836-.977l31.012-17.775 31.052 17.775-31.052 17.775-31.012-17.775zm63.86.977l31.013 17.814-31.013 17.775-31.051-17.775 31.051-17.814zm1.797-.977l31.051-17.775 31.052 17.775-31.013 17.697-31.09-17.697zm63.9.977l31.051 17.814-31.051 17.775-31.013-17.775 31.013-17.814zm1.796-.977l31.091-17.775 31.012 17.775-31.012 17.697-31.091-17.697zm63.861.977l31.09 17.814-31.09 17.775-31.013-17.775 31.013-17.814zm1.836-.977l31.012-17.775 31.09 17.775-31.09 17.697-31.012-17.697zm63.899.977l31.012 17.814-31.012 17.775-31.051-17.775 31.051-17.814zm1.797-.977l31.012-17.775 31.091 17.775-31.091 17.775-31.012-17.775zm0-37.581l31.012-17.775 31.091 17.775-31.091 17.697-31.012-17.697zm0-37.66l31.012-17.696 31.091 17.696-31.091 17.775-31.012-17.775zm0-37.542l31.012-17.736 31.091 17.736-31.091 17.775-31.012-17.775zm0-37.581l31.012-17.775 31.091 17.775-31.091 17.775-31.012-17.775zm0-37.582l31.012-17.775 31.091 17.775-31.091 17.775-31.012-17.775zm0-37.581l31.012-17.775 31.091 17.775-31.091 17.697-31.012-17.697zm0-37.62l31.012-17.736 31.091 17.736-31.091 17.774-31.012-17.775zm29.215 18.79l-31.012 17.775-31.051-17.775 31.051-17.736 31.012 17.736zm-63.899-1.016l-31.052-17.775 31.052-17.735 31.09 17.736-31.09 17.774zm-1.758 1.016l-31.09 17.775-31.013-17.736 31.013-17.775 31.09 17.736zm-63.86-1.016l-31.091-17.775 31.091-17.735 31.012 17.736-31.012 17.774zm-1.836 1.016l-31.051 17.775-31.013-17.736 31.013-17.775 31.051 17.736zm-63.861-1.016l-31.09-17.775 31.09-17.735 31.013 17.736-31.013 17.774zm-1.874 1.016l-31.013 17.775-31.012-17.736 31.012-17.775 31.013 17.736zm-63.861-1.016l-31.012-17.775 31.012-17.735 31.052 17.736-31.052 17.774zm-1.797 1.016l-31.051 17.775-31.051-17.736 31.051-17.775 31.051 17.736zm-63.899-1.016l-31.013-17.775 31.013-17.735 31.09 17.736-31.09 17.774zm-1.797 1.055l-31.012 17.736-31.052-17.736 31.052-17.775 31.012 17.775zm-63.86-1.055L45.666 93.372l31.052-17.735 31.012 17.736-31.012 17.774zm-1.836 1.055L43.83 129.938l-31.012-17.736L43.83 94.427l31.052 17.775zm-63.86-1.055L-20.03 93.372 11.02 75.638l31.013 17.736-31.013 17.774zm-1.875 1.055l-31.013 17.736-31.051-17.736 31.051-17.775 31.013 17.775zm-63.861-1.055l-31.012-17.775 31.012-17.735 31.09 17.736-31.09 17.774zm-1.797 1.055l-31.012 17.736-31.091-17.736 31.09-17.775 31.013 17.775zm0 37.582l-31.012 17.697-31.091-17.697 31.09-17.775 31.013 17.775zm0 37.581l-31.012 17.775-31.091-17.775 31.09-17.775 31.013 17.775zm0 37.581l-31.012 17.775-31.091-17.775 31.09-17.775 31.013 17.775zm0 37.543l-31.012 17.814-31.091-17.814 31.09-17.697 31.013 17.697zm0 37.659l-31.012 17.697-31.091-17.697 31.09-17.775 31.013 17.775zm0 37.582l-31.012 17.697-31.091-17.697 31.09-17.775 31.013 17.775zm0 37.581l-31.012 17.775-31.091-17.775 31.09-17.814 31.013 17.814zm0 37.542l-31.012 17.775-31.091-17.775 31.09-17.775 31.013 17.775zm-29.215-18.751l31.012-17.814 31.09 17.814-31.09 17.775-31.012-17.775zm63.86.976l31.013 17.775-31.013 17.775-31.051-17.775 31.051-17.775zm1.836-.976l31.051-17.814 31.013 17.814-31.013 17.775-31.051-17.775zm63.86.976l31.052 17.775-31.052 17.775-31.012-17.775 31.012-17.775zm1.836-.976l31.052-17.814 31.012 17.814-31.012 17.775-31.052-17.775zm63.9.976l31.012 17.775-31.012 17.775-31.052-17.775 31.052-17.775zm1.796-.976l31.013-17.814 31.09 17.814-31.09 17.775-31.013-17.775zm63.861.976l31.051 17.775-31.051 17.775-31.051-17.775 31.051-17.775zm1.836-.976l31.012-17.814 31.052 17.814-31.052 17.775-31.012-17.775zm63.86.976l31.013 17.775-31.013 17.775-31.012-17.775 31.012-17.775zm1.797-.976l31.051-17.814 31.052 17.814-31.052 17.775-31.051-17.775zm63.9.976l31.051 17.775-31.051 17.775-31.013-17.775 31.013-17.775zm1.796-.976l31.091-17.814 31.012 17.814-31.012 17.775-31.091-17.775zm63.861.976l31.09 17.775-31.09 17.775-31.013-17.775 31.013-17.775zm1.836-.976l31.012-17.814 31.09 17.814-31.09 17.775-31.012-17.775zm63.899.976l31.012 17.775-31.012 17.775-31.051-17.775 31.051-17.775zm1.797-.976l31.012-17.814 31.091 17.814-31.091 17.775-31.012-17.775zm63.899.976l31.013 17.775-31.013 17.775-31.051-17.775 31.051-17.775zm-31.051-19.767l31.051-17.814 31.013 17.814-31.013 17.775-31.051-17.775zm0-37.581l31.051-17.775 31.013 17.775-31.013 17.697-31.051-17.697zm0-37.582l31.051-17.775 31.013 17.775-31.013 17.697-31.051-17.697zm0-37.659l31.051-17.697 31.013 17.697-31.013 17.814-31.051-17.814zm0-37.543l31.051-17.775 31.013 17.775-31.013 17.775-31.051-17.775zm0-37.581l31.051-17.775 31.013 17.775-31.013 17.775-31.051-17.775zm0-37.581l31.051-17.775 31.013 17.775-31.013 17.697-31.051-17.697zm0-37.582l31.051-17.775 31.013 17.736-31.013 17.775-31.051-17.736zm-1.836-74.147l31.091 17.736-31.091 17.775-31.012-17.775 31.012-17.736zm-1.797 36.527l-31.012 17.775-31.051-17.775 31.051-17.736 31.012 17.736zm-63.899-36.527l31.051 17.736-31.051 17.775-31.052-17.775 31.052-17.736zm-1.758 36.527l-31.09 17.775-31.013-17.775 31.013-17.736 31.09 17.736zm-63.86-36.527l31.012 17.736-31.012 17.775-31.091-17.775 31.091-17.736zm-1.836 36.527l-31.051 17.775-31.013-17.775 31.013-17.736 31.051 17.736zm-63.861-36.527l31.013 17.736-31.013 17.775-31.051-17.775 31.091-17.736h-.04zm-1.874 36.527l-31.013 17.775-31.012-17.775 31.012-17.736 31.013 17.736zm-63.861-36.566l31.052 17.775-31.052 17.775-31.012-17.775 31.012-17.775zm-1.797 36.566l-31.051 17.775-31.051-17.775 31.051-17.736 31.051 17.736zm-63.899-36.527l31.09 17.736-31.09 17.775-31.013-17.775 31.013-17.736zm-1.797 36.527l-31.012 17.775-31.052-17.775 31.052-17.736 31.012 17.736zm-63.86-36.527l31.012 17.736-31.012 17.775-31.052-17.775 31.052-17.736zm-1.836 36.527L43.83 92.357 12.818 74.582 43.83 56.846l31.052 17.736zm-63.86-36.527l31.012 17.736L11.02 73.566-20.03 55.791 11.02 38.055zM9.146 74.582l-31.013 17.775-31.051-17.775 31.051-17.736L9.147 74.582zm-63.861-36.527l31.09 17.736-31.09 17.775-31.012-17.775 31.012-17.736zm-1.797 36.527l-31.012 17.775-31.091-17.775 31.09-17.736 31.013 17.736zm-94.873-18.79l31.013-17.737 31.051 17.736-31.051 17.775-31.013-17.775zm0 37.58l31.013-17.735 31.051 17.736-31.051 17.774-31.013-17.775zm0 37.621l31.013-17.775 31.051 17.775-31.051 17.697-31.013-17.697zm0 37.581l31.013-17.775 31.051 17.775-31.051 17.697-31.013-17.697zm0 37.582l31.013-17.775 31.051 17.775-31.051 17.775-31.013-17.775zm0 37.581l31.013-17.736 31.051 17.736-31.051 17.775-31.013-17.775zm0 37.542l31.013-17.696 31.051 17.696-31.051 17.775-31.013-17.775zm0 37.66l31.013-17.775 31.051 17.775-31.051 17.697-31.013-17.697zm0 37.581l31.013-17.775 31.051 17.775-31.051 17.697-31.013-17.697zm0 37.582l31.013-17.814 31.051 17.814-31.051 17.775-31.013-17.775zm0 37.542l31.013-17.697 31.051 17.697-31.051 17.775-31.013-17.775zm63.86 36.566l-31.09-17.775 31.09-17.697 31.013 17.697-31.012 17.775zm1.798-36.566l31.012-17.697 31.09 17.697-31.09 17.775-31.012-17.775zm63.86 36.566l-31.051-17.775 31.051-17.697 31.013 17.697-31.013 17.775zm1.836-36.566l31.051-17.697 31.013 17.697-31.013 17.775-31.051-17.775zm63.86 36.566l-31.012-17.775 31.012-17.697 31.052 17.697L43.83 468.21zm1.836-36.566l31.052-17.697 31.012 17.697-31.012 17.775-31.052-17.775zm63.9 36.566l-31.052-17.775 31.052-17.697 31.012 17.697-31.012 17.775zm1.796-36.566l31.013-17.697 31.051 17.697-31.051 17.775-31.013-17.775zm63.861 36.566l-31.051-17.775 31.051-17.697 31.051 17.697-31.051 17.775zm1.836-36.566l31.012-17.697 31.052 17.697-31.052 17.775-31.012-17.775zm63.86 36.566l-31.012-17.775 31.012-17.697 31.013 17.697-31.013 17.775zm32.848-18.791l-31.051-17.775 31.09-17.697 31.013 17.697-31.052 17.775zm32.849 18.791l-31.013-17.775 31.013-17.697 31.051 17.697-31.051 17.775zm1.796-36.566l31.091-17.697 31.012 17.697-31.012 17.775-31.091-17.775zm63.861 36.566l-31.013-17.775 31.013-17.697 31.09 17.697-31.09 17.775zm1.836-36.566l31.012-17.697 31.09 17.697-31.09 17.775-31.012-17.775zm63.899 36.566l-31.051-17.775 31.051-17.697 31.012 17.697-31.012 17.775zm1.797-36.566l31.012-17.697 31.091 17.697-31.091 17.775-31.012-17.775zm63.899 36.566l-31.051-17.775 31.051-17.697 31.013 17.697-31.013 17.775zm63.861-36.566l-31.012 17.775-31.013-17.775 31.052-17.697 31.012 17.697h-.039zm0-37.542l-31.012 17.775-31.013-17.775 31.013-17.814 31.012 17.814zm0-37.582l-31.012 17.775-31.052-17.775 31.012-17.775 31.013 17.775h.039zm0-37.581l-31.012 17.697-31.013-17.697 31.052-17.775 31.012 17.775h-.039zm0-37.66l-31.012 17.775-31.052-17.775 31.052-17.696 31.012 17.696zm0-37.542l-31.012 17.775-31.052-17.775 31.052-17.736 31.012 17.736zm0-37.581l-31.012 17.775-31.052-17.775 31.052-17.775 31.012 17.775zm0-37.582l-31.012 17.775-31.013-17.775 31.013-17.775 31.012 17.775zm0-37.581l-31.012 17.697-31.052-17.697 31.012-17.775 31.013 17.775h.039zm0-37.62l-31.012 17.774-31.013-17.775 31.052-17.735 31.012 17.736h-.039zm-31.012-19.807l-31.052-17.775 31.012-17.775 31.013 17.775-31.013 17.775h.04z" opacity="0.1" style="mix-blend-mode: multiply;"></path><g opacity="0.6"><g filter="url(#filter0_f_1170_3445)"><ellipse cx="245.5" cy="162" fill="#000000" fill-opacity="0.5" rx="201.5" ry="67"></ellipse></g><g filter="url(#filter1_f_1170_3445)"><ellipse cx="259.461" cy="162" fill="#FFCE83" fill-opacity="0.5" rx="121.458" ry="40.453"></ellipse></g></g><g clip-path="url(#clip1_1170_3445)"><path fill="url(#paint3_linear_1170_3445)" fill-rule="evenodd" d="M181.508 178.259a14.924 14.924 0 00-.019-.598c-.154-2.861-1.215-5.712-3.181-8.402-2.049-2.804-5.081-5.434-9.09-7.719-16.305-9.28-42.674-9.317-58.866-.093-8.143 4.631-12.157 10.731-12.1 16.812.075 6.045 4.165 12.07 12.27 16.72 16.323 9.28 42.674 9.317 58.866.093 8.067-4.594 12.101-10.62 12.101-16.664v-.148l.019-.001zm-16.742-8.897c6.118 3.489 7.549 6.853 7.723 8.631zm7.723 8.631v.415c0 1.641-1.108 5.172-7.555 8.843l-.002.001c-6.405 3.649-15.402 5.727-24.914 5.712-9.501-.014-18.542-2.115-25.033-5.801-6.506-3.736-7.707-7.308-7.734-9.002-.009-1.657 1.084-5.213 7.55-8.891l.006-.003c6.405-3.649 15.406-5.727 24.922-5.713 9.511.015 18.556 2.119 25.036 5.807" clip-rule="evenodd"></path><path fill="url(#paint4_linear_1170_3445)" fill-opacity="0.6" fill-rule="evenodd" d="M188.446 181.15c-.002-.243-.01-.486-.022-.73-.144-2.796-.968-5.584-2.47-8.27-2.326-4.158-6.278-8.071-11.846-11.389-19.022-11.318-49.787-11.363-68.677-.114-9.5 5.648-14.184 13.087-14.118 20.503.088 7.371 4.86 14.72 14.316 20.39 19.044 11.317 49.787 11.362 68.677.113 9.412-5.602 14.118-12.95 14.118-20.321v-.182h.022zm-18.94-12.655c7.404 4.413 9.674 9.039 9.918 12.218zm9.918 12.218v.619c0 3.167-2.015 8.001-9.721 12.587l-.002.001c-7.724 4.6-18.436 7.157-29.662 7.139-11.213-.018-21.975-2.604-29.796-7.247-7.783-4.671-9.886-9.547-9.93-12.756-.023-3.19 1.971-8.068 9.717-12.672l.006-.004c7.723-4.599 18.44-7.156 29.67-7.138 11.224.018 21.99 2.607 29.798 7.252" clip-rule="evenodd"></path><path fill="url(#paint5_linear_1170_3445)" d="M202.281 212.433l3.341-1.91c11.831-6.762 10.344-18.558-3.31-26.367l-37.946-21.666-46.19 26.381 37.945 21.667c13.67 7.809 34.329 8.658 46.16 1.895z" opacity="0.6" style="mix-blend-mode: multiply;"></path><path fill="url(#paint6_linear_1170_3445)" d="M173.623 165.674v8.839c.046 4.958-3.218 9.946-9.839 13.707-13.164 7.52-34.589 7.49-47.861-.076-3.295-1.88-5.777-4.064-7.448-6.383-1.655-2.335-2.498-4.792-2.529-7.248v-8.961c.046 4.928 3.387 9.841 9.977 13.631 13.272 7.581 34.681 7.596 47.861.076 6.575-3.745 9.839-8.673 9.839-13.585z"></path><path fill="url(#paint7_linear_1170_3445)" d="M173.623 165.552v.122c0 4.927-3.28 9.84-9.839 13.585-13.164 7.52-34.589 7.49-47.861-.076-6.59-3.79-9.915-8.703-9.977-13.631-.046-4.958 3.219-9.931 9.839-13.706 13.165-7.52 34.605-7.49 47.861.076 6.605 3.775 9.946 8.703 9.992 13.63h-.015z"></path><path fill="url(#paint8_linear_1170_3445)" fill-opacity="0.8" fill-rule="evenodd" d="M105.97 96.378h-.024v70.278c.997 6.812 8.592 17.033 30.903 17.943 24.423.997 32.231-7.642 34.391-11.463.997-1.496 2.891-5.383 2.492-8.972-.399-3.589-.166-46.686 0-67.786h-.12c-.208 4.764-3.484 9.479-9.828 13.101-13.165 7.521-34.589 7.49-47.861-.076-6.32-3.635-9.638-8.302-9.953-13.025z" clip-rule="evenodd" style="mix-blend-mode: screen;"></path><path fill="url(#paint9_radial_1170_3445)" fill-opacity="0.7" d="M173.623 95.773v.121c0 4.928-3.28 9.84-9.839 13.585-13.165 7.521-34.589 7.49-47.861-.076-6.59-3.79-9.915-8.703-9.977-13.63-.046-4.958 3.219-9.931 9.839-13.707 13.164-7.52 34.605-7.49 47.861.076 6.605 3.775 9.946 8.703 9.992 13.63h-.015z"></path><path stroke="url(#paint10_linear_1170_3445)" stroke-opacity="0.4" d="M173.123 95.3c-.249-4.532-3.429-9.125-9.725-12.724l9.725 12.723zm0 0v.594c0 4.684-3.118 9.458-9.587 13.151h0c-6.488 3.707-15.044 5.567-23.642 5.554-8.596-.013-17.18-1.9-23.723-5.63-6.501-3.74-9.666-8.516-9.725-13.202-.043-4.712 3.059-9.544 9.587-13.266h0c6.488-3.707 15.048-5.567 23.647-5.554 8.599.013 17.183 1.9 23.718 5.63l9.725 12.722z"></path><path fill="#180D65" fill-opacity="0.1" d="M149.012 167.972c-5.042 2.913-13.255 2.894-18.316-.037-5.06-2.931-5.097-7.657-.055-10.57 5.042-2.912 13.256-2.894 18.335.037 5.078 2.931 5.097 7.657.055 10.57h-.019z"></path><path fill="url(#paint11_linear_1170_3445)" fill-opacity="0.5" d="M122.893 123.572l16.598-9.58 16.597 9.58-16.498 9.65-16.697-9.65z"></path><path fill="#fff" fill-opacity="0.45" d="M122.893 121.14l16.598-28.75.099 38.389-16.697-9.639z"></path><path stroke="url(#paint12_linear_1170_3445)" stroke-opacity="0.35" stroke-width="2" d="M138.586 129.045l-14.327-8.271L138.5 96.106l.086 32.939z" style="mix-blend-mode: overlay;"></path><path fill="#fff" fill-opacity="0.65" d="M139.49 92.39l16.598 28.75-16.498 9.639-.1-38.388z"></path><path stroke="url(#paint13_linear_1170_3445)" stroke-opacity="0.35" stroke-width="2" d="M140.586 129.039l-.086-32.9 14.225 24.639-14.139 8.261z" style="mix-blend-mode: overlay;"></path><path fill="#fff" fill-opacity="0.35" d="M122.893 123.572l16.807 28.869-.11-19.219-16.697-9.65z"></path><path stroke="url(#paint14_linear_1170_3445)" stroke-opacity="0.35" stroke-width="2" d="M138.594 133.801l.085 14.898-13.029-22.378 12.944 7.48z" style="mix-blend-mode: overlay;"></path><path fill="#fff" fill-opacity="0.55" d="M139.59 133.222l.11 19.219 16.388-28.869-16.498 9.65z"></path><path stroke="url(#paint15_linear_1170_3445)" stroke-opacity="0.35" stroke-width="2" d="M153.382 126.313l-12.704 22.378-.085-14.898 12.789-7.48z" style="mix-blend-mode: overlay;"></path></g><g clip-path="url(#clip2_1170_3445)"><path fill="url(#paint16_linear_1170_3445)" fill-rule="evenodd" d="M376.508 178.259a13.266 13.266 0 00-.019-.598c-.154-2.861-1.215-5.712-3.181-8.402-2.049-2.804-5.081-5.434-9.09-7.719-16.304-9.28-42.674-9.317-58.866-.093-8.143 4.631-12.157 10.731-12.101 16.812.076 6.045 4.166 12.07 12.271 16.72 16.323 9.28 42.674 9.317 58.866.093 8.067-4.594 12.101-10.62 12.101-16.664v-.148l.019-.001zm-16.742-8.897c6.118 3.489 7.549 6.853 7.723 8.631zm7.723 8.631v.415c0 1.641-1.108 5.172-7.555 8.843l-.001.001c-6.406 3.649-15.402 5.727-24.915 5.712-9.501-.014-18.542-2.115-25.033-5.801-6.506-3.736-7.707-7.308-7.734-9.002-.009-1.657 1.084-5.213 7.55-8.891l.006-.003c6.405-3.649 15.406-5.727 24.922-5.713 9.512.015 18.556 2.119 25.036 5.807" clip-rule="evenodd"></path><path fill="url(#paint17_linear_1170_3445)" fill-opacity="0.6" fill-rule="evenodd" d="M383.446 181.15c-.002-.243-.01-.486-.022-.73-.144-2.796-.968-5.584-2.47-8.27-2.326-4.158-6.278-8.071-11.846-11.389-19.022-11.318-49.787-11.363-68.677-.114-9.5 5.648-14.184 13.087-14.118 20.503.088 7.371 4.86 14.72 14.316 20.39 19.044 11.317 49.787 11.362 68.677.113 9.412-5.602 14.118-12.95 14.118-20.321v-.182h.022zm-18.94-12.655c7.404 4.413 9.674 9.039 9.918 12.218zm9.918 12.218v.619c0 3.167-2.015 8.001-9.721 12.587l-.002.001c-7.724 4.6-18.436 7.157-29.662 7.139-11.213-.018-21.975-2.604-29.796-7.247-7.783-4.671-9.886-9.547-9.93-12.756-.023-3.19 1.971-8.068 9.717-12.672l.006-.004c7.723-4.599 18.441-7.156 29.67-7.138 11.224.018 21.99 2.607 29.798 7.252" clip-rule="evenodd"></path><path fill="url(#paint18_linear_1170_3445)" d="M397.281 212.433l3.341-1.91c11.831-6.762 10.345-18.558-3.31-26.367l-37.946-21.666-46.19 26.381 37.945 21.667c13.67 7.809 34.329 8.658 46.16 1.895z" opacity="0.6" style="mix-blend-mode: multiply;"></path><path fill="url(#paint19_linear_1170_3445)" d="M368.623 165.674v8.839c.046 4.958-3.218 9.946-9.839 13.707-13.164 7.52-34.589 7.49-47.861-.076-3.295-1.88-5.777-4.064-7.448-6.383-1.655-2.335-2.498-4.792-2.529-7.248v-8.961c.046 4.928 3.387 9.841 9.977 13.631 13.272 7.581 34.681 7.596 47.861.076 6.575-3.745 9.839-8.673 9.839-13.585z"></path><path fill="url(#paint20_linear_1170_3445)" d="M368.623 165.552v.122c0 4.927-3.28 9.84-9.839 13.585-13.164 7.52-34.589 7.49-47.861-.076-6.59-3.79-9.915-8.703-9.976-13.631-.046-4.958 3.218-9.931 9.838-13.706 13.165-7.52 34.605-7.49 47.861.076 6.605 3.775 9.946 8.703 9.992 13.63h-.015z"></path><path fill="url(#paint21_linear_1170_3445)" fill-opacity="0.8" fill-rule="evenodd" d="M300.97 96.378h-.024v70.278c.997 6.812 8.592 17.033 30.903 17.943 24.423.997 32.231-7.642 34.391-11.463.997-1.496 2.891-5.383 2.492-8.972-.399-3.589-.166-46.686 0-67.786h-.12c-.208 4.764-3.484 9.479-9.828 13.101-13.165 7.521-34.589 7.49-47.861-.076-6.32-3.635-9.638-8.302-9.953-13.025z" clip-rule="evenodd" style="mix-blend-mode: screen;"></path><path fill="url(#paint22_radial_1170_3445)" fill-opacity="0.7" d="M368.623 95.773v.121c0 4.928-3.28 9.84-9.839 13.585-13.165 7.521-34.589 7.49-47.861-.076-6.59-3.79-9.915-8.703-9.977-13.63-.046-4.958 3.219-9.931 9.839-13.707 13.165-7.52 34.605-7.49 47.861.076 6.605 3.775 9.946 8.703 9.992 13.63h-.015z"></path><path stroke="url(#paint23_linear_1170_3445)" stroke-opacity="0.4" d="M368.123 95.3c-.249-4.532-3.429-9.125-9.725-12.724l9.725 12.723zm0 0v.594c0 4.684-3.118 9.458-9.587 13.151h0c-6.488 3.707-15.044 5.567-23.642 5.554-8.596-.013-17.18-1.9-23.723-5.63-6.501-3.74-9.666-8.516-9.725-13.202-.043-4.712 3.059-9.544 9.587-13.266h0c6.488-3.707 15.048-5.567 23.647-5.554 8.599.013 17.183 1.9 23.718 5.63l9.725 12.722z"></path><path fill="#180D65" fill-opacity="0.1" d="M344.012 167.972c-5.042 2.913-13.255 2.894-18.316-.037-5.06-2.931-5.097-7.657-.055-10.57 5.042-2.912 13.256-2.894 18.335.037 5.078 2.931 5.097 7.657.055 10.57h-.019z"></path><path fill="url(#paint24_linear_1170_3445)" fill-opacity="0.5" d="M317.893 123.572l16.598-9.58 16.597 9.58-16.498 9.65-16.697-9.65z"></path><path fill="#fff" fill-opacity="0.45" d="M317.893 121.14l16.598-28.75.099 38.389-16.697-9.639z"></path><path stroke="url(#paint25_linear_1170_3445)" stroke-opacity="0.35" stroke-width="2" d="M333.586 129.045l-14.327-8.271L333.5 96.106l.086 32.939z" style="mix-blend-mode: overlay;"></path><path fill="#fff" fill-opacity="0.65" d="M334.49 92.39l16.598 28.75-16.498 9.639-.1-38.388z"></path><path stroke="url(#paint26_linear_1170_3445)" stroke-opacity="0.35" stroke-width="2" d="M335.586 129.039l-.086-32.9 14.225 24.639-14.139 8.261z" style="mix-blend-mode: overlay;"></path><path fill="#fff" fill-opacity="0.35" d="M317.893 123.572l16.807 28.869-.11-19.219-16.697-9.65z"></path><path stroke="url(#paint27_linear_1170_3445)" stroke-opacity="0.35" stroke-width="2" d="M333.594 133.801l.085 14.898-13.029-22.378 12.944 7.48z" style="mix-blend-mode: overlay;"></path><path fill="#fff" fill-opacity="0.55" d="M334.59 133.222l.11 19.219 16.388-28.869-16.498 9.65z"></path><path stroke="url(#paint28_linear_1170_3445)" stroke-opacity="0.35" stroke-width="2" d="M348.382 126.313l-12.704 22.378-.085-14.898 12.789-7.48z" style="mix-blend-mode: overlay;"></path></g><path fill="url(#paint29_linear_1170_3445)" fill-rule="evenodd" d="M287 129.5a16.08 16.08 0 00-.022-.694c-.153-2.813-1.074-5.617-2.759-8.306-2.377-3.792-6.275-7.356-11.685-10.396-19.191-10.766-50.231-10.809-69.289-.108-9.585 5.372-14.311 12.449-14.244 19.504.088 7.012 4.903 14.002 14.443 19.396 19.214 10.766 50.231 10.809 69.29.108 9.496-5.329 14.244-12.32 14.244-19.331v-.173H287zm-9.022-.372c-.231-2.622-2.287-6.926-9.847-11.175l-.005-.002c-7.934-4.45-18.884-6.934-30.3-6.951-11.422-.017-22.326 2.437-30.175 6.844l-.006.003c-7.944 4.453-9.662 8.995-9.645 11.554.04 2.593 1.883 7.138 9.859 11.652 7.947 4.448 18.895 6.93 30.302 6.947 11.418.017 22.317-2.436 30.167-6.844l.001-.001c7.906-4.437 9.649-8.941 9.649-11.482v-.545z" clip-rule="evenodd" opacity="0.5"></path><path fill="url(#paint30_linear_1170_3445)" fill-rule="evenodd" d="M279.659 125.352a13.266 13.266 0 00-.019-.598c-.153-2.861-1.215-5.712-3.18-8.402-2.049-2.804-5.081-5.433-9.09-7.719-16.305-9.28-42.675-9.317-58.866-.093-8.143 4.631-12.158 10.731-12.101 16.812.075 6.045 4.165 12.07 12.27 16.72 16.324 9.28 42.675 9.317 58.866.093 8.068-4.594 12.101-10.62 12.101-16.664v-.148l.019-.001zm-16.741-8.897c6.118 3.489 7.548 6.853 7.722 8.631zm7.722 8.631v.415c0 1.641-1.108 5.172-7.554 8.843l-.002.001c-6.406 3.649-15.402 5.727-24.914 5.712-9.501-.014-18.542-2.115-25.033-5.801-6.506-3.736-7.707-7.308-7.735-9.002-.009-1.657 1.084-5.213 7.551-8.891l.006-.003c6.405-3.649 15.406-5.727 24.922-5.713 9.511.015 18.555 2.119 25.036 5.807" clip-rule="evenodd"></path><path fill="url(#paint31_linear_1170_3445)" d="M298.105 152.944l3.341-1.911c11.831-6.762 10.345-18.558-3.31-26.366L260.19 103 214 129.382l37.945 21.667c13.671 7.808 34.329 8.657 46.16 1.895z" opacity="0.6" style="mix-blend-mode: multiply;"></path><path fill="url(#paint32_linear_1170_3445)" d="M272.014 113.063v8.84c.046 4.958-3.218 9.946-9.839 13.706-13.164 7.521-34.589 7.491-47.861-.075-3.294-1.88-5.777-4.064-7.448-6.384-1.655-2.335-2.498-4.791-2.528-7.247v-8.961c.046 4.928 3.387 9.84 9.976 13.631 13.272 7.581 34.682 7.596 47.861.076 6.575-3.745 9.839-8.673 9.839-13.586z"></path><g filter="url(#filter2_i_1170_3445)"><path fill="url(#paint33_linear_1170_3445)" d="M272.014 112.942v.122c0 4.927-3.28 9.84-9.839 13.585-13.164 7.52-34.589 7.49-47.861-.076-6.589-3.791-9.915-8.703-9.976-13.631-.046-4.958 3.218-9.931 9.839-13.706 13.164-7.52 34.604-7.49 47.86.076 6.606 3.775 9.946 8.703 9.992 13.63h-.015z"></path></g><path fill="url(#paint34_linear_1170_3445)" fill-opacity="0.6" stroke="url(#paint35_linear_1170_3445)" stroke-width="2" d="M271.014 112.484c-.242-4.299-3.268-8.758-9.472-12.304l9.472 12.304zm0 0V113.064c0 4.439-2.956 9.075-9.335 12.716h0c-6.394 3.653-14.859 5.501-23.392 5.488-8.533-.013-17.026-1.886-23.476-5.563-6.413-3.689-9.417-8.329-9.473-12.774-.041-4.466 2.899-9.157 9.334-12.827h.001c6.394-3.653 14.862-5.5 23.398-5.488 8.535.013 17.028 1.887 23.47 5.564l9.473 12.304z"></path><path fill="#180D65" fill-opacity="0.4" d="M247.419 118.239c-5.042 2.913-13.255 2.895-18.316-.036-5.06-2.931-5.097-7.658-.055-10.57 5.042-2.913 13.256-2.895 18.335.036 5.078 2.931 5.097 7.658.055 10.57h-.019z"></path><path fill="#D28A1C" d="M238.504 74.991l12.138-12.209V51.059l-12.138 12.21V74.99z"></path><path fill="url(#paint36_linear_1170_3445)" d="M238.553 98.873l23.932-24.14V63l-23.932 24.14v11.733z"></path><path fill="#D9C256" d="M238.553 74.991l-12.089-12.209V51.059l12.089 12.21V74.99z"></path><path fill="url(#paint37_linear_1170_3445)" d="M238.553 98.873l-23.932-24.14V63l23.932 24.14v11.733z"></path><path fill="url(#paint38_linear_1170_3445)" d="M250.642 63.17l11.476 11.563-23.592 23.77-23.538-23.77 11.476-11.562 11.868 12.034.183.186.183-.186 11.945-12.034h-.001zm.001-.368l-12.129 12.219-12.05-12.219-11.843 11.931 23.905 24.14 23.959-24.14-11.843-11.931h.001z"></path><path fill="url(#paint39_linear_1170_3445)" d="M238.553 98.873l23.932-24.14V63l-23.932 24.14v11.733z"></path><path fill="url(#paint40_linear_1170_3445)" d="M262.485 74.694l-11.843-11.917V51.059l11.843 11.917v11.718z"></path><path fill="url(#paint41_linear_1170_3445)" d="M238.553 98.873l-23.932-24.14V63l23.932 24.14v11.733z"></path><path fill="#fff" d="M250.642 63.17l11.476 11.563-23.592 23.77-23.538-23.77 11.476-11.562 11.868 12.034.183.186.183-.186 11.945-12.034h-.001zm.001-.368l-12.129 12.219-12.05-12.219-11.843 11.931 23.905 24.14 23.959-24.14-11.843-11.931h.001z" style="mix-blend-mode: overlay;"></path><path fill="url(#paint42_linear_1170_3445)" d="M214.621 74.694l11.843-11.917V51.059l-11.843 11.917v11.718z"></path><path fill="url(#paint43_radial_1170_3445)" d="M271.986-94H205v205.097h.043c-.229 5.131 3.012 10.305 9.777 14.217 13.075 7.581 34.285 7.581 47.374 0 6.537-3.798 9.806-8.757 9.806-13.73V-94h-.014z" opacity="0.3" style="mix-blend-mode: lighten;"></path></g><defs><filter id="filter0_f_1170_3445" width="591" height="322" x="-50" y="1" color-interpolation-filters="sRGB" filterUnits="userSpaceOnUse"><feFlood flood-opacity="0" result="BackgroundImageFix"></feFlood><feBlend in="SourceGraphic" in2="BackgroundImageFix" result="shape"></feBlend><feGaussianBlur result="effect1_foregroundBlur_1170_3445" stdDeviation="47"></feGaussianBlur></filter><filter id="filter1_f_1170_3445" width="430.917" height="268.906" x="44.002" y="27.547" color-interpolation-filters="sRGB" filterUnits="userSpaceOnUse"><feFlood flood-opacity="0" result="BackgroundImageFix"></feFlood><feBlend in="SourceGraphic" in2="BackgroundImageFix" result="shape"></feBlend><feGaussianBlur result="effect1_foregroundBlur_1170_3445" stdDeviation="47"></feGaussianBlur></filter><filter id="filter2_i_1170_3445" width="67.692" height="44.652" x="204.337" y="93.616" color-interpolation-filters="sRGB" filterUnits="userSpaceOnUse"><feFlood flood-opacity="0" result="BackgroundImageFix"></feFlood><feBlend in="SourceGraphic" in2="BackgroundImageFix" result="shape"></feBlend><feColorMatrix in="SourceAlpha" result="hardAlpha" values="0 0 0 0 0 0 0 0 0 0 0 0 0 0 0 0 0 0 127 0"></feColorMatrix><feOffset dy="7"></feOffset><feGaussianBlur stdDeviation="3"></feGaussianBlur><feComposite in2="hardAlpha" k2="-1" k3="1" operator="arithmetic"></feComposite><feColorMatrix values="0 0 0 0 1 0 0 0 0 1 0 0 0 0 1 0 0 0 0.3 0"></feColorMatrix><feBlend in2="shape" result="effect1_innerShadow_1170_3445"></feBlend></filter><linearGradient id="paint0_linear_1170_3445" x1="202.54" x2="36.214" y1="124.089" y2="219.8" gradientUnits="userSpaceOnUse"><stop stop-color="#D9C256" stop-opacity="0"></stop><stop offset="0.161" stop-color="#E2B247"></stop><stop offset="1" stop-color="#000000" stop-opacity="0"></stop></linearGradient><linearGradient id="paint1_linear_1170_3445" x1="277.982" x2="430.506" y1="130.388" y2="218.156" gradientUnits="userSpaceOnUse"><stop stop-color="#D9C256" stop-opacity="0"></stop><stop offset="0.161" stop-color="#E2B247"></stop><stop offset="1" stop-color="#000000" stop-opacity="0"></stop></linearGradient><radialGradient id="paint2_radial_1170_3445" cx="0" cy="0" r="1" gradientTransform="rotate(87.785 23.07 204.974) scale(181.135 181.14)" gradientUnits="userSpaceOnUse"><stop stop-color="#9C96FF"></stop><stop offset="0.448" stop-color="#fff"></stop><stop offset="1" stop-color="#0B0839"></stop></radialGradient><linearGradient id="paint3_linear_1170_3445" x1="139.879" x2="139.879" y1="154.554" y2="201.964" gradientUnits="userSpaceOnUse"><stop offset="0.089" stop-color="#fff" stop-opacity="0"></stop><stop offset="1" stop-color="#D9C256"></stop></linearGradient><linearGradient id="paint4_linear_1170_3445" x1="139.879" x2="139.879" y1="152.242" y2="210.059" gradientUnits="userSpaceOnUse"><stop offset="0.089" stop-color="#fff" stop-opacity="0"></stop><stop offset="1" stop-color="#D9C256"></stop></linearGradient><linearGradient id="paint5_linear_1170_3445" x1="201" x2="131.026" y1="211" y2="157.315" gradientUnits="userSpaceOnUse"><stop stop-color="#413266" stop-opacity="0"></stop><stop offset="1" stop-color="#0C0B58"></stop></linearGradient><linearGradient id="paint6_linear_1170_3445" x1="188.685" x2="90.994" y1="159.18" y2="188.587" gradientUnits="userSpaceOnUse"><stop stop-color="#787192"></stop><stop offset="1" stop-color="#fff"></stop></linearGradient><linearGradient id="paint7_linear_1170_3445" x1="173.732" x2="105.946" y1="178.12" y2="138.246" gradientUnits="userSpaceOnUse"><stop stop-color="#fff"></stop><stop offset="1" stop-color="#5C5C5C"></stop></linearGradient><linearGradient id="paint8_linear_1170_3445" x1="89.578" x2="190.18" y1="122.755" y2="124.489" gradientUnits="userSpaceOnUse"><stop stop-color="#D9D9D9"></stop><stop offset="0.495" stop-color="#D9D9D9" stop-opacity="0"></stop><stop offset="1" stop-color="#D9D9D9"></stop></linearGradient><radialGradient id="paint9_radial_1170_3445" cx="0" cy="0" r="1" gradientTransform="matrix(70.00001 65.99998 -115.58765 122.59303 94 52.5)" gradientUnits="userSpaceOnUse"><stop stop-color="#fff"></stop><stop offset="0.6" stop-color="#383161"></stop><stop offset="1" stop-color="#7A78A7"></stop></radialGradient><linearGradient id="paint10_linear_1170_3445" x1="123.169" x2="146.47" y1="84.566" y2="124.501" gradientUnits="userSpaceOnUse"><stop stop-color="#fff"></stop><stop offset="1" stop-color="#A09EB7"></stop></linearGradient><linearGradient id="paint11_linear_1170_3445" x1="122.893" x2="156.088" y1="123.602" y2="123.602" gradientUnits="userSpaceOnUse"><stop stop-color="#FFF0D8"></stop><stop offset="1" stop-color="#EFF6FE"></stop></linearGradient><linearGradient id="paint12_linear_1170_3445" x1="127.141" x2="146.301" y1="100.454" y2="108.61" gradientUnits="userSpaceOnUse"><stop stop-color="#fff"></stop><stop offset="1"></stop></linearGradient><linearGradient id="paint13_linear_1170_3445" x1="143.713" x2="162.793" y1="100.454" y2="108.527" gradientUnits="userSpaceOnUse"><stop stop-color="#fff"></stop><stop offset="1"></stop></linearGradient><linearGradient id="paint14_linear_1170_3445" x1="127.169" x2="144.366" y1="129.636" y2="139.434" gradientUnits="userSpaceOnUse"><stop stop-color="#fff"></stop><stop offset="1"></stop></linearGradient><linearGradient id="paint15_linear_1170_3445" x1="143.788" x2="160.821" y1="129.636" y2="139.162" gradientUnits="userSpaceOnUse"><stop stop-color="#fff"></stop><stop offset="1"></stop></linearGradient><linearGradient id="paint16_linear_1170_3445" x1="334.879" x2="334.879" y1="154.554" y2="201.964" gradientUnits="userSpaceOnUse"><stop offset="0.089" stop-color="#fff" stop-opacity="0"></stop><stop offset="1" stop-color="#D9C256"></stop></linearGradient><linearGradient id="paint17_linear_1170_3445" x1="334.879" x2="334.879" y1="152.242" y2="210.059" gradientUnits="userSpaceOnUse"><stop offset="0.089" stop-color="#fff" stop-opacity="0"></stop><stop offset="1" stop-color="#D9C256"></stop></linearGradient><linearGradient id="paint18_linear_1170_3445" x1="396" x2="326.026" y1="211" y2="157.315" gradientUnits="userSpaceOnUse"><stop stop-color="#413266" stop-opacity="0"></stop><stop offset="1" stop-color="#0C0B58"></stop></linearGradient><linearGradient id="paint19_linear_1170_3445" x1="383.685" x2="285.994" y1="159.18" y2="188.587" gradientUnits="userSpaceOnUse"><stop stop-color="#787192"></stop><stop offset="1" stop-color="#fff"></stop></linearGradient><linearGradient id="paint20_linear_1170_3445" x1="368.732" x2="300.947" y1="178.12" y2="138.246" gradientUnits="userSpaceOnUse"><stop stop-color="#fff"></stop><stop offset="1" stop-color="#5C5C5C"></stop></linearGradient><linearGradient id="paint21_linear_1170_3445" x1="284.578" x2="385.18" y1="122.755" y2="124.489" gradientUnits="userSpaceOnUse"><stop stop-color="#D9D9D9"></stop><stop offset="0.495" stop-color="#D9D9D9" stop-opacity="0"></stop><stop offset="1" stop-color="#D9D9D9"></stop></linearGradient><radialGradient id="paint22_radial_1170_3445" cx="0" cy="0" r="1" gradientTransform="matrix(70.00001 65.99998 -115.58765 122.59303 289 52.5)" gradientUnits="userSpaceOnUse"><stop stop-color="#fff"></stop><stop offset="0.6" stop-color="#383161"></stop><stop offset="1" stop-color="#7A78A7"></stop></radialGradient><linearGradient id="paint23_linear_1170_3445" x1="318.169" x2="341.47" y1="84.566" y2="124.501" gradientUnits="userSpaceOnUse"><stop stop-color="#fff"></stop><stop offset="1" stop-color="#A09EB7"></stop></linearGradient><linearGradient id="paint24_linear_1170_3445" x1="317.893" x2="351.088" y1="123.602" y2="123.602" gradientUnits="userSpaceOnUse"><stop stop-color="#FFF0D8"></stop><stop offset="1" stop-color="#EFF6FE"></stop></linearGradient><linearGradient id="paint25_linear_1170_3445" x1="322.141" x2="341.301" y1="100.454" y2="108.61" gradientUnits="userSpaceOnUse"><stop stop-color="#fff"></stop><stop offset="1"></stop></linearGradient><linearGradient id="paint26_linear_1170_3445" x1="338.713" x2="357.793" y1="100.454" y2="108.527" gradientUnits="userSpaceOnUse"><stop stop-color="#fff"></stop><stop offset="1"></stop></linearGradient><linearGradient id="paint27_linear_1170_3445" x1="322.169" x2="339.366" y1="129.636" y2="139.434" gradientUnits="userSpaceOnUse"><stop stop-color="#fff"></stop><stop offset="1"></stop></linearGradient><linearGradient id="paint28_linear_1170_3445" x1="338.788" x2="355.821" y1="129.636" y2="139.162" gradientUnits="userSpaceOnUse"><stop stop-color="#fff"></stop><stop offset="1"></stop></linearGradient><linearGradient id="paint29_linear_1170_3445" x1="238" x2="238" y1="102" y2="157" gradientUnits="userSpaceOnUse"><stop offset="0.089" stop-color="#fff" stop-opacity="0"></stop><stop offset="1" stop-color="#fff"></stop></linearGradient><linearGradient id="paint30_linear_1170_3445" x1="238.031" x2="238.031" y1="101.647" y2="149.057" gradientUnits="userSpaceOnUse"><stop offset="0.089" stop-color="#fff" stop-opacity="0"></stop><stop offset="1" stop-color="#fff"></stop></linearGradient><linearGradient id="paint31_linear_1170_3445" x1="296.824" x2="226.85" y1="151.51" y2="97.825" gradientUnits="userSpaceOnUse"><stop stop-color="#413266" stop-opacity="0"></stop><stop offset="1" stop-color="#0C0B58"></stop></linearGradient><linearGradient id="paint32_linear_1170_3445" x1="287.076" x2="189.385" y1="106.569" y2="135.977" gradientUnits="userSpaceOnUse"><stop stop-color="#787192"></stop><stop offset="1" stop-color="#fff"></stop></linearGradient><linearGradient id="paint33_linear_1170_3445" x1="265.001" x2="236.888" y1="96.151" y2="144.421" gradientUnits="userSpaceOnUse"><stop stop-color="#D9C256"></stop><stop offset="0.504" stop-color="#4D259B"></stop><stop offset="0.715" stop-color="#291D99"></stop><stop offset="1" stop-color="#120C40"></stop></linearGradient><linearGradient id="paint34_linear_1170_3445" x1="189.523" x2="306.424" y1="40.709" y2="90.181" gradientUnits="userSpaceOnUse"><stop stop-color="#FB9800"></stop><stop offset="0.62" stop-color="#2D28B6"></stop><stop offset="1" stop-color="#180D65"></stop></linearGradient><linearGradient id="paint35_linear_1170_3445" x1="221.561" x2="244.862" y1="101.735" y2="141.671" gradientUnits="userSpaceOnUse"><stop stop-color="#FDE0B4"></stop><stop offset="1" stop-color="#000000"></stop></linearGradient><linearGradient id="paint36_linear_1170_3445" x1="238.553" x2="262.485" y1="80.937" y2="80.937" gradientUnits="userSpaceOnUse"><stop stop-color="#A5ABB2"></stop><stop offset="0.21" stop-color="#9FA5AC"></stop><stop offset="0.49" stop-color="#8C939A"></stop><stop offset="0.83" stop-color="#6F767E"></stop><stop offset="1" stop-color="#5D656D"></stop></linearGradient><linearGradient id="paint37_linear_1170_3445" x1="214.621" x2="238.553" y1="80.937" y2="80.937" gradientUnits="userSpaceOnUse"><stop stop-color="#3E4147"></stop><stop offset="0.3" stop-color="#44474D"></stop><stop offset="0.71" stop-color="#56585F"></stop><stop offset="1" stop-color="#67686F"></stop></linearGradient><linearGradient id="paint38_linear_1170_3445" x1="238.553" x2="238.553" y1="62.802" y2="98.873" gradientUnits="userSpaceOnUse"><stop stop-color="#C73507"></stop><stop offset="1" stop-color="#fff" stop-opacity="0"></stop></linearGradient><linearGradient id="paint39_linear_1170_3445" x1="295.759" x2="245.811" y1="117.23" y2="68.989" gradientUnits="userSpaceOnUse"><stop stop-color="#D9C256"></stop><stop offset="0.21" stop-color="#D9C256"></stop><stop offset="0.49" stop-color="#D9C256"></stop><stop offset="0.72" stop-color="#D58710"></stop><stop offset="1" stop-color="#955A00"></stop></linearGradient><linearGradient id="paint40_linear_1170_3445" x1="250.442" x2="262.408" y1="57.707" y2="67.678" gradientUnits="userSpaceOnUse"><stop stop-color="#fff"></stop><stop offset="1" stop-color="#FFC772" stop-opacity="0.4"></stop></linearGradient><linearGradient id="paint41_linear_1170_3445" x1="271.827" x2="221.879" y1="117.23" y2="68.989" gradientUnits="userSpaceOnUse"><stop stop-color="#D9C256"></stop><stop offset="0.21" stop-color="#D9C256"></stop><stop offset="0.49" stop-color="#D9C256"></stop><stop offset="0.72" stop-color="#D58710"></stop><stop offset="1" stop-color="#955A00"></stop></linearGradient><linearGradient id="paint42_linear_1170_3445" x1="226.51" x2="213.215" y1="55.048" y2="68.343" gradientUnits="userSpaceOnUse"><stop stop-color="#fff"></stop><stop offset="1" stop-color="#FFC772" stop-opacity="0.4"></stop></linearGradient><radialGradient id="paint43_radial_1170_3445" cx="0" cy="0" r="1" gradientTransform="matrix(171.34 0 0 172.035 237.986 121.774)" gradientUnits="userSpaceOnUse"><stop stop-color="#B9B8FF"></stop><stop offset="0.05" stop-color="#B9B8FF"></stop><stop offset="0.17" stop-color="#B9B8FF"></stop><stop offset="0.25" stop-color="#7C7AFF"></stop><stop offset="0.38" stop-color="#6B69E8"></stop><stop offset="0.5" stop-color="#2B2A80"></stop><stop offset="0.63" stop-color="#342368"></stop><stop offset="0.76" stop-color="#301054"></stop><stop offset="0.88" stop-color="#2D0548"></stop><stop offset="1" stop-color="#2D0244"></stop></radialGradient><clipPath id="clip0_1170_3445"><path fill="#fff" d="M0 0H492V284H0z"></path></clipPath><clipPath id="clip1_1170_3445"><path fill="#fff" d="M0 0H124.86V182H0z" transform="translate(89 46)"></path></clipPath><clipPath id="clip2_1170_3445"><path fill="#fff" d="M0 0H124.86V182H0z" transform="translate(284 46)"></path></clipPath></defs></svg>