<svg xmlns="http://www.w3.org/2000/svg" width="36" height="36" fill="none" viewBox="0 0 36 36" class="h-[2.4rem] w-[2.4rem]"><g clip-path="url(#clip0_2047_2756)"><path fill="#fff" fill-opacity="1" d="M30.473 6.888a30.398 30.398 0 00-7.327-2.183c-.045-.01-.09.014-.116.053-.315.541-.67 1.248-.913 1.804-2.768-.4-5.522-.4-8.23 0a17.432 17.432 0 00-.927-1.804.123.123 0 00-.117-.053c-2.57.424-5.03 1.17-7.326 2.183a.197.197 0 00-.051.04C.8 13.63-.477 20.165.146 26.623c0 .03.021.064.047.083a30.281 30.281 0 008.99 4.368c.045.014.096 0 .126-.04a20.577 20.577 0 001.84-2.875c.031-.059 0-.127-.06-.151a20.183 20.183 0 01-2.81-1.287.11.11 0 01-.01-.185c.188-.137.376-.278.559-.42a.122.122 0 01.116-.014c5.892 2.588 12.27 2.588 18.091 0a.102.102 0 01.117.014c.182.142.37.288.558.42a.11.11 0 01-.01.185 19.12 19.12 0 01-2.81 1.287c-.065.024-.09.092-.06.156a23.152 23.152 0 001.835 2.876c.03.038.081.053.127.038a30.231 30.231 0 009.005-4.367c.025-.02.046-.049.046-.078.75-7.467-1.258-13.95-5.324-19.697a.071.071 0 00-.046-.039v-.01zM12.032 22.696c-1.775 0-3.235-1.565-3.235-3.49 0-1.926 1.435-3.49 3.235-3.49 1.8 0 3.265 1.579 3.235 3.49 0 1.92-1.435 3.49-3.235 3.49zm11.961 0c-1.774 0-3.235-1.565-3.235-3.49 0-1.926 1.435-3.49 3.235-3.49 1.8 0 3.266 1.579 3.235 3.49 0 1.92-1.42 3.49-3.235 3.49z"></path></g><defs><clipPath id="clip0_2047_2756"><path fill="#fff" d="M0 0H36V36H0z"></path></clipPath></defs></svg>