<svg xmlns="http://www.w3.org/2000/svg" width="162" height="37" fill="none" viewBox="0 0 162 37" class="scale-75 md:scale-100 "><path fill="#fff" d="M11.376 24.943l11.11-6.551-5.556-9.196L11.376 0 .266 18.392l11.11 6.551z"></path><path fill="#fff" d="M22.485 18.392l-11.11 6.551L.267 18.392 11.376 0l5.554 9.196 5.555 9.196z"></path><path fill="#fff" d="M22.485 18.392l-11.11 6.551L.267 18.392 11.376 0l5.554 9.196 5.555 9.196z"></path><path fill="#fff" d="M11.376 36.112L22.49 20.494l-11.115 6.545-11.11-6.545 11.11 15.618zM42.99 21.768c0 .278-.24.51-.525.51H32.313c.258 2.445 2.141 4.674 4.796 4.674 1.82 0 3.16-.671 4.18-2.086.147-.197.368-.322.643-.206a.48.48 0 01.221.699c-1.02 1.737-3.05 2.587-5.044 2.587-3.417 0-5.843-2.973-5.843-6.16 0-3.188 2.435-6.16 5.843-6.16 3.409-.01 5.88 2.954 5.88 6.142zm-1.085-.492c-.22-2.445-2.14-4.674-4.796-4.674-2.655 0-4.538 2.23-4.796 4.674h9.592zM55.3 15.867c.294 0 .505.251.505.493 0 .286-.22.492-.505.492h-2.72v10.405a.51.51 0 01-.505.492.509.509 0 01-.505-.492V16.852h-2.618a.486.486 0 01-.506-.492c0-.25.22-.493.506-.493h2.618v-3.805c0-.242.165-.466.413-.502.34-.053.607.17.607.484v3.823h2.71zm16.601 5.023v6.304c0 .287-.257.493-.505.493a.487.487 0 01-.505-.493v-6.303c0-2.123-1.231-4.245-3.666-4.245-3.124 0-4.465 2.65-4.281 5.382 0 .071.037.385.037.42v4.728a.497.497 0 01-.414.502c-.34.053-.606-.17-.606-.484V6.492c0-.25.22-.492.505-.492.294 0 .505.25.505.492v11.712c.873-1.522 2.435-2.552 4.245-2.552 2.977 0 4.685 2.552 4.685 5.239zm18.191.878c0 .278-.239.51-.523.51H79.417c.257 2.445 2.14 4.674 4.795 4.674 1.82 0 3.16-.671 4.18-2.086.148-.197.368-.322.644-.206a.48.48 0 01.284.358.476.476 0 01-.064.34c-1.02 1.738-3.05 2.588-5.044 2.588-3.417 0-5.843-2.973-5.843-6.16 0-3.188 2.435-6.16 5.843-6.16 3.409-.01 5.871 2.954 5.88 6.142zM89 21.276c-.22-2.445-2.14-4.674-4.796-4.674-2.655 0-4.538 2.23-4.796 4.674H89zm13.551-4.952c0 .322-.184.492-.468.528-2.977.421-4.318 2.794-4.318 5.56v4.728a.497.497 0 01-.414.502c-.34.054-.606-.17-.606-.484v-10.79c0-.241.165-.465.413-.5.34-.054.607.17.607.483v2.194c.836-1.38 2.508-2.687 4.244-2.687.248.01.542.18.542.466zm16.666 5.444c0 .278-.239.51-.524.51H108.54c.258 2.445 2.141 4.674 4.796 4.674 1.819 0 3.16-.671 4.18-2.086.147-.197.368-.322.643-.206a.479.479 0 01.285.358c.028.162-.018.251-.064.34-1.02 1.738-3.05 2.588-5.044 2.588-3.418 0-5.843-2.973-5.843-6.16 0-3.188 2.435-6.16 5.843-6.16 3.409-.01 5.871 2.954 5.88 6.142zm-1.093-.492c-.221-2.445-2.141-4.674-4.796-4.674-2.655 0-4.539 2.23-4.796 4.674h9.592zm17.474-4.827v10.808c0 .286-.257.492-.505.492a.487.487 0 01-.506-.492v-2.05c-.836 1.629-2.324 2.793-4.217 2.793-3.013 0-4.685-2.552-4.685-5.238v-6.34c0-.25.22-.492.505-.492.294 0 .505.25.505.492v6.34c0 2.122 1.231 4.244 3.666 4.244 3.418 0 4.217-3.116 4.217-6.545v-4.038c0-.287.294-.574.652-.475a.531.531 0 01.368.501zm25.669 4.406v6.34c0 .286-.257.492-.505.492a.486.486 0 01-.505-.493v-6.34c0-2.121-1.232-4.208-3.666-4.208-3.05 0-4.217 3.188-4.217 5.66v4.88c0 .286-.257.492-.505.492a.487.487 0 01-.506-.493v-6.34c0-2.121-1.231-4.208-3.665-4.208-3.087 0-4.355 2.373-4.245 5.525 0 .072.037.215 0 .25v4.764a.497.497 0 01-.413.502c-.34.053-.607-.17-.607-.484V16.37c0-.242.166-.466.414-.502.34-.053.606.17.606.484v1.809c.873-1.523 2.435-2.517 4.245-2.517 2.067 0 3.665 1.272 4.318 3.152.836-1.844 2.471-3.152 4.575-3.152 2.967.01 4.676 2.526 4.676 5.212z"></path></svg>