<svg xmlns="http://www.w3.org/2000/svg" width="558" height="552" fill="none" viewBox="0 0 558 552" class="basis-1/2 h-full w-full lg:w-fit mb-1.5  lg:m-0"><g clip-path="url(#clip0_319_805)"><path fill="url(#paint0_linear_319_805)" fill-opacity="0.4" d="M551-25H1v577h550V-25z" opacity="0.4"></path><g opacity="0.7"><path stroke="#413F7C" d="M-22.5 82.5H60.5V165.5H-22.5z"></path><path fill="#413F7C" d="M60 141c-.012 13.249-10.75 23.988-24 24h24v-24zM60 107c-.012-13.25-10.75-23.988-24-24h24v24zM-22 107c.012-13.25 10.75-23.988 24-24h-24v24z"></path><g style="mix-blend-mode: luminosity;"><path fill="#3A3A3A" d="M18.714 103.826l-.268.911v26.451l.268.267 12.277-7.257-12.277-20.372z"></path><path fill="#503A8D" d="M18.714 103.826L6.437 124.198l12.277 7.257v-27.629z"></path><path fill="#3A3A3A" d="M18.715 133.78l-.151.184v9.422l.151.441L31 126.526l-12.285 7.254z"></path><path fill="#503A8D" d="M18.714 143.827V133.78l-12.277-7.254 12.277 17.301z"></path><path fill="#515151" d="M18.714 131.455l12.277-7.258-12.277-5.581v12.839z"></path><path fill="#707070" d="M6.437 124.197l12.277 7.258v-12.839l-12.277 5.581z"></path><path fill="#3A3A3A" d="M18.714 103.826l-.268.911v26.451l.268.267 12.277-7.257-12.277-20.372z"></path><path fill="#503A8D" d="M18.714 103.826L6.437 124.198l12.277 7.257v-27.629z"></path><path fill="#3A3A3A" d="M18.715 133.78l-.151.184v9.422l.151.441L31 126.526l-12.285 7.254z"></path><path fill="#503A8D" d="M18.714 143.827V133.78l-12.277-7.254 12.277 17.301z"></path><path fill="#515151" d="M18.714 131.455l12.277-7.258-12.277-5.581v12.839z"></path><path fill="#707070" d="M6.437 124.197l12.277 7.258v-12.839l-12.277 5.581z"></path></g><path stroke="#413F7C" d="M60.5 82.5H143.5V165.5H60.5z"></path><path stroke="#413F7C" d="M143.5 82.5H226.5V165.5H143.5z"></path><path fill="#44407E" d="M144 141c.012 13.249 10.751 23.988 24 24h-24v-24zM226 141c-.012 13.249-10.751 23.988-24 24h24v-24zM226 107c-.012-13.25-10.751-23.988-24-24h24v24z"></path><path fill="#413F7C" d="M144 107c.012-13.25 10.751-23.988 24-24h-24v24z"></path><rect width="56" height="56" x="157" y="96" fill="#857EBF" rx="10"></rect><path fill="#544D8C" d="M185.894 126.6h9.591c.204 0 .301 0 .316-.316a25.432 25.432 0 000-3.448c0-.223-.094-.315-.3-.315h-19.087c-.237 0-.3.092-.3.353v3.3c0 .426 0 .426.378.426h9.402zm8.835-7.938a.41.41 0 000-.259c-.16-.41-.349-.8-.57-1.168a9.368 9.368 0 00-1.167-1.726 4.292 4.292 0 00-.726-.834c-1.365-1.366-2.989-2.333-4.732-2.819a10.037 10.037 0 00-2.683-.333h-8.47c-.237 0-.269.11-.269.352v6.584c0 .277 0 .351.301.351h18.203s.158-.038.19-.148h-.078.001zm0 11.797a3.014 3.014 0 00-.805 0h-17.495c-.235 0-.315 0-.315.37v6.437c0 .298 0 .372.315.372h8.077c.386.034.773.003 1.151-.093a10.514 10.514 0 003.424-.891c.4-.163.786-.375 1.151-.63h.11c1.894-1.158 3.432-2.977 4.402-5.21 0 0 .109-.279-.015-.353v-.002zm-21.785 10.515v-10.255c0-.243 0-.278-.252-.278h-3.423c-.19 0-.269 0-.269-.297v-3.524h3.66c.204 0 .284 0 .284-.315v-3.488c0-.221 0-.277-.252-.277h-3.423c-.19 0-.269 0-.269-.295v-3.264c0-.206 0-.26.252-.26h3.391c.237 0 .301 0 .301-.353v-9.997c0-.296 0-.371.315-.371h11.831c.859.04 1.711.152 2.555.335 1.74.377 3.41 1.108 4.938 2.15a14.36 14.36 0 012.775 2.524 17.536 17.536 0 011.688 2.466c.497.891.909 1.843 1.233 2.838.04.258.251.434.472.389h2.823c.362 0 .362 0 .378.41v3.041c0 .297-.094.371-.347.371h-2.178c-.22 0-.284 0-.267.334.086 1.13.086 2.264 0 3.393 0 .316 0 .353.3.353h2.491c.11.168 0 .334 0 .502a4.38 4.38 0 010 .648v2.245c0 .315-.079.408-.315.408h-2.982c-.208-.047-.41.11-.458.353-.71 2.17-1.846 4.117-3.313 5.676-.536.567-1.1 1.101-1.688 1.593-.632.428-1.245.873-1.893 1.225a15.263 15.263 0 01-3.724 1.391 16.66 16.66 0 01-3.691.353h-10.948v-.019l.005-.005z"></path><path stroke="#413F7C" d="M226.5 82.5H309.5V165.5H226.5z"></path><path stroke="#413F7C" d="M309.5 82.5H392.5V165.5H309.5z"></path><path fill="#44407E" d="M392 107c-.012-13.25-10.751-23.988-24-24h24v24zM310 107c.012-13.25 10.751-23.988 24-24h-24v24z"></path><path fill="#534892" d="M350.994 102l-4.018 2.268-10.958 6.214L332 112.75v21.5l4.018 2.268 11.058 6.213 4.025 2.269 4.018-2.269 10.858-6.213L370 134.25v-21.5l-4.018-2.268-10.958-6.214-4.03-2.268zm-10.958 27.713v-12.427l10.958-6.213 10.958 6.213v12.427l-10.958 6.214-10.958-6.214z" opacity="0.8"></path><path stroke="#413F7C" d="M392.5 82.5H475.5V165.5H392.5z"></path><path fill="#413F7C" d="M393 141c.012 13.249 10.751 23.988 24 24h-24v-24z"></path><path stroke="url(#paint1_linear_319_805)" d="M475.5 82.5H558.5V165.5H475.5z"></path><path fill="#413F7C" d="M476 141c.012 13.249 10.751 23.988 24 24h-24v-24z"></path><path fill="#44407E" d="M476 107c.012-13.25 10.751-23.988 24-24h-24v24z"></path><g opacity="0.4" style="mix-blend-mode: luminosity;"><path fill="#625694" d="M543.993 130.731c-3.717 14.907-18.817 23.979-33.727 20.262-14.904-3.717-23.977-18.816-20.259-33.721 3.716-14.909 18.815-23.982 33.721-20.265 14.91 3.716 23.982 18.817 20.265 33.724z"></path><path fill="#F7931A" d="M543.993 130.731l.169.042-.169-.042zm-33.727 20.262l-.042.169.042-.169zm-20.259-33.721l.169.042-.169-.042zm33.721-20.265l-.042.168.042-.168zm20.096 33.682c-3.693 14.814-18.699 23.829-33.516 20.135l-.084.338c15.003 3.74 30.198-5.389 33.938-20.389l-.338-.084zm-33.516 20.135c-14.811-3.693-23.827-18.698-20.132-33.51l-.337-.085c-3.742 14.999 5.388 30.193 20.385 33.933l.084-.338zm-20.132-33.51c3.692-14.816 18.698-23.832 33.51-20.139l.084-.337c-14.999-3.74-30.193 5.39-33.931 20.392l.337.084zm33.51-20.139c14.816 3.694 23.832 18.7 20.138 33.514l.338.084c3.74-15-5.389-30.195-20.392-33.935l-.084.337z"></path><path fill="#9982CA" fill-rule="evenodd" d="M523.106 113.027l1.252-5.045-3.057-.765-1.219 4.911a129.25 129.25 0 00-2.449-.579l1.227-4.944-3.055-.765-1.253 5.043c-.665-.152-1.318-.303-1.952-.461l-4.212-1.073-.813 3.28s2.268.522 2.22.554c1.238.311 1.462 1.134 1.424 1.786l-1.426 5.747c.086.022.196.053.318.102l-.101-.025-.222-.055-1.999 8.051c-.151.378-.535.944-1.401.729.031.045-2.222-.557-2.222-.557l-1.517 3.515 3.978.996c.438.11.871.224 1.3.336l.02.006.859.223-1.265 5.103 3.053.765 1.253-5.048c.834.227 1.644.437 2.436.635l-1.248 5.024 3.057.766 1.265-5.093c5.212.991 9.132.591 10.782-4.145 1.329-3.813-.066-6.013-2.809-7.447 1.997-.463 3.502-1.783 3.903-4.509.555-3.724-2.268-5.726-6.127-7.061zm-10.265 18.134l1.678-6.759c.206.051.458.108.742.172l.009.002c2.58.582 7.867 1.774 6.979 5.351-.867 3.498-6.318 2.052-8.813 1.39a41.81 41.81 0 00-.595-.156zm3.968-15.985l-1.522 6.131c.144.036.313.082.502.132 2.079.558 6.615 1.774 7.406-1.406.806-3.252-3.602-4.233-5.755-4.712a21.503 21.503 0 01-.631-.145z" clip-rule="evenodd"></path></g><path stroke="#413F7C" d="M-22.5 -0.5H60.5V82.5H-22.5z"></path><path fill="#413F7C" d="M60 24C59.988 10.75 49.25.012 36 0h24v24z"></path><path stroke="#413F7C" d="M60.5 -0.5H143.5V82.5H60.5z"></path><path fill="#413F7C" d="M143 58c-.012 13.25-10.751 23.988-24 24h24V58z"></path><path fill="#635794" d="M95.251 23.825c-.55-.081-.575-.108-.314-.135.498-.08 1.647.027 2.457.215 1.882.456 3.582 1.636 5.385 3.702l.47.563.679-.108c2.901-.482 5.88-.107 8.363 1.073.681.322 1.751.966 1.883 1.126.051.053.131.402.183.752.183 1.26.104 2.199-.289 2.922-.207.402-.207.51-.078.859.106.267.419.455.706.455.627 0 1.281-1.019 1.594-2.44l.131-.563.235.267c1.333 1.529 2.379 3.648 2.535 5.15l.053.402-.235-.348c-.392-.617-.759-1.02-1.255-1.368-.889-.616-1.829-.805-4.312-.938-2.247-.135-3.528-.322-4.783-.752-2.144-.724-3.24-1.662-5.776-5.122-1.124-1.529-1.83-2.36-2.535-3.057-1.542-1.53-3.084-2.333-5.097-2.655z"></path><path fill="#635794" d="M114.722 27.231c.051-1.018.183-1.689.47-2.305.105-.242.209-.457.235-.457.026 0-.026.188-.104.403-.209.59-.235 1.42-.105 2.36.183 1.207.262 1.368 1.516 2.682a42.148 42.148 0 011.516 1.715l.444.59-.444-.428c-.548-.537-1.803-1.555-2.09-1.69-.183-.107-.209-.107-.341.026-.103.109-.129.269-.129 1.047-.028 1.207-.184 1.958-.576 2.736-.209.402-.235.322-.052-.135.13-.348.156-.51.156-1.662 0-2.334-.261-2.896-1.855-3.835a19.822 19.822 0 00-1.463-.778c-.418-.189-.733-.349-.707-.349.054-.053 1.594.402 2.196.67.914.376 1.071.402 1.175.376.08-.08.132-.295.158-.966zM96.322 31.228c-1.097-1.556-1.803-3.968-1.646-5.766l.052-.563.26.053c.473.082 1.282.404 1.674.644 1.046.645 1.516 1.529 1.96 3.728.13.643.314 1.395.393 1.637.13.402.626 1.34 1.044 1.93.289.43.106.644-.548.59-.994-.108-2.327-1.046-3.19-2.253zM113.39 42.893c-5.176-2.145-7.005-3.995-7.005-7.132 0-.457.026-.832.026-.832.026 0 .209.16.444.348 1.046.859 2.222 1.234 5.489 1.716 1.907.295 3.005.51 3.999.858 3.162 1.074 5.123 3.273 5.593 6.25.131.858.052 2.493-.157 3.352-.184.67-.706 1.904-.837 1.93-.026 0-.078-.133-.078-.348-.052-1.127-.602-2.199-1.516-3.03-1.098-.966-2.509-1.69-5.958-3.112zM109.73 43.778a6.298 6.298 0 00-.261-1.125l-.129-.403.235.295c.339.403.6.885.835 1.555.183.51.183.67.183 1.502 0 .806-.026.992-.183 1.45a4.862 4.862 0 01-1.096 1.795c-.943.993-2.17 1.529-3.921 1.77-.315.027-1.204.107-1.987.162-1.96.107-3.267.322-4.443.75-.157.054-.313.107-.34.08-.052-.053.758-.535 1.412-.857.915-.457 1.855-.698 3.919-1.073 1.02-.16 2.066-.376 2.327-.482 2.588-.832 3.868-2.898 3.449-5.419z"></path><path fill="#635794" d="M112.109 48.095c-.679-1.527-.837-2.976-.47-4.343.052-.135.105-.269.157-.269.052 0 .209.08.365.187.315.215.968.59 2.64 1.529 2.118 1.18 3.319 2.092 4.156 3.138.731.911 1.176 1.957 1.385 3.246.131.723.052 2.465-.13 3.19-.575 2.28-1.882 4.104-3.789 5.149-.289.162-.524.268-.55.268-.026 0 .078-.268.235-.59.628-1.367.705-2.68.235-4.156-.287-.912-.889-2.013-2.09-3.861-1.438-2.146-1.777-2.71-2.144-3.488zM92.637 56.303c1.935-1.663 4.312-2.843 6.508-3.218.942-.162 2.51-.107 3.373.133 1.384.377 2.638 1.18 3.291 2.173.628.965.915 1.797 1.204 3.647.103.724.235 1.476.261 1.636.209.965.627 1.717 1.149 2.119.811.617 2.222.644 3.607.107.235-.08.444-.16.444-.134.054.054-.653.537-1.124.777-.653.349-1.175.457-1.881.457-1.255 0-2.327-.67-3.189-2.012-.182-.267-.548-1.046-.861-1.77-.917-2.172-1.387-2.815-2.457-3.54-.942-.617-2.144-.75-3.058-.294-1.203.589-1.516 2.171-.68 3.138.34.402.967.724 1.489.803.968.134 1.805-.643 1.805-1.635 0-.644-.237-1.019-.863-1.314-.837-.377-1.751.054-1.725.884 0 .35.157.563.496.725.209.107.209.107.052.08-.758-.16-.94-1.127-.339-1.744.731-.75 2.273-.428 2.795.617.21.43.236 1.289.054 1.824-.444 1.18-1.7 1.797-2.981 1.449-.862-.242-1.227-.484-2.273-1.582-1.83-1.931-2.534-2.308-5.148-2.71l-.497-.08.548-.536z"></path><path fill="#635794" fill-rule="evenodd" d="M78.89 13.154c6.09 7.589 15.473 19.388 15.943 20.031.392.537.235 1.047-.418 1.422-.365.215-1.124.429-1.49.429-.417 0-.915-.214-1.254-.562-.235-.242-1.255-1.77-3.555-5.445a346.786 346.786 0 00-3.267-5.175c-.104-.054-.104-.054 3.084 5.792 2.013 3.674 2.666 4.988 2.666 5.15 0 .348-.104.535-.522 1.018-.707.804-1.02 1.716-1.255 3.62-.261 2.119-.967 3.621-2.979 6.169-1.177 1.502-1.359 1.77-1.648 2.387-.364.75-.47 1.179-.522 2.146-.052 1.018.052 1.662.34 2.627.262.859.549 1.42 1.254 2.52.602.966.967 1.69.967 1.958 0 .215.053.215.994 0 2.247-.537 4.102-1.447 5.122-2.574.628-.697.784-1.072.784-2.039 0-.615-.026-.75-.182-1.125-.263-.59-.759-1.074-1.83-1.824-1.412-.992-2.013-1.797-2.169-2.87-.131-.911.026-1.528.81-3.217.81-1.744 1.02-2.468 1.15-4.238.079-1.126.208-1.582.523-1.93.339-.376.627-.511 1.436-.618 1.333-.188 2.196-.536 2.876-1.207.601-.563.862-1.125.888-1.957l.026-.617-.339-.375C95.094 31.201 78.081 12 78.001 12c-.026 0 .393.51.889 1.154zm8.023 38.134a1.122 1.122 0 00-.339-1.474c-.444-.295-1.123-.162-1.123.24 0 .108.052.215.209.268.235.135.26.269.078.564-.184.295-.184.563.052.75.366.295.862.135 1.123-.348zM97.499 37.181c-.628.187-1.23.886-1.41 1.582-.106.429-.054 1.208.129 1.448.287.376.55.483 1.28.483 1.438 0 2.667-.643 2.798-1.422.13-.644-.418-1.529-1.177-1.93-.393-.214-1.202-.296-1.62-.16zm1.672 1.34c.209-.321.131-.67-.261-.911-.706-.455-1.778-.08-1.778.617 0 .348.55.723 1.072.723.34 0 .811-.213.967-.428z" clip-rule="evenodd"></path><path stroke="#413F7C" d="M143.5 -0.5H226.5V82.5H143.5z"></path><path stroke="#413F7C" d="M226.5 -0.5H309.5V82.5H226.5z"></path><path fill="#413F7C" d="M227 58c.012 13.25 10.751 23.988 24 24h-24V58zM309 58c-.012 13.25-10.751 23.988-24 24h24V58zM309 24c-.012-13.25-10.751-23.988-24-24h24v24zM227 24c.012-13.25 10.751-23.988 24-24h-24v24z"></path><rect width="56" height="56" x="240" y="13" fill="#685EA1" rx="28"></rect><path fill="#867CBE" d="M281.851 54.239L270.78 28.022a2.914 2.914 0 00-1.057-1.446 3.014 3.014 0 00-1.718-.576h-.986c-.62.013-1.22.214-1.718.577a2.912 2.912 0 00-1.058 1.445l-4.819 11.423h-3.638a2.012 2.012 0 00-1.399.568 1.928 1.928 0 00-.584 1.37v.025a1.93 1.93 0 00.585 1.37c.371.363.873.57 1.398.574h1.95l-4.597 10.887c-.089.237-.136.49-.138.742a2.088 2.088 0 00.54 1.467 1.918 1.918 0 001.47.548 1.98 1.98 0 001.141-.367c.351-.255.625-.599.792-.993l5.064-12.295h3.514a2.022 2.022 0 001.396-.576c.371-.363.58-.855.582-1.369v-.052a1.93 1.93 0 00-.583-1.365 2.015 2.015 0 00-1.395-.572h-1.879l3.883-9.43 10.529 25.658c.173.391.446.732.792.99.331.237.729.366 1.139.37.271.015.543-.026.797-.122a1.9 1.9 0 00.673-.434 2.008 2.008 0 00.542-1.46 1.676 1.676 0 00-.147-.74z"></path><path stroke="#413F7C" d="M392.5 -0.5H475.5V82.5H392.5z"></path><path fill="#44407E" d="M393 58c.012 13.25 10.751 23.988 24 24h-24V58z"></path><path fill="#413F7C" d="M475 24c-.012-13.25-10.751-23.988-24-24h24v24z"></path><path fill="#44407E" d="M444.694 33.303c-.775-.469-1.783-.469-2.635 0l-6.044 3.599-4.107 2.346-6.045 3.599c-.774.469-1.782.469-2.634 0l-4.805-2.816c-.775-.47-1.317-1.33-1.317-2.269v-5.554c0-.938.465-1.799 1.317-2.268l4.727-2.738c.775-.47 1.783-.47 2.635 0l4.727 2.738c.775.47 1.317 1.33 1.317 2.268v3.599l4.107-2.425v-3.599c0-.938-.465-1.799-1.317-2.268l-8.757-5.163c-.774-.47-1.782-.47-2.634 0l-8.912 5.163c-.852.47-1.317 1.33-1.317 2.268v10.404c0 .939.465 1.8 1.317 2.269l8.912 5.162c.775.47 1.782.47 2.634 0l6.045-3.52 4.107-2.425 6.044-3.52c.775-.47 1.782-.47 2.635 0l4.727 2.738c.775.47 1.317 1.33 1.317 2.269v5.554c0 .938-.465 1.799-1.317 2.268l-4.727 2.816c-.775.47-1.783.47-2.635 0l-4.727-2.738c-.775-.47-1.317-1.33-1.317-2.268v-3.599l-4.107 2.425v3.599c0 .938.465 1.799 1.317 2.268l8.912 5.163c.774.47 1.782.47 2.634 0l8.912-5.163c.775-.47 1.317-1.33 1.317-2.268V40.813c0-.939-.465-1.8-1.317-2.269l-8.989-5.24z"></path><path stroke="url(#paint2_linear_319_805)" d="M475.5 -0.5H558.5V82.5H475.5z"></path><path fill="#413F7C" d="M476 58c.012 13.25 10.751 23.988 24 24h-24V58z"></path><path stroke="url(#paint3_linear_319_805)" d="M-22.5 165.5H60.5V248.5H-22.5z"></path><path stroke="url(#paint4_linear_319_805)" d="M60.5 165.5H143.5V248.5H60.5z"></path><path fill="#44407E" d="M143 190c-.012-13.249-10.751-23.988-24-24h24v24zM61 190c.012-13.249 10.75-23.988 24-24H61v24z"></path><path stroke="url(#paint5_linear_319_805)" d="M143.5 165.5H226.5V248.5H143.5z"></path><path fill="#44407E" d="M226 190c-.012-13.249-10.751-23.988-24-24h24v24z"></path><path stroke="url(#paint6_linear_319_805)" d="M226.5 165.5H309.5V248.5H226.5z"></path><path stroke="url(#paint7_linear_319_805)" d="M309.5 165.5H392.5V248.5H309.5z"></path><path fill="#413F7C" d="M392 190c-.012-13.249-10.751-23.988-24-24h24v24z"></path><path stroke="url(#paint8_linear_319_805)" d="M392.5 165.5H475.5V248.5H392.5z"></path><path fill="#44407E" d="M475 190c-.012-13.249-10.751-23.988-24-24h24v24z"></path></g><g filter="url(#filter0_f_319_805)"><ellipse fill="#FFAA27" rx="109.902" ry="210.767" transform="matrix(.74023 .67235 -.70264 .71155 -105.553 528.863)"></ellipse></g><g filter="url(#filter1_f_319_805)"><ellipse cx="265" cy="417" fill="#6461FF" rx="217" ry="53"></ellipse></g><g filter="url(#filter2_f_319_805)"><ellipse cx="289.5" cy="417" fill="#FFCE83" fill-opacity="0.5" rx="130.5" ry="32"></ellipse></g><path fill="url(#paint9_radial_319_805)" d="M260.568 412c25.508 0 46.186-3.856 46.186-8.613s-20.678-8.613-46.186-8.613-46.187 3.856-46.187 8.613S235.06 412 260.568 412z"></path><path fill="url(#paint10_radial_319_805)" d="M188.128 412c25.508 0 46.186-3.856 46.186-8.613s-20.678-8.613-46.186-8.613-46.187 3.856-46.187 8.613S162.62 412 188.128 412z"></path><path fill="url(#paint11_radial_319_805)" d="M117.224 412c25.508 0 46.187-3.856 46.187-8.613s-20.679-8.613-46.187-8.613-46.186 3.856-46.186 8.613S91.716 412 117.224 412z"></path><path fill="url(#paint12_radial_319_805)" d="M331.079 412c25.508 0 46.186-3.856 46.186-8.613s-20.678-8.613-46.186-8.613-46.187 3.856-46.187 8.613S305.571 412 331.079 412z"></path><path fill="url(#paint13_radial_319_805)" d="M405.055 412c25.508 0 46.187-3.856 46.187-8.613s-20.679-8.613-46.187-8.613-46.186 3.856-46.186 8.613S379.547 412 405.055 412z"></path><path fill="url(#paint14_linear_319_805)" d="M132.111 360.866H83.244v38.013h48.867v-38.013z"></path><path fill="url(#paint15_linear_319_805)" fill-opacity="0.6" d="M139.653 368.444H90.785v38.906h48.868v-38.906z"></path><path fill="url(#paint16_linear_319_805)" fill-opacity="0.6" d="M83.244 360.866l7.541 7.578v38.906l-7.541-8.482v-38.002z"></path><path fill="#000" fill-opacity="0.2" d="M83.244 360.866l7.541 7.578v38.906l-7.541-8.482v-38.002z"></path><path fill="url(#paint17_linear_319_805)" d="M139.653 368.444l-7.553-7.578H83.244l7.541 7.578h48.868z"></path><path fill="#000" fill-opacity="0.2" d="M139.653 368.444l-7.553-7.578H83.244l7.541 7.578h48.868z"></path><path fill="url(#paint18_linear_319_805)" d="M205.358 360.866v38.002H156.49v-76.015h48.868v38.013z"></path><path fill="url(#paint19_linear_319_805)" fill-opacity="0.6" d="M212.899 368.444v38.906h-48.867v-77.801h48.867v38.895z"></path><path fill="url(#paint20_linear_319_805)" d="M212.899 329.549l-7.541-6.696H156.49l7.542 6.696h48.867z"></path><path fill="#000" fill-opacity="0.2" d="M212.899 329.549l-7.541-6.696H156.49l7.542 6.696h48.867z"></path><path fill="url(#paint21_linear_319_805)" fill-opacity="0.6" d="M164.032 407.35l-7.542-8.482v-76.015l7.542 6.696v77.801z"></path><path fill="#000" fill-opacity="0.2" d="M164.032 407.35l-7.542-8.482v-76.015l7.542 6.696v77.801z"></path><path fill="url(#paint22_linear_319_805)" d="M278.604 322.853v76.015h-48.856V284.85h48.856v38.003z"></path><path fill="url(#paint23_linear_319_805)" fill-opacity="0.6" d="M286.156 329.549v77.801h-48.867V290.643h48.867v38.906z"></path><path fill="url(#paint24_linear_319_805)" d="M286.156 290.643l-7.552-5.793h-48.856l7.541 5.793h48.867z"></path><path fill="#000" fill-opacity="0.2" d="M286.156 290.643l-7.552-5.793h-48.856l7.541 5.793h48.867z"></path><path fill="url(#paint25_linear_319_805)" fill-opacity="0.6" d="M237.289 407.35V290.643l-7.541-5.793v114.018l7.541 8.482z"></path><path fill="#000" fill-opacity="0.2" d="M237.289 407.35V290.643l-7.541-5.793v114.018l7.541 8.482z"></path><path fill="url(#paint26_linear_319_805)" d="M351.861 284.85v114.018h-48.867V246.837h48.867v38.013z"></path><path fill="url(#paint27_linear_319_805)" fill-opacity="0.6" d="M359.403 290.643V407.35h-48.867V251.748h48.867v38.895z"></path><path fill="url(#paint28_linear_319_805)" d="M359.403 251.748l-7.542-4.911h-48.867l7.542 4.911h48.867z"></path><path fill="#000" fill-opacity="0.2" d="M359.403 251.748l-7.542-4.911h-48.867l7.542 4.911h48.867z"></path><path fill="url(#paint29_linear_319_805)" fill-opacity="0.6" d="M310.536 407.35V251.748l-7.542-4.911v152.031l7.542 8.482z"></path><path fill="#000" fill-opacity="0.2" d="M310.536 407.35V251.748l-7.542-4.911v152.031l7.542 8.482z"></path><path fill="url(#paint30_linear_319_805)" d="M425.108 208.835V398.868h-48.857V208.835h48.857z"></path><path fill="url(#paint31_linear_319_805)" fill-opacity="0.6" d="M432.66 212.842V407.35h-48.867V212.842h48.867z"></path><path fill="url(#paint32_linear_319_805)" d="M432.66 212.842l-7.552-4.007h-48.857l7.542 4.007h48.867z"></path><path fill="#000" fill-opacity="0.2" d="M432.66 212.842l-7.552-4.007h-48.857l7.542 4.007h48.867z"></path><path fill="url(#paint33_linear_319_805)" fill-opacity="0.6" d="M383.793 212.842V407.35l-7.542-8.482V208.835l7.542 4.007z"></path><path fill="#000" fill-opacity="0.2" d="M383.793 212.842V407.35l-7.542-8.482V208.835l7.542 4.007z"></path><path fill="url(#paint34_linear_319_805)" d="M187.663 264.111c5.077-7.095 3.924-15.693 11.681-17.783 7.756-2.09 5.755-9.773 2.77-26.132-2.646-14.506 13.738-28.775 30.27-20.392 16.531 8.383 11.386 23.567 11.386 23.567s-5.552 18.291-14.27 24.742c0 0-8.774 6.575-16.644 7.468-7.87.892-6.558 23.42-30.813 24.618 0 0-14.733 6.507-11.624-1.593 3.121-8.101 7.067-14.348 9.193-14.439 2.137-.09 5.292.35 6.728.283 1.447-.057 1.323-.351 1.323-.351v.012z"></path><path fill="url(#paint35_linear_319_805)" d="M282.826 198.855s7.677 9.908 20.274 4.519c0 0 1.3 5.039-.701 6.123-2.002 1.085-9.826 3.604-10.731 3.525-.905-.079-3.573 11.411-1.866 15.083 1.708 3.671 19.46-9.683 24.752-13.705 5.292-4.022.701-16.178.927-19.454.226-3.288-4.941-15.987-17.062-23.488-12.122-7.502-27.579.022-29.264 10.687-1.685 10.665 13.671 16.71 13.671 16.71z"></path><path fill="url(#paint36_linear_319_805)" d="M161.577 214.016a29.941 29.941 0 01-5.19-.09c-6.909-.723-11.545-3.548-11.737-3.661a1.369 1.369 0 111.447-2.327c.045.023 4.376 2.644 10.697 3.288 8.413.847 16.226-2.034 23.214-8.575 9.532-8.903 18.103-9.784 23.621-8.959 6.027.903 9.747 3.954 9.905 4.078.577.486.656 1.345.181 1.932a1.376 1.376 0 01-1.922.181c-.057-.045-3.392-2.746-8.695-3.502-7.113-1.017-14.248 1.762-21.213 8.269-7.191 6.723-14.428 8.971-20.297 9.378l-.011-.012z"></path><path fill="url(#paint37_linear_319_805)" d="M344.089 151.314s12.936 4.835 16.678 8.778c3.743 3.943 4.659 12.416 3.415 14.303-5.167 7.863-6.321 6.959-13.218 15.06-5.1 5.988-9.34 12.269-11.466 13.569-4.692 2.869-11.873-5.887-9.464-12.677 2.408-6.789-2.341-9.433.034-15.816l14.021-23.229v.012z"></path><path fill="url(#paint38_linear_319_805)" d="M330.068 174.542c-2.465-1.729-8.628 2.011-8.628 2.011s-14.541 17.862-30.247 30.707c-15.706 12.846-54.513 29.465-82.442 23.76 0 0-17.956-21.602 21.258-38.82 30.089-13.207 18.657-22.855 28.992-35.915 10.335-13.06 53.393-11.151 53.393-11.151s18.341.621 31.684 6.18l-14.022 23.228h.012z"></path><g style="mix-blend-mode: multiply;"><path fill="#180D65" fill-opacity="0.06" d="M249.582 220.648c4.5-18.878-9.295-26.064-9.295-26.064 24.583-13.478 12.597-27.86 26.686-39.847 5.246-4.463 14.812-7.298 24.797-9.106-12.585 1.028-27.285 3.74-32.769 10.665-10.335 13.06 1.097 22.709-28.992 35.916-39.214 17.217-21.258 38.819-21.258 38.819 12.212 2.485 26.493.723 40.006-3.141-.034-2.237.203-4.655.825-7.253v.011z" style="mix-blend-mode: overlay;"></path></g><path fill="#C2CBD3" fill-opacity="0.2" d="M305.949 183.897c-5.755 10.676-16.384 22.471-22.513 28.843 2.963-1.853 5.575-3.695 7.746-5.48 15.706-12.845 30.247-30.707 30.247-30.707s6.162-3.74 8.627-2.011l4.897-8.1c-8.865-.238-22.344 5.084-29.004 17.455z"></path><path fill="url(#paint39_linear_319_805)" d="M192.231 270.257c4.455-8.123 2.16-17.037 10.075-20.223 7.915-3.186 4.84-11.026-.373-27.905-4.625-14.97 10.855-32.075 29.342-25.318 18.488 6.756 14.971 23.408 14.971 23.408s-3.55 19.986-11.929 27.895c0 0-8.413 8.044-16.61 9.976-8.187 1.931-3.958 25.521-29.388 29.837 0 0-14.722 8.722-12.45-.215 2.262-8.936 5.643-16.02 7.87-16.381 2.228-.362 5.62-.305 7.135-.543 1.516-.237 1.346-.531 1.346-.531h.011z"></path><g style="mix-blend-mode: multiply;"><path fill="#180D65" fill-opacity="0.07" d="M200.406 262.382c.396-12.382 11.59-5.197 14.587-14.981 2.996-9.784-12.992-31.351-4.399-43.541 4.32-6.124 10.414-8.01 15.412-8.372-16.034-2.158-28.257 13.105-24.073 26.629 5.213 16.879 8.288 24.719.373 27.905s-5.62 12.1-10.075 20.223c0 0 .17.283-1.345.531-1.516.249-4.896.181-7.135.543-1.357.214-3.132 2.914-4.817 6.982 1.741-1.39 3.776-2.508 6.083-2.949 8.39-1.593 14.994-.599 15.389-12.981v.011z" style="mix-blend-mode: overlay;"></path></g><path fill="#C2CBD3" d="M204.002 275.973c-7.598 7.785-14.79 6.587-14.79 6.587-4.059 3.401-9.928 5.095-13.49 5.852-1.322 7.762 12.597-.486 12.597-.486 25.419-4.315 21.19-27.905 29.388-29.837 8.186-1.932 16.61-9.976 16.61-9.976.701-.655 1.357-1.401 1.99-2.203-5.145 4.293-11.635 8.812-17.311 10.089-11.59 2.598-7.395 12.179-14.994 19.974z"></path><path fill="url(#paint40_linear_319_805)" d="M293.341 198.64s6.027 12.043 20.433 8.982c0 0 .316 5.581-2.013 6.304-2.329.723-11.115 1.751-12.053 1.48-.939-.271-6.152 11.286-5.111 15.512 1.029 4.225 22.535-6.158 28.946-9.298 6.412-3.141 4.116-16.902 5.043-20.325.928-3.412-2.159-17.591-13.093-28.312-15.152-14.879-50.556-18.969-47.288 4.282 2.669 18.991 25.136 21.364 25.136 21.364v.011z"></path><g style="mix-blend-mode: multiply;"><path fill="#180D65" fill-opacity="0.06" d="M317.144 204.47c-17.188.203-19.189-11.185-19.189-11.185s-26.584-5.389-25.781-19.376c.351-6.157 3.268-9.987 6.411-12.348-7.021 1.717-11.657 6.632-10.38 15.726 2.669 18.992 25.137 21.364 25.137 21.364s6.026 12.044 20.432 8.982c0 0 .317 5.581-2.013 6.304-2.329.723-11.115 1.751-12.053 1.48-.441-.135-1.843 2.395-3.087 5.536 3.448-1.322 7.745-2.248 12.54-2.508 11.397-.599 7.994-13.975 7.994-13.975h-.011z" style="mix-blend-mode: overlay;"></path></g><path fill="url(#paint41_linear_319_805)" d="M351.936 158.68s10.324-6.53 22.773-1.966c12.45 4.564 24.707 7.039 32.791.147 0 0-4.093 12.055-22.535 9.4-18.454-2.655-20.885-3.209-26.403-.463 0 0-1.899 2.53-6.049-1.255-3.845-3.502-.577-5.863-.577-5.863z"></path><path fill="#FBFBFF" d="M363.967 161.775c-7.497 2.102-10.64-1.05-6.897-3.897 2.193-1.672 8.152-2.26 12.698-2.452-10.132-1.616-17.832 3.254-17.832 3.254s-3.268 2.361.577 5.863c4.15 3.785 6.049 1.254 6.049 1.254 5.518-2.745 7.949-2.191 26.403.464 1.04.146 2.035.248 2.996.316-9.622-2.361-18.679-6.282-23.994-4.802z"></path><path fill="url(#paint42_radial_319_805)" d="M377.665 221.069c31.775 0 57.534-25.759 57.534-57.534 0-31.776-25.759-57.535-57.534-57.535-31.776 0-57.535 25.759-57.535 57.535 0 31.775 25.759 57.534 57.535 57.534z" opacity="0.8" style="mix-blend-mode: screen;"></path><g filter="url(#filter3_f_319_805)"><path fill="url(#paint43_linear_319_805)" d="M142.408 313.982c-3.388-3.512-5.277-8.794-3.824-13.576a9.638 9.638 0 012.861-4.465l1.807-1.588c4.65-4.066 12.398-2.831 17.311 2.777 4.914 5.599 5.132 13.44.482 17.514l-1.808 1.588c-2.379 2.106-5.694 2.768-8.773 2.205-3.079-.544-5.895-2.196-8.047-4.446l-.009-.009z"></path><path fill="url(#paint44_linear_319_805)" d="M160.018 313.083c2.444-2.259 3.134-5.798 2.435-8.966-.491-2.286-1.635-4.41-3.198-6.134-1.571-1.733-3.587-3.095-5.821-3.793-3.043-.971-6.54-.599-8.983 1.561.581-.527 1.208-1.044 1.898-1.416 2.752-1.534 6.185-1.316 8.992-.027 5.368 2.432 9.164 8.829 7.438 14.683a8.35 8.35 0 01-1.952 3.357c-.273.3-.691.645-.999.917.072-.064.136-.127.209-.182h-.019z"></path><path fill="url(#paint45_linear_319_805)" d="M161.027 296.712c4.913 5.6 5.131 13.44.481 17.515-4.65 4.065-12.398 2.831-17.311-2.777-4.914-5.608-5.132-13.44-.482-17.514 4.651-4.066 12.398-2.832 17.312 2.776zm-.727 16.126c4.014-3.512 3.833-10.29-.418-15.127-4.241-4.837-10.935-5.908-14.959-2.396-4.014 3.512-3.832 10.291.418 15.128 4.242 4.836 10.935 5.907 14.95 2.395"></path></g><g filter="url(#filter4_f_319_805)"><path fill="url(#paint46_linear_319_805)" d="M337.344 330.824a66.713 66.713 0 004.85-3.194c.445-.327.881-.653 1.317-.989 1.563-1.216 3.079-2.514 4.424-3.975.753-.835 1.48-1.724 1.97-2.749.227-.509.409-1.089.282-1.643a1.199 1.199 0 00-.136-.336l-2.852-4.9s-.018-.027-.027-.046c-.2-.363-.736-1.261-.763-1.315.127.245.181.517.172.807-2.398-1.216-9.8 1.107-17.692 5.699-7.893 4.592-13.57 9.883-13.688 12.56a1.457 1.457 0 01-.617-.554c.018.027.563.98.763 1.307 0 .018.018.036.027.054l2.852 4.901c.036.063.082.127.136.19.282.327.708.49 1.117.581.754.154 1.526.109 2.28.018 1.898-.254 3.742-.835 5.54-1.497a57.175 57.175 0 006.367-2.868 77.817 77.817 0 003.088-1.706c.2-.118.391-.227.59-.345z"></path><path fill="url(#paint47_linear_319_805)" d="M317.436 330.098c-.373-.989.517-2.232 1.089-3.003 1.617-2.042 3.67-3.694 5.759-5.237.299-.217.599-.426.899-.644 3.215-2.214 6.639-4.147 10.236-5.69 2.098-.871 4.25-1.669 6.512-1.978.945-.1 2.489-.227 3.061.69l-.763-1.307a1.312 1.312 0 00-.273-.318c-.753-.562-1.898-.463-2.788-.372-1.326.173-2.616.536-3.878.962-1.817.617-3.579 1.389-5.304 2.233a60.311 60.311 0 00-4.278 2.341 54.143 54.143 0 00-5.322 3.612c-1.354 1.052-2.662 2.168-3.824 3.43-.654.726-1.281 1.488-1.699 2.377-.227.509-.408 1.117-.154 1.643.009.027.027.045.036.073l.763 1.306s-.045-.09-.063-.136l-.009.018z"></path><path fill="url(#paint48_linear_319_805)" d="M346.39 311.677c1.326 2.268-4.722 8.258-13.514 13.367-8.783 5.109-16.984 7.414-18.31 5.136-1.327-2.268 4.722-8.258 13.514-13.367 8.783-5.109 16.984-7.414 18.31-5.136zm-29.654 17.251c1.145 1.96 8.229-.027 15.813-4.438 7.593-4.419 12.815-9.583 11.671-11.552-1.145-1.96-8.229.027-15.813 4.438-7.593 4.419-12.815 9.583-11.671 11.552z"></path></g><g filter="url(#filter5_f_319_805)" opacity="0.9"><path fill="url(#paint49_linear_319_805)" d="M388.754 142.364c1.153.318 2.325.599 3.506.817.336.063.663.118.999.172 1.217.182 2.443.309 3.669.291.7-.019 1.408-.073 2.071-.291.327-.118.663-.281.854-.572.036-.063.072-.136.091-.199l.98-3.367v-.027a23.1 23.1 0 00.273-.908.941.941 0 01-.291.418c-.472-1.588-4.677-3.92-10.099-5.509-5.423-1.588-10.227-1.878-11.481-.789a.888.888 0 01-.009-.508c0 .018-.2.671-.263.898 0 .009 0 .018-.009.036l-.981 3.367c-.009.046-.018.091-.027.145-.028.264.081.527.218.754.254.399.599.735.962 1.034.927.744 1.971 1.325 3.034 1.851 1.29.636 2.634 1.162 3.996 1.634.69.236 1.381.454 2.08.653.136.036.273.082.409.118l.018-.018z"></path><path fill="url(#paint50_linear_319_805)" d="M380.598 133.126c.282-.59 1.226-.717 1.807-.79 1.608-.145 3.225.073 4.805.354.227.046.445.082.672.136 2.371.5 4.696 1.216 6.912 2.169 1.28.572 2.561 1.198 3.66 2.078.445.382 1.163 1.017.999 1.67l.264-.898c.027-.082.036-.173.027-.254-.073-.581-.6-1.044-1.017-1.407-.636-.517-1.354-.944-2.08-1.325a27.518 27.518 0 00-3.988-1.679 34.78 34.78 0 00-2.152-.662 35.888 35.888 0 00-3.887-.853c-1.045-.163-2.108-.272-3.17-.254-.6.018-1.217.063-1.789.254-.318.118-.673.29-.8.626 0 .018-.009.027-.018.045l-.263.899s.018-.064.036-.091l-.018-.018z"></path><path fill="url(#paint51_linear_319_805)" d="M401.215 138.271c-.454 1.561-5.722 1.398-11.762-.363-6.04-1.76-10.563-4.455-10.108-6.025.454-1.561 5.721-1.398 11.761.363 6.04 1.76 10.563 4.455 10.109 6.025zm-20.381-5.953c-.391 1.352 3.515 3.675 8.737 5.2 5.214 1.525 9.764 1.661 10.164.318.39-1.352-3.515-3.676-8.738-5.2-5.213-1.525-9.763-1.661-10.163-.318z"></path></g><g filter="url(#filter6_f_319_805)" opacity="0.9"><path fill="url(#paint52_linear_319_805)" d="M209.282 170.664a36.331 36.331 0 01-2.407-1.815 18.962 18.962 0 01-.645-.553c-.772-.681-1.508-1.407-2.153-2.206-.363-.462-.708-.943-.926-1.488-.1-.272-.173-.572-.091-.862a.605.605 0 01.082-.172l1.644-2.441.018-.019c.118-.181.418-.626.436-.653a.884.884 0 00-.118.408c1.281-.544 5.041.908 8.973 3.549 3.933 2.64 6.694 5.571 6.667 6.969a.74.74 0 00.336-.263c-.009.018-.327.49-.436.653l-.018.027L219 174.24s-.046.063-.082.09c-.154.164-.381.236-.599.263-.391.055-.79 0-1.181-.063-.981-.191-1.916-.554-2.825-.962a28.407 28.407 0 01-3.197-1.697 41.434 41.434 0 01-1.544-.989c-.1-.064-.2-.136-.29-.2v-.018z"></path><path fill="url(#paint53_linear_319_805)" d="M219.617 170.954c.228-.499-.19-1.17-.463-1.588-.772-1.116-1.78-2.032-2.806-2.904l-.445-.363a29.959 29.959 0 00-5.114-3.285c-1.053-.526-2.143-1.007-3.306-1.243-.481-.082-1.28-.199-1.607.254l.436-.653a.492.492 0 01.154-.154c.409-.264.999-.182 1.453-.1.681.136 1.335.363 1.971.626.918.381 1.808.844 2.67 1.334.191.109.373.218.554.327.536.326 1.063.671 1.581 1.025a28.896 28.896 0 012.634 2.051c.663.59 1.308 1.216 1.862 1.906.317.399.617.816.799 1.288.1.273.172.59.027.853a.07.07 0 01-.018.037l-.436.653s.027-.045.036-.073l.018.009z"></path><path fill="url(#paint54_linear_319_805)" d="M214.549 163.722c4.378 2.94 7.312 6.243 6.549 7.378-.763 1.134-4.932-.336-9.31-3.276-4.377-2.941-7.311-6.244-6.548-7.378.763-1.134 4.932.336 9.309 3.276zm5.468 6.652c.654-.98-1.871-3.83-5.658-6.371-3.779-2.541-7.384-3.811-8.038-2.831-.654.98 1.871 3.829 5.658 6.37 3.778 2.541 7.384 3.812 8.038 2.832z"></path></g><g filter="url(#filter7_f_319_805)"><path fill="url(#paint55_linear_319_805)" d="M87.35 275.405c3.26-.644 6.376-2.859 7.43-6.089.371-1.162.444-2.423.144-3.603l-.39-1.588c-1.008-4.084-5.822-6.407-10.745-5.191-4.922 1.216-8.101 5.509-7.093 9.583l.39 1.588c.51 2.097 2.099 3.766 4.042 4.647 1.935.889 4.15 1.07 6.222.653z"></path><path fill="url(#paint56_linear_319_805)" d="M77.868 268.045c-.482-2.214.517-4.455 2.143-5.953 1.163-1.089 2.634-1.824 4.178-2.178 1.553-.363 3.206-.326 4.732.155 2.07.644 3.878 2.205 4.405 4.364-.118-.517-.263-1.052-.509-1.524-.935-1.924-2.942-3.14-5.004-3.512-3.942-.735-8.556 1.361-9.873 5.3a5.619 5.619 0 00-.218 2.631c.037.273.137.636.2.899-.018-.064-.027-.118-.045-.182h-.01z"></path><path fill="url(#paint57_linear_319_805)" d="M94.434 263.708c1.008 4.083-2.17 8.376-7.093 9.583-4.923 1.216-9.737-1.108-10.745-5.191-1.008-4.084 2.17-8.376 7.093-9.583 4.923-1.216 9.737 1.107 10.745 5.191zm-16.62 4.101c.871 3.521 5.022 5.527 9.281 4.483 4.251-1.052 7.003-4.755 6.131-8.285-.872-3.53-5.023-5.536-9.282-4.483-4.25 1.053-7.003 4.755-6.13 8.285z"></path></g><g opacity="0.3"><g filter="url(#filter8_f_319_805)"><ellipse cx="212.787" cy="347.591" fill="#FFAA27" fill-opacity="0.24" rx="183.768" ry="202.836" transform="rotate(43.443 212.787 347.591)"></ellipse></g><g filter="url(#filter9_f_319_805)"><ellipse cx="190.637" cy="254.522" fill="url(#paint58_linear_319_805)" fill-opacity="0.22" rx="154.635" ry="177.933" transform="rotate(43.443 190.637 254.522)"></ellipse></g></g><path fill="url(#paint59_linear_319_805)" d="M398.25 429.645c-4.912-2.833-11.596-4.017-17.994-3.558 4.614.331 9.079 1.515 12.623 3.558 8.456 4.876 8.455 12.782 0 17.659-3.544 2.044-8.009 3.227-12.625 3.559 6.398.458 13.084-.726 17.997-3.559 8.455-4.877 8.455-12.783-.001-17.659z" opacity="0.5" style="mix-blend-mode: multiply;"></path><g filter="url(#filter10_dd_319_805)"><path fill="#A59BA5" d="M394.144 429.667c-8.497-4.9-22.274-4.9-30.771 0-8.498 4.901-8.497 12.846 0 17.746 8.497 4.901 22.274 4.901 30.769 0 8.497-4.9 8.498-12.845 0-17.747l.002.001zm-2.539 16.283c-7.095 4.092-18.599 4.092-25.693 0-7.095-4.092-7.095-10.727 0-14.818 7.095-4.091 18.599-4.091 25.694 0 7.095 4.091 7.095 10.726 0 14.818h-.001z"></path><path fill="#4F4DB8" d="M365.911 426.139c7.095-4.092 18.599-4.092 25.694 0 4.657 2.686 6.258 6.467 4.8 9.906-.762-1.8-2.362-3.507-4.8-4.913-7.095-4.091-18.599-4.091-25.694 0-2.437 1.406-4.038 3.113-4.8 4.913-1.457-3.439.144-7.22 4.8-9.905v-.001z"></path><path fill="#686A6D" d="M391.643 427.696c-7.094-4.091-18.596-4.092-25.69 0-7.094 4.091-7.094 10.725 0 14.816 7.095 4.091 18.595 4.091 25.69 0 7.094-4.092 7.094-10.725 0-14.816z"></path><path fill="#A59BA5" d="M367.778 428.428c1.546-.984 4.116-1.095 5.742-.249 1.624.845 1.688 2.328.143 3.311-1.546.983-4.116 1.094-5.742.249-1.625-.846-1.688-2.329-.143-3.311zM375.569 426.626c.64-.406 1.704-.453 2.377-.102.672.35.699.964.06 1.37-.64.407-1.704.453-2.377.103-.673-.35-.699-.964-.059-1.371h-.001z" opacity="0.3"></path><path fill="url(#paint60_linear_319_805)" d="M391.643 428.437c-7.093-4.091-18.596-4.092-25.69 0-3.383 1.952-5.149 4.481-5.305 7.037-.171-2.803 1.594-5.638 5.305-7.778 7.094-4.092 18.597-4.091 25.69 0 3.711 2.14 5.477 4.975 5.306 7.778-.156-2.556-1.922-5.085-5.306-7.037z"></path><path fill="url(#paint61_linear_319_805)" d="M394.144 424.675c-8.497-4.9-22.274-4.9-30.771 0-8.498 4.9-8.497 12.845 0 17.745 8.497 4.901 22.274 4.901 30.769 0 8.498-4.9 8.498-12.845 0-17.746l.002.001zm-2.539 16.283c-7.095 4.092-18.598 4.092-25.693 0-7.095-4.092-7.095-10.727 0-14.819 7.095-4.091 18.599-4.091 25.694 0 7.095 4.093 7.095 10.727 0 14.819h-.001z"></path><path fill="url(#paint62_linear_319_805)" d="M363.373 442.42c8.497 4.901 22.274 4.901 30.769 0 4.194-2.418 6.315-5.579 6.368-8.749v4.744c.056 3.252-2.065 6.515-6.368 8.998-8.496 4.9-22.273 4.9-30.769 0-4.304-2.481-6.423-5.744-6.367-8.996v-4.723c.063 3.162 2.183 6.313 6.367 8.726z"></path><path fill="url(#paint63_linear_319_805)" d="M394.143 443.088c.536-.309 1.038-.63 1.506-.962l3.66 2.111-3.172 1.829-3.659-2.111c.574-.27 1.131-.558 1.666-.868l-.001.001z"></path><path fill="url(#paint64_linear_319_805)" d="M396.136 449.725l-3.659-2.111v-3.658l3.659 2.111v3.658z"></path><path fill="url(#paint65_linear_319_805)" d="M394.759 448.69c0-1.888 1.326-4.183 2.962-5.127.852-.491 1.616-.517 2.157-.165l.002-.003 21.095 12.166-4.032 7.315-21.096-12.166c-.664-.244-1.088-.952-1.088-2.02z"></path><path fill="url(#paint66_linear_319_805)" d="M397.479 451.647l1.032.595c-.448-.34-.721-.958-.721-1.81 0-1.889 1.327-4.183 2.964-5.127.851-.491 1.615-.516 2.156-.165l-1.398-.806-.001.003c-.54-.351-1.305-.325-2.157.165-1.637.944-2.964 3.239-2.964 5.127 0 1.068.425 1.775 1.089 2.02v-.002z" style="mix-blend-mode: multiply;"></path><path fill="url(#paint67_linear_319_805)" d="M416.453 462.594a4.18 4.18 0 006.547-3.446c0-1.58-.879-2.956-2.174-3.665-.529-.26-1.232-.202-2.01.246-1.636.944-2.963 3.24-2.963 5.128 0 .821.251 1.429.67 1.778l-.07-.04v-.001z"></path></g><path fill="url(#paint68_radial_319_805)" d="M400.991 300H357v133.085h.028c-.15 3.33 1.978 6.687 6.421 9.225 8.586 4.92 22.516 4.92 31.111 0 4.293-2.464 6.44-5.682 6.44-8.909V300h-.009z" opacity="0.3" style="mix-blend-mode: lighten;"></path><path fill="url(#paint69_linear_319_805)" d="M0 0H559V60H0z"></path><path fill="url(#paint70_linear_319_805)" d="M515 83H557V164H515z"></path></g><defs><filter id="filter0_f_319_805" width="825.998" height="822.448" x="-518.552" y="117.639" color-interpolation-filters="sRGB" filterUnits="userSpaceOnUse"><feFlood flood-opacity="0" result="BackgroundImageFix"></feFlood><feBlend in="SourceGraphic" in2="BackgroundImageFix" result="shape"></feBlend><feGaussianBlur result="effect1_foregroundBlur_319_805" stdDeviation="122"></feGaussianBlur></filter><filter id="filter1_f_319_805" width="622" height="294" x="-46" y="270" color-interpolation-filters="sRGB" filterUnits="userSpaceOnUse"><feFlood flood-opacity="0" result="BackgroundImageFix"></feFlood><feBlend in="SourceGraphic" in2="BackgroundImageFix" result="shape"></feBlend><feGaussianBlur result="effect1_foregroundBlur_319_805" stdDeviation="47"></feGaussianBlur></filter><filter id="filter2_f_319_805" width="449" height="252" x="65" y="291" color-interpolation-filters="sRGB" filterUnits="userSpaceOnUse"><feFlood flood-opacity="0" result="BackgroundImageFix"></feFlood><feBlend in="SourceGraphic" in2="BackgroundImageFix" result="shape"></feBlend><feGaussianBlur result="effect1_foregroundBlur_319_805" stdDeviation="47"></feGaussianBlur></filter><filter id="filter3_f_319_805" width="32.769" height="33.087" x="135.089" y="288.542" color-interpolation-filters="sRGB" filterUnits="userSpaceOnUse"><feFlood flood-opacity="0" result="BackgroundImageFix"></feFlood><feBlend in="SourceGraphic" in2="BackgroundImageFix" result="shape"></feBlend><feGaussianBlur result="effect1_foregroundBlur_319_805" stdDeviation="1.5"></feGaussianBlur></filter><filter id="filter4_f_319_805" width="43.846" height="34.525" x="310.383" y="306.798" color-interpolation-filters="sRGB" filterUnits="userSpaceOnUse"><feFlood flood-opacity="0" result="BackgroundImageFix"></feFlood><feBlend in="SourceGraphic" in2="BackgroundImageFix" result="shape"></feBlend><feGaussianBlur result="effect1_foregroundBlur_319_805" stdDeviation="2"></feGaussianBlur></filter><filter id="filter5_f_319_805" width="29.214" height="18.834" x="375.032" y="127.811" color-interpolation-filters="sRGB" filterUnits="userSpaceOnUse"><feFlood flood-opacity="0" result="BackgroundImageFix"></feFlood><feBlend in="SourceGraphic" in2="BackgroundImageFix" result="shape"></feBlend><feGaussianBlur result="effect1_foregroundBlur_319_805" stdDeviation="1.5"></feGaussianBlur></filter><filter id="filter6_f_319_805" width="30.194" height="26.553" x="197.025" y="154.063" color-interpolation-filters="sRGB" filterUnits="userSpaceOnUse"><feFlood flood-opacity="0" result="BackgroundImageFix"></feFlood><feBlend in="SourceGraphic" in2="BackgroundImageFix" result="shape"></feBlend><feGaussianBlur result="effect1_foregroundBlur_319_805" stdDeviation="3"></feGaussianBlur></filter><filter id="filter7_f_319_805" width="24.701" height="23.425" x="73.409" y="255.194" color-interpolation-filters="sRGB" filterUnits="userSpaceOnUse"><feFlood flood-opacity="0" result="BackgroundImageFix"></feFlood><feBlend in="SourceGraphic" in2="BackgroundImageFix" result="shape"></feBlend><feGaussianBlur result="effect1_foregroundBlur_319_805" stdDeviation="1.5"></feGaussianBlur></filter><filter id="filter8_f_319_805" width="874.038" height="876.114" x="-224.232" y="-90.466" color-interpolation-filters="sRGB" filterUnits="userSpaceOnUse"><feFlood flood-opacity="0" result="BackgroundImageFix"></feFlood><feBlend in="SourceGraphic" in2="BackgroundImageFix" result="shape"></feBlend><feGaussianBlur result="effect1_foregroundBlur_319_805" stdDeviation="122"></feGaussianBlur></filter><filter id="filter9_f_319_805" width="600.12" height="602.654" x="-109.423" y="-46.804" color-interpolation-filters="sRGB" filterUnits="userSpaceOnUse"><feFlood flood-opacity="0" result="BackgroundImageFix"></feFlood><feBlend in="SourceGraphic" in2="BackgroundImageFix" result="shape"></feBlend><feGaussianBlur result="effect1_foregroundBlur_319_805" stdDeviation="67"></feGaussianBlur></filter><filter id="filter10_dd_319_805" width="74" height="50.326" x="353" y="420" color-interpolation-filters="sRGB" filterUnits="userSpaceOnUse"><feFlood flood-opacity="0" result="BackgroundImageFix"></feFlood><feColorMatrix in="SourceAlpha" result="hardAlpha" values="0 0 0 0 0 0 0 0 0 0 0 0 0 0 0 0 0 0 127 0"></feColorMatrix><feOffset dy="3"></feOffset><feGaussianBlur stdDeviation="2"></feGaussianBlur><feComposite in2="hardAlpha" operator="out"></feComposite><feColorMatrix values="0 0 0 0 0 0 0 0 0 0 0 0 0 0 0 0 0 0 0.35 0"></feColorMatrix><feBlend in2="BackgroundImageFix" result="effect1_dropShadow_319_805"></feBlend><feColorMatrix in="SourceAlpha" result="hardAlpha" values="0 0 0 0 0 0 0 0 0 0 0 0 0 0 0 0 0 0 127 0"></feColorMatrix><feOffset dy="1"></feOffset><feGaussianBlur stdDeviation="0.5"></feGaussianBlur><feComposite in2="hardAlpha" operator="out"></feComposite><feColorMatrix values="0 0 0 0 0.0931373 0 0 0 0 0.0527778 0 0 0 0 0.395833 0 0 0 0.65 0"></feColorMatrix><feBlend in2="effect1_dropShadow_319_805" result="effect2_dropShadow_319_805"></feBlend><feBlend in="SourceGraphic" in2="effect2_dropShadow_319_805" result="shape"></feBlend></filter><linearGradient id="paint0_linear_319_805" x1="6.851" x2="573.384" y1="229.938" y2="234.848" gradientUnits="userSpaceOnUse"><stop offset="0.539" stop-color="#4C38B1"></stop><stop offset="1" stop-color="#2B1F35" stop-opacity="0"></stop></linearGradient><linearGradient id="paint1_linear_319_805" x1="496" x2="559" y1="154.5" y2="166" gradientUnits="userSpaceOnUse"><stop stop-color="#413F7C"></stop><stop offset="1" stop-color="#413F7C" stop-opacity="0"></stop></linearGradient><linearGradient id="paint2_linear_319_805" x1="496" x2="559" y1="71.5" y2="83" gradientUnits="userSpaceOnUse"><stop stop-color="#413F7C"></stop><stop offset="1" stop-color="#413F7C" stop-opacity="0"></stop></linearGradient><linearGradient id="paint3_linear_319_805" x1="19" x2="19" y1="165" y2="249" gradientUnits="userSpaceOnUse"><stop stop-color="#413F7C"></stop><stop offset="1" stop-color="#413F7C" stop-opacity="0"></stop></linearGradient><linearGradient id="paint4_linear_319_805" x1="102" x2="102" y1="165" y2="249" gradientUnits="userSpaceOnUse"><stop stop-color="#413F7C"></stop><stop offset="1" stop-color="#413F7C" stop-opacity="0"></stop></linearGradient><linearGradient id="paint5_linear_319_805" x1="185" x2="185" y1="165" y2="249" gradientUnits="userSpaceOnUse"><stop stop-color="#413F7C"></stop><stop offset="1" stop-color="#413F7C" stop-opacity="0"></stop></linearGradient><linearGradient id="paint6_linear_319_805" x1="268" x2="268" y1="165" y2="249" gradientUnits="userSpaceOnUse"><stop stop-color="#413F7C"></stop><stop offset="1" stop-color="#413F7C" stop-opacity="0"></stop></linearGradient><linearGradient id="paint7_linear_319_805" x1="351" x2="351" y1="165" y2="249" gradientUnits="userSpaceOnUse"><stop stop-color="#413F7C"></stop><stop offset="1" stop-color="#413F7C" stop-opacity="0"></stop></linearGradient><linearGradient id="paint8_linear_319_805" x1="434" x2="434" y1="165" y2="249" gradientUnits="userSpaceOnUse"><stop stop-color="#413F7C"></stop><stop offset="1" stop-color="#413F7C" stop-opacity="0"></stop></linearGradient><radialGradient id="paint9_radial_319_805" cx="0" cy="0" r="1" gradientTransform="matrix(0 8.61313 -46.1864 0 260.568 403.387)" gradientUnits="userSpaceOnUse"><stop></stop><stop offset="1" stop-opacity="0"></stop></radialGradient><radialGradient id="paint10_radial_319_805" cx="0" cy="0" r="1" gradientTransform="matrix(0 8.61313 -46.1864 0 188.128 403.387)" gradientUnits="userSpaceOnUse"><stop></stop><stop offset="1" stop-opacity="0"></stop></radialGradient><radialGradient id="paint11_radial_319_805" cx="0" cy="0" r="1" gradientTransform="matrix(0 8.61313 -46.1863 0 117.224 403.387)" gradientUnits="userSpaceOnUse"><stop></stop><stop offset="1" stop-opacity="0"></stop></radialGradient><radialGradient id="paint12_radial_319_805" cx="0" cy="0" r="1" gradientTransform="matrix(0 8.61313 -46.1863 0 331.079 403.387)" gradientUnits="userSpaceOnUse"><stop></stop><stop offset="1" stop-opacity="0"></stop></radialGradient><radialGradient id="paint13_radial_319_805" cx="0" cy="0" r="1" gradientTransform="matrix(0 8.61313 -46.1863 0 405.055 403.387)" gradientUnits="userSpaceOnUse"><stop></stop><stop offset="1" stop-opacity="0"></stop></radialGradient><linearGradient id="paint14_linear_319_805" x1="107.672" x2="107.672" y1="398.879" y2="360.866" gradientUnits="userSpaceOnUse"><stop stop-color="#343467"></stop><stop offset="0.54" stop-color="#FFAA27"></stop><stop offset="1" stop-color="#6461FF"></stop></linearGradient><linearGradient id="paint15_linear_319_805" x1="115.208" x2="115.208" y1="407.35" y2="368.444" gradientUnits="userSpaceOnUse"><stop stop-color="#1B18B3"></stop><stop offset="0.54" stop-color="#fff" stop-opacity="0.35"></stop><stop offset="1" stop-color="#fff"></stop></linearGradient><linearGradient id="paint16_linear_319_805" x1="87.013" x2="87.013" y1="407.35" y2="360.866" gradientUnits="userSpaceOnUse"><stop stop-color="#1B18B3"></stop><stop offset="0.54" stop-color="#fff" stop-opacity="0.35"></stop><stop offset="1" stop-color="#fff"></stop></linearGradient><linearGradient id="paint17_linear_319_805" x1="114.437" x2="119.843" y1="380.809" y2="356.45" gradientUnits="userSpaceOnUse"><stop offset="0.088" stop-color="#B5A48B"></stop><stop offset="1" stop-color="#FFF1DC"></stop></linearGradient><linearGradient id="paint18_linear_319_805" x1="180.918" x2="180.918" y1="398.868" y2="322.853" gradientUnits="userSpaceOnUse"><stop stop-color="#343467"></stop><stop offset="0.54" stop-color="#FFAA27"></stop><stop offset="1" stop-color="#6461FF"></stop></linearGradient><linearGradient id="paint19_linear_319_805" x1="188.455" x2="188.455" y1="407.35" y2="329.549" gradientUnits="userSpaceOnUse"><stop stop-color="#1B18B3"></stop><stop offset="0.54" stop-color="#fff" stop-opacity="0.35"></stop><stop offset="1" stop-color="#fff"></stop></linearGradient><linearGradient id="paint20_linear_319_805" x1="187.683" x2="191.948" y1="340.474" y2="318.727" gradientUnits="userSpaceOnUse"><stop offset="0.088" stop-color="#B5A48B"></stop><stop offset="1" stop-color="#FFF1DC"></stop></linearGradient><linearGradient id="paint21_linear_319_805" x1="160.259" x2="160.259" y1="407.35" y2="322.853" gradientUnits="userSpaceOnUse"><stop stop-color="#1B18B3"></stop><stop offset="0.54" stop-color="#fff" stop-opacity="0.35"></stop><stop offset="1" stop-color="#fff"></stop></linearGradient><linearGradient id="paint22_linear_319_805" x1="254.17" x2="254.17" y1="398.868" y2="284.85" gradientUnits="userSpaceOnUse"><stop stop-color="#343467"></stop><stop offset="0.54" stop-color="#FFAA27"></stop><stop offset="1" stop-color="#6461FF"></stop></linearGradient><linearGradient id="paint23_linear_319_805" x1="261.712" x2="261.712" y1="407.35" y2="290.643" gradientUnits="userSpaceOnUse"><stop stop-color="#1B18B3"></stop><stop offset="0.54" stop-color="#fff" stop-opacity="0.35"></stop><stop offset="1" stop-color="#fff"></stop></linearGradient><linearGradient id="paint24_linear_319_805" x1="260.941" x2="264.162" y1="300.094" y2="281.105" gradientUnits="userSpaceOnUse"><stop offset="0.088" stop-color="#B5A48B"></stop><stop offset="1" stop-color="#FFF1DC"></stop></linearGradient><linearGradient id="paint25_linear_319_805" x1="233.517" x2="233.517" y1="407.35" y2="284.85" gradientUnits="userSpaceOnUse"><stop stop-color="#1B18B3"></stop><stop offset="0.54" stop-color="#fff" stop-opacity="0.35"></stop><stop offset="1" stop-color="#fff"></stop></linearGradient><linearGradient id="paint26_linear_319_805" x1="327.422" x2="327.422" y1="398.868" y2="246.837" gradientUnits="userSpaceOnUse"><stop stop-color="#343467"></stop><stop offset="0.54" stop-color="#FFAA27"></stop><stop offset="1" stop-color="#6461FF"></stop></linearGradient><linearGradient id="paint27_linear_319_805" x1="334.958" x2="334.958" y1="407.35" y2="251.748" gradientUnits="userSpaceOnUse"><stop stop-color="#1B18B3"></stop><stop offset="0.54" stop-color="#fff" stop-opacity="0.35"></stop><stop offset="1" stop-color="#fff"></stop></linearGradient><linearGradient id="paint28_linear_319_805" x1="334.187" x2="336.521" y1="259.76" y2="243.534" gradientUnits="userSpaceOnUse"><stop offset="0.088" stop-color="#B5A48B"></stop><stop offset="1" stop-color="#FFF1DC"></stop></linearGradient><linearGradient id="paint29_linear_319_805" x1="306.763" x2="306.763" y1="407.35" y2="246.837" gradientUnits="userSpaceOnUse"><stop stop-color="#1B18B3"></stop><stop offset="0.54" stop-color="#fff" stop-opacity="0.35"></stop><stop offset="1" stop-color="#fff"></stop></linearGradient><linearGradient id="paint30_linear_319_805" x1="400.674" x2="400.674" y1="398.868" y2="208.835" gradientUnits="userSpaceOnUse"><stop stop-color="#343467"></stop><stop offset="0.54" stop-color="#FFAA27"></stop><stop offset="1" stop-color="#6461FF"></stop></linearGradient><linearGradient id="paint31_linear_319_805" x1="408.216" x2="408.216" y1="407.35" y2="212.842" gradientUnits="userSpaceOnUse"><stop stop-color="#1B18B3"></stop><stop offset="0.54" stop-color="#fff" stop-opacity="0.35"></stop><stop offset="1" stop-color="#fff"></stop></linearGradient><linearGradient id="paint32_linear_319_805" x1="407.444" x2="409.009" y1="219.379" y2="206.049" gradientUnits="userSpaceOnUse"><stop offset="0.088" stop-color="#B5A48B"></stop><stop offset="1" stop-color="#FFF1DC"></stop></linearGradient><linearGradient id="paint33_linear_319_805" x1="380.021" x2="380.021" y1="407.35" y2="208.835" gradientUnits="userSpaceOnUse"><stop stop-color="#1B18B3"></stop><stop offset="0.54" stop-color="#fff" stop-opacity="0.35"></stop><stop offset="1" stop-color="#fff"></stop></linearGradient><linearGradient id="paint34_linear_319_805" x1="162" x2="210.67" y1="299.5" y2="240.316" gradientUnits="userSpaceOnUse"><stop stop-color="#61518D"></stop><stop offset="1" stop-color="#3A2D60"></stop></linearGradient><linearGradient id="paint35_linear_319_805" x1="258.847" x2="324.298" y1="245.039" y2="190.275" gradientUnits="userSpaceOnUse"><stop stop-color="#3B37E9"></stop><stop offset="1" stop-color="#472D05"></stop></linearGradient><linearGradient id="paint36_linear_319_805" x1="143.81" x2="214.221" y1="206.25" y2="201.359" gradientUnits="userSpaceOnUse"><stop stop-color="#50447A"></stop><stop offset="0.39" stop-color="#ADA0D7"></stop><stop offset="1" stop-color="#8579AE"></stop></linearGradient><linearGradient id="paint37_linear_319_805" x1="359.719" x2="344.483" y1="201.764" y2="149.005" gradientUnits="userSpaceOnUse"><stop stop-color="#8579A9"></stop><stop offset="0.375" stop-color="#C0B5E4"></stop><stop offset="1" stop-color="#DFD2FF"></stop></linearGradient><linearGradient id="paint38_linear_319_805" x1="265.201" x2="263.541" y1="261.939" y2="140.4" gradientUnits="userSpaceOnUse"><stop offset="0.036" stop-color="#1C1065"></stop><stop offset="0.554" stop-color="#BAACE2"></stop><stop offset="0.84" stop-color="#D8CCFF"></stop><stop offset="1" stop-color="#fff"></stop></linearGradient><linearGradient id="paint39_linear_319_805" x1="154.947" x2="228.582" y1="316.11" y2="199.152" gradientUnits="userSpaceOnUse"><stop offset="0.036" stop-color="#6461FF"></stop><stop offset="0.359" stop-color="#A597CF"></stop><stop offset="0.717" stop-color="#BAADE1"></stop><stop offset="0.86" stop-color="#CDC1F5"></stop><stop offset="1" stop-color="#D1C3F9"></stop></linearGradient><linearGradient id="paint40_linear_319_805" x1="250.267" x2="300.669" y1="249.876" y2="156.791" gradientUnits="userSpaceOnUse"><stop offset="0.036" stop-color="#6461FF"></stop><stop offset="0.359" stop-color="#A597CF"></stop><stop offset="0.717" stop-color="#BAADE1"></stop><stop offset="0.86" stop-color="#CDC1F5"></stop><stop offset="1" stop-color="#fff"></stop></linearGradient><linearGradient id="paint41_linear_319_805" x1="369.346" x2="387.452" y1="174.926" y2="144.799" gradientUnits="userSpaceOnUse"><stop stop-color="#A39AC3"></stop><stop offset="0.42" stop-color="#EBE7FF"></stop><stop offset="1" stop-color="#fff"></stop></linearGradient><radialGradient id="paint42_radial_319_805" cx="0" cy="0" r="1" gradientTransform="translate(377.665 163.535) scale(57.5347)" gradientUnits="userSpaceOnUse"><stop stop-color="#fff"></stop><stop offset="0.432" stop-color="#B1B1B1" stop-opacity="0"></stop><stop offset="1" stop-color="#3B356F" stop-opacity="0"></stop></radialGradient><linearGradient id="paint43_linear_319_805" x1="144.755" x2="145.391" y1="317.1" y2="297.473" gradientUnits="userSpaceOnUse"><stop stop-color="#BB7100"></stop><stop offset="0.11" stop-color="#E69315"></stop><stop offset="0.492" stop-color="#FFAA27"></stop><stop offset="0.94" stop-color="#FFC874"></stop></linearGradient><linearGradient id="paint44_linear_319_805" x1="159.915" x2="152.168" y1="297.757" y2="304.552" gradientUnits="userSpaceOnUse"><stop offset="0.22" stop-color="#C29111"></stop><stop offset="0.36" stop-color="#C39214"></stop><stop offset="0.48" stop-color="#C6981E"></stop><stop offset="0.59" stop-color="#CCA030"></stop><stop offset="0.69" stop-color="#D4AD48"></stop><stop offset="0.79" stop-color="#DFBD68"></stop><stop offset="0.89" stop-color="#ECD18F"></stop><stop offset="0.98" stop-color="#FBE9BC"></stop><stop offset="1" stop-color="#FFEEC6"></stop></linearGradient><linearGradient id="paint45_linear_319_805" x1="158.65" x2="146.858" y1="316.04" y2="292.091" gradientUnits="userSpaceOnUse"><stop stop-color="#FED976"></stop><stop offset="0.24" stop-color="#FEDF8E"></stop><stop offset="0.68" stop-color="#FFEEC6"></stop></linearGradient><linearGradient id="paint46_linear_319_805" x1="317.178" x2="348.983" y1="333.773" y2="315.239" gradientUnits="userSpaceOnUse"><stop stop-color="#BB7100"></stop><stop offset="0.11" stop-color="#E69315"></stop><stop offset="0.22" stop-color="#FFAA27"></stop><stop offset="0.94" stop-color="#FFC874"></stop></linearGradient><linearGradient id="paint47_linear_319_805" x1="316.469" x2="343.944" y1="327.58" y2="311.569" gradientUnits="userSpaceOnUse"><stop offset="0.22" stop-color="#BB7D10"></stop><stop offset="0.36" stop-color="#D28A1C"></stop><stop offset="0.48" stop-color="#D6A62F"></stop><stop offset="0.59" stop-color="#FDCA7C"></stop><stop offset="1" stop-color="#FBE9BC"></stop></linearGradient><linearGradient id="paint48_linear_319_805" x1="313.663" x2="348.065" y1="325.38" y2="316.018" gradientUnits="userSpaceOnUse"><stop stop-color="#FED976"></stop><stop offset="0.24" stop-color="#FEDF8E"></stop><stop offset="0.68" stop-color="#FFEEC6"></stop></linearGradient><linearGradient id="paint49_linear_319_805" x1="380.457" x2="401.172" y1="137.141" y2="130.45" gradientUnits="userSpaceOnUse"><stop stop-color="#BB7100"></stop><stop offset="0.099" stop-color="#E69315"></stop><stop offset="0.22" stop-color="#FFAA27"></stop><stop offset="0.94" stop-color="#FFC874"></stop></linearGradient><linearGradient id="paint50_linear_319_805" x1="381.434" x2="400.332" y1="131.842" y2="137.369" gradientUnits="userSpaceOnUse"><stop offset="0.22" stop-color="#C29111"></stop><stop offset="0.36" stop-color="#C39214"></stop><stop offset="0.48" stop-color="#C6981E"></stop><stop offset="0.59" stop-color="#CCA030"></stop><stop offset="0.69" stop-color="#D4AD48"></stop><stop offset="0.79" stop-color="#DFBD68"></stop><stop offset="0.89" stop-color="#ECD18F"></stop><stop offset="0.98" stop-color="#FBE9BC"></stop><stop offset="1" stop-color="#FFEEC6"></stop></linearGradient><linearGradient id="paint51_linear_319_805" x1="381.225" x2="400.075" y1="129.644" y2="141.112" gradientUnits="userSpaceOnUse"><stop stop-color="#FED976"></stop><stop offset="0.24" stop-color="#FEDF8E"></stop><stop offset="0.68" stop-color="#FFEEC6"></stop></linearGradient><linearGradient id="paint52_linear_319_805" x1="218.235" x2="200.883" y1="172.557" y2="158.712" gradientUnits="userSpaceOnUse"><stop stop-color="#BB7100"></stop><stop offset="0.11" stop-color="#E69315"></stop><stop offset="0.22" stop-color="#FFAA27"></stop><stop offset="0.94" stop-color="#FFC874"></stop></linearGradient><linearGradient id="paint53_linear_319_805" x1="220.461" x2="206.774" y1="170.033" y2="160.821" gradientUnits="userSpaceOnUse"><stop offset="0.22" stop-color="#C29111"></stop><stop offset="0.36" stop-color="#C39214"></stop><stop offset="0.48" stop-color="#C6981E"></stop><stop offset="0.59" stop-color="#CCA030"></stop><stop offset="0.69" stop-color="#D4AD48"></stop><stop offset="0.79" stop-color="#DFBD68"></stop><stop offset="0.89" stop-color="#ECD18F"></stop><stop offset="0.98" stop-color="#FBE9BC"></stop><stop offset="1" stop-color="#FFEEC6"></stop></linearGradient><linearGradient id="paint54_linear_319_805" x1="219.54" x2="207.39" y1="173.019" y2="159.074" gradientUnits="userSpaceOnUse"><stop stop-color="#FED976"></stop><stop offset="0.24" stop-color="#FEDF8E"></stop><stop offset="0.68" stop-color="#FFEEC6"></stop></linearGradient><linearGradient id="paint55_linear_319_805" x1="77.863" x2="96.234" y1="273.264" y2="264.84" gradientUnits="userSpaceOnUse"><stop stop-color="#BB7100"></stop><stop offset="0.11" stop-color="#E69315"></stop><stop offset="0.22" stop-color="#FFAA27"></stop><stop offset="0.94" stop-color="#FFC874"></stop></linearGradient><linearGradient id="paint56_linear_319_805" x1="83.547" x2="85.224" y1="259.648" y2="266.451" gradientUnits="userSpaceOnUse"><stop offset="0.22" stop-color="#C29111"></stop><stop offset="0.36" stop-color="#C39214"></stop><stop offset="0.48" stop-color="#C6981E"></stop><stop offset="0.59" stop-color="#CCA030"></stop><stop offset="0.69" stop-color="#D4AD48"></stop><stop offset="0.79" stop-color="#DFBD68"></stop><stop offset="0.89" stop-color="#ECD18F"></stop><stop offset="0.98" stop-color="#FBE9BC"></stop><stop offset="1" stop-color="#FFEEC6"></stop></linearGradient><linearGradient id="paint57_linear_319_805" x1="76.032" x2="94.204" y1="265.847" y2="266.21" gradientUnits="userSpaceOnUse"><stop stop-color="#FED976"></stop><stop offset="0.24" stop-color="#FEDF8E"></stop><stop offset="0.68" stop-color="#FFEEC6"></stop></linearGradient><linearGradient id="paint58_linear_319_805" x1="190.637" x2="190.637" y1="76.589" y2="432.456" gradientUnits="userSpaceOnUse"><stop stop-color="#550AFB"></stop><stop offset="1" stop-color="#550AFB" stop-opacity="0"></stop></linearGradient><linearGradient id="paint59_linear_319_805" x1="380.253" x2="409" y1="438.474" y2="437" gradientUnits="userSpaceOnUse"><stop stop-color="#191240"></stop><stop offset="0.68" stop-color="#2C2997"></stop><stop offset="1" stop-color="#fff" stop-opacity="0"></stop></linearGradient><linearGradient id="paint60_linear_319_805" x1="388.566" x2="344.851" y1="424.587" y2="432.382" gradientUnits="userSpaceOnUse"><stop offset="0.002" stop-color="#7B61FF"></stop><stop offset="1" stop-color="#fff"></stop></linearGradient><linearGradient id="paint61_linear_319_805" x1="378.758" x2="355.617" y1="445.199" y2="418.757" gradientUnits="userSpaceOnUse"><stop offset="0.002" stop-color="#7B61FF"></stop><stop offset="1" stop-color="#FFD799"></stop></linearGradient><linearGradient id="paint62_linear_319_805" x1="357.004" x2="400.511" y1="442.381" y2="442.381" gradientUnits="userSpaceOnUse"><stop stop-color="#FCD393"></stop><stop offset="0.277" stop-color="#6461FF"></stop><stop offset="0.655" stop-color="#3C3999"></stop><stop offset="0.903" stop-color="#34318F"></stop></linearGradient><linearGradient id="paint63_linear_319_805" x1="404.5" x2="391" y1="447.5" y2="442" gradientUnits="userSpaceOnUse"><stop stop-color="#fff"></stop><stop offset="1" stop-color="#2926B3"></stop></linearGradient><linearGradient id="paint64_linear_319_805" x1="400" x2="391.5" y1="447" y2="445.5" gradientUnits="userSpaceOnUse"><stop stop-color="#fff"></stop><stop offset="1" stop-color="#625DF5" stop-opacity="0"></stop></linearGradient><linearGradient id="paint65_linear_319_805" x1="405.232" x2="409.414" y1="456.146" y2="448.893" gradientUnits="userSpaceOnUse"><stop stop-color="#27249E"></stop><stop offset="0.21" stop-color="#6461FF"></stop><stop offset="0.56" stop-color="#312F89"></stop><stop offset="1" stop-color="#524EEE"></stop></linearGradient><linearGradient id="paint66_linear_319_805" x1="396.942" x2="401.126" y1="451.361" y2="444.107" gradientUnits="userSpaceOnUse"><stop stop-color="#C6CBE7"></stop><stop offset="0.26" stop-color="#CFD3EA"></stop><stop offset="0.68" stop-color="#E8EAF5"></stop><stop offset="1" stop-color="#fff"></stop></linearGradient><linearGradient id="paint67_linear_319_805" x1="415.808" x2="422.741" y1="461.587" y2="457.579" gradientUnits="userSpaceOnUse"><stop stop-color="#4141AA"></stop><stop offset="0.21" stop-color="#4848B3"></stop><stop offset="0.56" stop-color="#5D5DCC"></stop><stop offset="1" stop-color="#7F7FF4"></stop></linearGradient><radialGradient id="paint68_radial_319_805" cx="0" cy="0" r="1" gradientTransform="matrix(.33743 -159.51364 158.25165 .33476 378.663 440.013)" gradientUnits="userSpaceOnUse"><stop stop-color="#B9B8FF"></stop><stop offset="0.05" stop-color="#B9B8FF"></stop><stop offset="0.17" stop-color="#B9B8FF"></stop><stop offset="0.25" stop-color="#7C7AFF"></stop><stop offset="0.38" stop-color="#6B69E8"></stop><stop offset="0.5" stop-color="#2B2A80"></stop><stop offset="0.63" stop-color="#342368"></stop><stop offset="0.76" stop-color="#301054"></stop><stop offset="0.88" stop-color="#2D0548"></stop><stop offset="1" stop-color="#2D0244"></stop></radialGradient><linearGradient id="paint69_linear_319_805" x1="279.5" x2="279.5" y1="0" y2="60" gradientUnits="userSpaceOnUse"><stop stop-color="#21144C"></stop><stop offset="1" stop-color="#20154C" stop-opacity="0"></stop></linearGradient><linearGradient id="paint70_linear_319_805" x1="557" x2="519.007" y1="128" y2="128.502" gradientUnits="userSpaceOnUse"><stop stop-color="#23174A"></stop><stop offset="1" stop-color="#22184C" stop-opacity="0"></stop></linearGradient><clipPath id="clip0_319_805"><path fill="#fff" d="M0 30C0 13.431 13.431 0 30 0h528v552H30c-16.569 0-30-13.431-30-30V30z"></path></clipPath></defs></svg>