<svg xmlns="http://www.w3.org/2000/svg" width="24" height="24" fill="none" viewBox="0 0 24 24"><path fill="#fff" d="M24 12a12 12 0 11-24 0 12 12 0 0124 0zM12.43 8.859a583.248 583.248 0 00-6.998 3.015c-.568.225-.866.447-.893.663-.045.364.413.508 1.035.705l.263.082c.612.2 1.437.433 1.864.441.39.01.824-.15 1.302-.48 3.268-2.206 4.956-3.32 5.061-3.345.075-.018.18-.038.249.024.07.062.063.18.055.212-.045.194-1.84 1.861-2.768 2.726-.29.27-.495.46-.537.504-.093.094-.187.187-.283.278-.57.55-.995.96.023 1.633.49.323.883.589 1.275.856.426.291.852.58 1.404.944.14.09.275.187.405.28.496.354.945.672 1.495.621.322-.03.653-.33.821-1.23.398-2.126 1.179-6.729 1.359-8.627a2.14 2.14 0 00-.02-.472.506.506 0 00-.17-.325.789.789 0 00-.465-.14c-.45.007-1.145.249-4.476 1.635z"></path></svg>