<svg xmlns="http://www.w3.org/2000/svg" width="24" height="24" fill="none" viewBox="0 0 24 24"><path fill="#fff" d="M21.533 7.112c.015.213.015.426.015.64 0 6.502-4.949 13.994-13.995 13.994A13.9 13.9 0 010 19.538c.396.046.777.06 1.188.06a9.85 9.85 0 006.106-2.1 4.927 4.927 0 01-4.599-3.412c.305.046.61.076.93.076.441 0 .883-.06 1.294-.167A4.92 4.92 0 01.975 9.167v-.06a4.954 4.954 0 002.223.624 4.915 4.915 0 01-2.193-4.097c0-.913.244-1.75.67-2.482A13.981 13.981 0 0011.817 8.3a5.554 5.554 0 01-.122-1.126 4.917 4.917 0 014.92-4.92c1.415 0 2.695.595 3.593 1.554A9.684 9.684 0 0023.33 2.62a4.906 4.906 0 01-2.163 2.71A9.86 9.86 0 0024 4.57a10.572 10.572 0 01-2.467 2.543z"></path></svg>